if (_typeface_js && _typeface_js.loadFace) _typeface_js.loadFace({"glyphs":{"0":{"ha":710,"x_min":24,"x_max":686,"o":"m 458 840 q 556 820 514 840 q 628 765 599 800 q 672 681 657 729 q 686 574 686 632 q 672 446 686 514 q 630 311 657 378 q 564 183 603 244 q 476 75 525 122 q 368 0 426 28 q 244 -28 310 -28 q 147 -7 188 -28 q 78 50 106 14 q 37 135 50 86 q 24 243 24 185 q 39 371 24 303 q 82 506 54 439 q 149 633 110 572 q 236 739 188 693 q 341 813 285 785 q 458 840 397 840 m 431 772 q 302 728 361 772 q 201 613 243 683 q 135 456 158 543 q 111 281 111 368 q 286 39 111 39 q 414 85 357 39 q 512 204 471 132 q 574 363 553 276 q 596 532 596 450 q 431 772 596 772 z "},"1":{"ha":583,"x_min":43,"x_max":586,"o":"m 444 678 q 100 515 250 515 q 43 550 43 515 q 86 589 43 589 q 105 588 93 589 q 132 586 117 586 q 273 616 203 586 q 404 696 343 646 q 463 751 435 722 q 513 803 490 779 q 550 842 535 826 q 572 858 565 858 q 586 836 586 858 q 574 805 586 831 q 543 744 561 779 q 505 667 525 708 q 471 588 485 625 l 301 156 q 282 99 282 104 q 297 86 282 86 q 320 97 306 86 q 346 108 335 108 q 360 88 360 108 q 340 63 360 81 q 292 27 319 46 q 234 -6 264 8 q 186 -21 204 -21 q 164 -3 164 -21 q 174 42 164 21 q 299 329 232 169 q 444 678 367 489 z "},"2":{"ha":703,"x_min":14,"x_max":681,"o":"m 182 67 q 229 57 200 67 q 292 36 258 47 q 360 15 325 25 q 424 6 394 6 q 497 18 463 6 q 561 49 532 31 q 610 81 589 65 q 635 97 631 97 q 649 83 649 97 q 626 48 649 72 q 567 -1 604 24 q 483 -44 531 -25 q 386 -62 436 -62 q 301 -53 343 -62 q 220 -31 260 -43 q 142 -10 181 -19 q 69 0 104 0 q 47 -3 58 0 q 31 -6 36 -6 q 14 11 14 -6 q 28 28 14 19 q 67 49 42 36 q 128 80 92 61 q 211 128 165 99 q 360 236 292 179 q 479 353 429 293 q 558 476 529 414 q 586 600 586 538 q 540 736 586 683 q 417 789 493 789 q 317 767 368 789 q 225 710 267 746 q 157 628 183 675 q 131 532 131 582 q 161 430 131 469 q 249 390 192 390 q 292 397 272 390 q 328 413 313 404 q 356 429 344 422 q 371 436 367 436 q 383 422 383 436 q 367 395 383 410 q 328 368 351 381 q 278 347 304 356 q 229 339 251 339 q 106 377 154 339 q 57 496 57 415 q 86 613 57 551 q 167 724 115 674 q 292 808 219 775 q 451 840 364 840 q 622 775 563 840 q 681 601 681 710 q 569 363 681 492 q 489 281 539 326 q 383 192 439 235 q 274 115 328 149 q 182 68 219 81 l 182 67 z "},"3":{"ha":656,"x_min":-92,"x_max":567,"o":"m 144 657 q 128 678 128 657 q 151 724 128 696 q 213 777 175 751 q 296 822 250 803 q 386 840 342 840 q 507 801 461 840 q 553 693 553 763 q 541 637 553 667 q 510 579 529 607 q 465 529 490 551 q 415 499 440 507 q 474 472 446 492 q 522 423 501 451 q 555 362 543 394 q 567 297 567 329 q 535 148 567 215 q 451 32 504 81 q 327 -43 399 -17 q 176 -69 256 -69 q 91 -60 138 -69 q 3 -31 44 -50 q -65 15 -37 -12 q -92 78 -92 42 q -49 118 -92 118 q -26 108 -35 118 q -9 81 -18 97 q 12 46 0 64 q 44 11 24 28 q 97 -16 64 -6 q 181 -26 129 -26 q 295 -3 242 -26 q 389 59 349 19 q 452 153 429 99 q 475 269 475 207 q 465 331 475 301 q 438 381 456 360 q 395 416 419 403 q 340 429 371 429 q 310 426 319 429 q 297 424 301 424 q 274 443 274 424 q 301 468 274 456 q 365 503 335 482 q 419 549 396 524 q 456 601 442 574 q 469 658 469 629 q 433 745 469 717 q 343 774 397 774 q 269 756 301 774 q 213 715 238 738 q 172 675 189 693 q 144 657 156 657 z "},"4":{"ha":703,"x_min":4,"x_max":699,"o":"m 478 242 q 519 249 497 242 q 563 267 542 257 q 601 289 583 278 q 632 308 619 300 q 650 288 650 308 q 628 257 650 275 q 574 222 606 239 q 510 194 543 206 q 454 182 476 182 q 430 106 439 133 q 421 76 421 79 q 432 64 421 64 q 445 68 438 64 q 461 76 453 72 q 476 85 469 81 q 486 89 483 89 q 501 74 501 89 q 482 48 501 64 q 436 17 463 32 q 385 -10 410 1 q 349 -21 360 -21 q 326 -1 326 -21 q 338 46 326 18 l 389 188 q 326 203 368 190 q 236 229 283 215 q 144 254 189 243 q 74 265 100 265 q 42 263 54 265 q 24 261 31 261 q 4 283 4 261 q 17 321 4 293 q 60 393 29 349 q 144 500 92 438 q 276 643 197 563 q 360 719 314 681 q 458 787 407 757 q 565 835 510 817 q 674 854 619 854 q 699 835 697 854 q 686 788 699 821 l 478 242 l 478 242 m 590 779 q 515 758 558 779 q 422 701 471 736 q 321 619 372 665 q 223 523 269 572 q 139 424 176 474 q 79 331 101 374 q 169 318 117 331 q 272 290 222 306 q 362 263 322 275 q 414 250 401 250 l 593 724 q 603 753 600 740 q 607 774 607 767 q 590 779 607 779 z "},"5":{"ha":613,"x_min":-85,"x_max":561,"o":"m 551 840 q 561 822 561 840 q 543 795 561 815 q 481 735 525 775 q 413 728 471 728 q 264 732 289 728 q 233 659 249 697 q 197 578 217 621 q 242 582 222 582 q 355 564 301 582 q 448 510 408 546 q 510 424 488 475 q 533 307 533 372 q 503 153 533 222 q 422 34 474 83 q 303 -42 371 -15 q 158 -69 235 -69 q 60 -54 106 -69 q -17 -17 15 -39 q -67 29 -49 4 q -85 74 -85 54 q -47 111 -85 111 q -3 75 -22 111 q 30 26 14 46 q 65 -5 46 7 q 109 -22 85 -17 q 167 -28 133 -28 q 282 -3 231 -28 q 369 62 333 21 q 425 158 406 103 q 444 276 444 214 q 428 365 444 325 q 382 435 411 406 q 312 481 353 464 q 222 497 271 497 q 175 492 193 497 q 146 481 157 488 q 129 470 135 475 q 119 465 124 465 q 97 482 97 465 q 113 513 97 488 q 239 779 192 646 q 254 804 244 796 q 274 813 264 813 l 301 813 q 330 812 311 813 q 369 810 349 811 q 408 808 389 808 q 440 807 428 807 q 488 812 474 807 q 521 832 501 817 q 551 840 531 840 z "},"6":{"ha":672,"x_min":17,"x_max":665,"o":"m 17 269 q 178 681 17 513 q 539 840 333 840 q 583 837 561 840 q 624 827 606 833 q 653 810 642 821 q 665 786 665 800 q 631 749 665 749 q 602 755 614 749 q 575 768 590 761 q 538 781 560 775 q 482 788 517 788 q 219 632 338 788 q 104 306 104 479 q 115 199 104 249 q 148 113 125 149 q 206 56 171 76 q 290 35 240 35 q 392 63 346 35 q 471 138 438 92 q 523 243 504 185 q 542 363 542 301 q 410 533 542 533 q 355 524 382 533 q 304 492 328 514 q 277 460 289 476 q 256 428 265 443 q 240 403 246 413 q 229 393 233 393 q 211 413 211 393 q 231 472 211 438 q 282 537 250 506 q 355 590 314 568 q 438 611 396 611 q 585 533 536 611 q 618 401 618 476 q 592 250 618 326 q 517 112 565 174 q 403 11 469 50 q 257 -28 336 -28 q 151 -5 196 -28 q 76 58 106 18 q 31 153 46 99 q 17 269 17 207 z "},"7":{"ha":551,"x_min":64,"x_max":617,"o":"m 525 747 q 494 742 511 744 q 465 740 478 740 q 426 743 450 740 q 376 750 403 746 q 324 757 350 754 q 279 760 297 760 q 206 751 243 760 q 143 721 169 743 q 103 676 118 700 q 79 653 88 653 q 64 663 64 653 q 119 754 64 689 q 196 819 156 797 q 276 840 236 840 q 411 826 354 840 q 513 813 468 813 q 555 817 539 813 q 581 826 571 821 q 594 836 590 832 q 603 840 599 840 q 617 826 617 840 q 602 797 617 824 q 556 721 588 771 q 482 588 518 660 q 413 442 446 517 q 348 294 379 368 q 289 156 317 221 q 272 99 272 115 q 286 86 272 86 q 308 97 293 86 q 335 108 324 108 q 349 88 349 108 q 328 63 349 81 q 279 26 307 44 q 222 -7 251 7 q 175 -21 193 -21 q 153 -3 153 -21 q 190 114 153 26 q 342 428 258 271 q 525 747 425 586 z "},"8":{"ha":703,"x_min":-12,"x_max":640,"o":"m 463 553 q 528 495 497 529 q 581 422 558 461 q 615 342 603 383 q 628 261 628 300 q 596 145 628 199 q 513 53 564 92 q 397 -6 463 15 q 265 -28 332 -28 q 158 -13 208 -28 q 69 30 107 1 q 10 100 32 58 q -12 196 -12 142 q 16 301 -12 250 q 92 399 44 353 q 203 482 140 444 q 338 546 267 519 q 278 613 296 581 q 261 682 261 644 q 283 742 261 714 q 336 793 304 771 q 407 828 368 815 q 482 840 446 840 q 595 803 550 840 q 640 699 640 765 q 624 649 640 672 q 581 606 607 625 q 524 574 556 588 q 463 553 492 560 m 368 518 q 257 460 311 494 q 160 383 203 425 q 92 296 118 342 q 67 204 67 250 q 83 125 67 160 q 126 66 99 90 q 192 29 154 42 q 275 17 231 17 q 383 34 333 17 q 471 82 433 51 q 529 155 508 113 q 550 246 550 197 q 532 315 550 272 q 486 399 514 357 q 426 474 458 440 q 368 518 394 508 m 428 582 q 480 599 454 588 q 526 626 506 610 q 560 660 547 642 q 572 701 572 679 q 457 803 572 803 q 419 794 439 803 q 383 772 400 786 q 356 740 367 758 q 344 704 344 722 q 428 582 344 642 z "},"9":{"ha":671,"x_min":-4,"x_max":644,"o":"m 432 419 q 450 400 450 419 q 428 333 450 368 q 372 269 406 299 q 299 221 339 240 q 224 201 258 201 q 146 218 179 201 q 90 263 113 235 q 55 328 67 290 q 43 411 43 367 q 69 563 43 486 q 144 701 96 639 q 258 801 192 763 q 404 840 325 840 q 510 817 465 840 q 585 754 556 794 q 630 660 615 714 q 644 543 644 606 q 604 327 644 431 q 494 145 564 224 q 328 19 424 67 q 122 -28 233 -28 q 78 -24 101 -28 q 38 -14 56 -21 q 8 3 19 -7 q -4 26 -4 13 q 31 64 -4 64 q 55 58 43 64 q 83 44 67 51 q 122 31 99 38 q 179 25 144 25 q 283 47 233 25 q 374 105 332 68 q 450 190 417 142 q 508 292 483 239 q 544 401 532 346 q 557 507 557 457 q 547 615 557 565 q 513 701 536 664 q 456 758 490 738 q 371 778 421 778 q 269 750 315 778 q 190 676 224 722 q 138 572 157 631 q 119 450 119 513 q 251 279 119 279 q 308 290 283 279 q 355 320 333 301 q 395 365 376 339 q 432 419 414 390 z "},"!":{"ha":479,"x_min":50,"x_max":451,"o":"m 107 111 q 118 101 111 111 q 131 78 125 92 q 142 53 138 65 q 147 38 147 42 q 140 21 147 31 q 124 2 133 11 q 106 -14 115 -7 q 90 -21 96 -21 q 76 -12 83 -21 q 64 7 69 -4 q 54 29 58 18 q 50 47 50 40 q 57 64 50 53 q 74 85 64 75 q 93 103 83 96 q 107 111 103 111 m 181 254 q 174 239 178 247 q 163 221 169 231 q 111 192 142 193 q 96 203 96 192 q 111 254 96 214 l 331 863 q 346 911 342 890 q 351 944 350 932 q 338 957 351 957 q 308 944 329 957 q 283 932 288 932 q 268 947 268 932 q 335 1004 268 965 q 429 1042 401 1042 q 451 1022 451 1042 q 439 975 451 1010 l 181 254 z "},"\"":{"ha":451,"x_min":146,"x_max":524,"o":"m 213 593 q 163 558 194 558 q 146 574 146 558 q 153 611 146 590 l 215 786 q 236 827 225 814 q 258 840 247 840 l 306 840 q 329 819 329 840 q 313 774 329 804 l 213 593 m 407 593 q 357 558 389 558 q 340 574 340 558 q 347 611 340 590 l 410 786 q 431 827 419 814 q 453 840 442 840 l 500 840 q 524 819 524 840 q 507 774 524 804 l 407 593 z "},"#":{"ha":743,"x_min":25,"x_max":718,"o":"m 226 288 l 133 18 q 78 -11 125 -8 q 58 6 58 -11 q 67 40 58 15 l 153 288 l 60 288 q 25 311 25 288 q 60 357 25 357 l 178 357 l 235 521 l 138 521 q 103 544 103 521 q 138 590 103 590 l 258 590 l 335 810 q 390 840 344 840 q 410 824 407 840 q 401 789 410 814 l 332 590 l 506 590 l 582 810 q 638 840 592 840 q 657 824 657 840 q 649 789 657 814 l 579 590 l 686 590 q 712 586 706 590 q 718 567 718 582 q 708 538 718 554 q 683 521 697 521 l 556 521 l 499 357 l 610 357 q 635 353 629 357 q 640 333 640 349 q 630 304 640 321 q 606 288 619 288 l 474 288 l 381 18 q 325 -11 369 -10 q 306 6 307 -11 q 314 40 306 15 l 400 288 l 226 288 m 481 521 l 308 521 l 251 357 l 424 357 l 481 521 z "},"$":{"ha":728,"x_min":8,"x_max":664,"o":"m 524 829 q 585 811 582 811 q 604 825 590 811 q 629 840 617 838 q 664 715 664 840 q 640 603 664 604 q 618 611 624 603 q 613 651 613 618 q 578 749 613 701 q 468 806 536 806 q 368 713 368 806 q 431 592 368 663 q 546 464 543 467 q 607 290 607 378 q 514 76 607 165 q 265 -17 417 -17 q 231 -15 251 -17 q 179 -10 210 -14 l 111 -175 q 76 -219 92 -219 q 58 -203 58 -219 q 71 -158 58 -192 l 135 8 q 46 85 82 28 q 8 199 8 140 q 42 326 8 274 q 93 367 67 367 q 128 344 128 367 q 104 297 128 349 q 81 188 83 250 q 125 81 81 128 q 275 26 176 28 q 453 89 383 26 q 525 278 522 156 q 463 408 525 339 q 406 469 435 439 q 349 531 378 500 q 288 692 290 608 q 329 792 288 747 q 446 840 374 838 l 479 840 q 558 1031 482 840 q 586 1065 572 1065 q 610 1043 608 1065 q 600 1017 610 1040 l 524 829 l 524 829 z "},"%":{"ha":963,"x_min":56,"x_max":882,"o":"m 710 840 q 731 821 731 840 q 715 778 731 806 l 256 -18 q 217 -51 236 -51 q 194 -33 194 -51 q 211 10 194 -19 l 671 806 q 710 840 690 840 m 317 840 q 378 826 351 840 q 424 788 406 811 q 453 733 443 764 q 463 667 463 701 q 442 550 463 610 q 387 442 422 490 q 303 364 351 394 q 199 333 254 333 q 138 348 165 333 q 93 387 111 363 q 65 441 75 411 q 56 503 56 471 q 76 618 56 558 q 131 727 96 678 q 215 808 167 776 q 317 840 263 840 m 301 788 q 228 763 260 788 q 174 699 196 738 q 141 613 153 660 q 129 525 129 567 q 219 386 129 386 q 293 411 261 386 q 347 476 325 436 q 378 562 368 515 q 389 653 389 608 q 384 699 389 675 q 369 743 379 724 q 342 775 358 763 q 301 788 325 788 m 736 479 q 798 465 771 479 q 844 426 825 450 q 872 372 863 403 q 882 306 882 340 q 862 189 882 249 q 806 81 842 129 q 722 3 771 33 q 618 -28 674 -28 q 558 -13 585 -28 q 513 26 531 1 q 485 80 494 50 q 475 142 475 110 q 495 257 475 197 q 551 366 515 317 q 634 447 586 415 q 736 479 682 479 m 721 426 q 647 401 679 426 q 594 338 615 376 q 560 252 572 299 q 549 164 549 206 q 639 25 549 25 q 713 50 681 25 q 766 115 744 75 q 798 201 788 154 q 808 292 808 247 q 803 338 808 314 q 788 382 799 363 q 761 414 778 401 q 721 426 744 426 z "},"&":{"ha":882,"x_min":1,"x_max":896,"o":"m 167 513 q 371 654 289 626 q 404 779 371 692 q 448 875 424 832 q 500 954 472 918 q 654 1042 572 1042 q 740 951 740 1042 q 628 757 740 863 q 460 647 535 671 q 546 161 460 317 q 649 271 599 196 q 713 453 713 364 q 663 533 713 531 q 640 529 653 533 q 624 525 629 525 q 610 544 610 525 q 635 583 610 560 q 696 608 661 608 q 757 581 731 608 q 790 492 790 549 q 693 256 790 388 q 568 118 628 168 q 688 54 610 56 q 803 100 732 54 q 874 147 871 147 q 896 122 896 147 q 818 50 896 103 q 640 -10 728 -8 q 539 17 589 -10 q 489 58 506 35 q 428 24 449 36 q 406 11 408 13 q 232 -21 331 -21 q 58 49 119 -21 q 1 208 1 113 q 167 513 1 358 m 197 469 q 90 231 90 347 q 150 92 90 143 q 296 43 204 43 q 464 99 382 43 q 428 182 444 133 q 399 296 413 231 q 377 444 383 368 q 369 603 371 519 q 197 469 286 574 m 586 779 q 672 922 669 856 q 622 985 672 982 q 517 889 567 985 q 467 700 467 794 q 586 779 515 715 z "},"'":{"ha":313,"x_min":146,"x_max":329,"o":"m 213 593 q 163 558 194 558 q 146 574 146 558 q 153 611 146 590 l 215 786 q 236 827 225 814 q 258 840 247 840 l 306 840 q 329 819 329 840 q 313 774 329 804 l 213 593 z "},"(":{"ha":400,"x_min":46,"x_max":638,"o":"m 638 1064 q 597 1043 638 1054 q 449 975 515 1024 q 332 858 383 926 q 243 703 281 789 q 181 524 206 618 q 145 331 157 429 q 133 136 133 232 q 203 -165 133 -81 q 228 -207 228 -194 q 211 -219 228 -219 q 167 -192 194 -219 q 46 203 46 -68 q 131 639 46 432 q 215 802 164 722 q 327 944 265 882 q 460 1045 389 1007 q 607 1083 531 1083 q 638 1064 638 1083 z "},")":{"ha":400,"x_min":0,"x_max":592,"o":"m 31 -219 q 0 -200 0 -219 q 40 -179 3 -187 q 244 -64 157 -151 q 388 149 331 24 q 475 424 446 274 q 504 728 504 574 q 495 863 504 797 q 468 971 486 929 q 430 1034 450 1013 q 410 1071 410 1056 q 426 1083 410 1083 q 454 1071 439 1083 q 486 1038 469 1058 q 519 990 503 1017 q 547 933 535 963 q 568 870 560 906 q 581 797 576 835 q 589 724 586 760 q 592 661 592 688 q 574 469 592 569 q 522 270 556 368 q 440 83 489 172 q 328 -73 390 -6 q 192 -180 267 -140 q 31 -219 117 -219 z "},"*":{"ha":690,"x_min":138,"x_max":621,"o":"m 421 785 l 474 722 q 500 708 486 708 q 514 715 507 708 q 525 724 522 724 q 543 669 543 724 q 535 617 543 646 q 515 589 526 589 q 493 606 506 589 l 381 751 l 343 685 q 339 674 340 678 q 336 667 338 669 q 349 647 336 657 q 363 632 363 639 q 325 606 363 619 q 261 590 288 590 q 232 604 232 590 q 240 626 232 614 l 336 775 l 261 788 l 253 788 q 228 769 233 788 q 213 751 222 753 q 168 792 196 751 q 142 857 138 831 q 154 865 143 865 q 165 865 160 865 q 178 863 171 865 l 353 824 l 350 911 q 324 942 350 942 q 304 954 306 942 q 336 1004 304 968 q 397 1042 371 1042 q 410 1014 410 1042 l 406 832 q 435 843 417 836 q 482 861 454 850 q 504 885 503 867 q 501 896 504 885 q 500 910 500 901 q 508 919 500 919 q 579 899 535 919 q 621 861 618 879 q 599 840 621 846 l 421 785 z "},"+":{"ha":690,"x_min":74,"x_max":561,"o":"m 392 472 q 422 457 422 472 q 419 440 422 453 q 410 413 415 426 l 361 279 l 526 279 q 553 276 546 279 q 561 256 561 272 q 552 225 561 240 q 526 210 543 210 l 336 210 l 269 25 q 225 0 261 0 q 194 15 194 0 q 197 27 194 21 q 201 44 199 33 l 261 210 l 108 210 q 74 235 74 210 q 108 279 74 279 l 286 279 l 347 447 q 392 472 356 469 z "},",":{"ha":313,"x_min":19,"x_max":157,"o":"m 126 111 q 147 90 138 111 q 157 50 157 69 q 147 2 157 28 q 121 -46 138 -24 q 83 -83 104 -68 q 36 -97 61 -97 q 19 -86 19 -97 q 33 -69 19 -74 q 75 -8 75 -60 q 71 11 75 4 q 63 23 67 18 q 54 31 58 28 q 50 39 50 35 q 60 53 50 42 q 84 78 71 65 q 110 101 97 90 q 126 111 122 111 z "},"-":{"ha":511,"x_min":14,"x_max":476,"o":"m 438 325 q 476 307 476 325 q 464 281 476 297 q 435 247 451 264 q 401 219 418 231 q 374 207 383 207 q 358 222 358 207 q 367 233 358 228 q 375 251 375 239 q 344 261 375 261 l 53 261 q 14 279 14 261 q 26 306 14 289 q 54 339 38 322 q 88 367 71 356 q 117 379 106 379 q 132 364 132 379 q 124 351 132 360 q 115 335 115 343 q 146 325 115 325 l 438 325 z "},".":{"ha":313,"x_min":50,"x_max":147,"o":"m 107 111 q 118 101 111 111 q 131 78 125 92 q 142 53 138 65 q 147 38 147 42 q 140 21 147 31 q 124 2 133 11 q 106 -14 115 -7 q 90 -21 96 -21 q 76 -12 83 -21 q 64 7 69 -4 q 54 29 58 18 q 50 47 50 40 q 57 64 50 53 q 74 85 64 75 q 93 103 83 96 q 107 111 103 111 z "},"/":{"ha":289,"x_min":-62,"x_max":378,"o":"m 378 1050 q 369 1015 378 1040 l 11 -17 q 0 -37 7 -31 q -49 -64 -26 -64 q -62 -51 -61 -64 q -56 -17 -62 -40 l 303 1015 q 314 1036 307 1029 q 363 1063 340 1063 q 378 1050 375 1063 z "},":":{"ha":313,"x_min":50,"x_max":242,"o":"m 107 111 q 118 101 111 111 q 131 78 125 92 q 142 53 138 65 q 147 38 147 42 q 140 21 147 31 q 124 2 133 11 q 106 -14 115 -7 q 90 -21 96 -21 q 76 -12 83 -21 q 64 7 69 -4 q 54 29 58 18 q 50 47 50 40 q 57 64 50 53 q 74 85 64 75 q 93 103 83 96 q 107 111 103 111 m 201 486 q 213 476 206 486 q 226 453 219 467 q 237 428 232 440 q 242 413 242 417 q 235 396 242 406 q 219 377 228 386 q 200 361 210 368 q 185 354 190 354 q 171 363 178 354 q 158 382 164 371 q 149 404 153 393 q 144 422 144 415 q 151 439 144 428 q 168 460 158 450 q 188 478 178 471 q 201 486 197 486 z "},";":{"ha":313,"x_min":19,"x_max":242,"o":"m 126 111 q 147 90 138 111 q 157 50 157 69 q 147 2 157 28 q 121 -46 138 -24 q 83 -83 104 -68 q 36 -97 61 -97 q 19 -86 19 -97 q 33 -69 19 -74 q 75 -8 75 -60 q 71 11 75 4 q 63 23 67 18 q 54 31 58 28 q 50 39 50 35 q 60 53 50 42 q 84 78 71 65 q 110 101 97 90 q 126 111 122 111 m 201 486 q 213 476 206 486 q 226 453 219 467 q 237 428 232 440 q 242 413 242 417 q 235 396 242 406 q 219 377 228 386 q 200 361 210 368 q 185 354 190 354 q 171 363 178 354 q 158 382 164 371 q 149 404 153 393 q 144 422 144 415 q 151 439 144 428 q 168 460 158 450 q 188 478 178 471 q 201 486 197 486 z "},"<":{"ha":1389,"x_min":279,"x_max":1110,"o":"m 1110 838 l 1110 729 l 415 411 l 1110 103 l 1110 -6 l 279 363 l 279 461 l 1110 838 z "},"=":{"ha":690,"x_min":46,"x_max":583,"o":"m 81 140 q 46 165 46 140 q 81 210 46 210 l 499 210 q 526 206 518 210 q 533 186 533 201 q 524 156 533 171 q 499 140 515 140 l 81 140 m 131 314 q 96 339 96 314 q 131 383 96 383 l 549 383 q 576 379 568 383 q 583 360 583 375 q 574 329 583 344 q 549 314 565 314 l 131 314 z "},">":{"ha":1389,"x_min":279,"x_max":1110,"o":"m 1110 461 l 1110 363 l 279 -6 l 279 103 l 974 411 l 279 729 l 279 838 l 1110 461 z "},"?":{"ha":604,"x_min":89,"x_max":576,"o":"m 181 111 q 192 101 185 111 q 205 78 199 92 q 216 53 211 65 q 221 38 221 42 q 214 21 221 31 q 198 2 207 11 q 179 -14 189 -7 q 164 -21 169 -21 q 150 -12 157 -21 q 138 7 143 -4 q 128 29 132 18 q 124 47 124 40 q 131 64 124 53 q 147 85 138 75 q 167 103 157 96 q 181 111 176 111 m 379 1042 q 525 984 474 1042 q 576 835 576 926 q 558 721 576 776 q 506 613 539 665 q 427 509 472 560 q 329 411 382 458 q 243 325 243 333 q 256 299 243 314 q 279 285 268 285 q 291 290 282 285 q 310 303 300 296 q 327 317 319 311 q 338 322 335 322 q 353 301 353 322 q 336 281 353 296 q 298 249 319 265 q 257 219 276 232 q 232 207 238 207 q 213 222 226 207 q 187 255 200 236 q 163 292 174 274 q 153 317 153 310 q 239 393 153 325 q 419 585 351 482 q 488 817 488 688 q 479 878 488 850 q 455 929 471 907 q 414 964 439 951 q 356 976 389 976 q 274 956 314 976 q 204 903 235 936 q 156 828 174 871 q 138 742 138 786 q 140 708 138 721 q 146 684 143 694 q 151 665 149 674 q 154 649 154 657 q 125 625 154 625 q 110 637 117 625 q 99 666 103 649 q 92 704 94 683 q 89 743 89 725 q 113 852 89 799 q 178 948 138 906 q 270 1016 218 990 q 379 1042 322 1042 z "},"@":{"ha":1389,"x_min":132,"x_max":1257,"o":"m 1072 635 l 957 347 q 872 111 872 136 q 914 74 872 74 q 1022 108 971 74 q 1110 196 1072 142 q 1169 316 1147 250 q 1192 446 1192 382 q 1156 607 1192 536 q 1062 726 1121 678 q 924 800 1003 775 q 760 825 846 825 q 561 778 657 825 q 391 656 465 732 q 272 481 317 579 q 226 278 226 382 q 263 113 226 186 q 365 -13 300 39 q 517 -93 429 -65 q 710 -121 606 -121 q 1117 21 935 -121 l 1153 -11 q 1065 -81 1118 -49 q 950 -135 1011 -112 q 824 -171 889 -158 q 704 -183 760 -183 q 482 -152 586 -183 q 300 -61 378 -121 q 177 83 222 -1 q 132 276 132 168 q 181 512 132 400 q 316 709 231 624 q 514 845 401 794 q 754 896 626 896 q 947 864 856 896 q 1108 773 1039 832 q 1217 631 1176 714 q 1257 446 1257 547 q 1226 284 1257 364 q 1143 141 1196 204 q 1019 39 1090 78 q 867 0 949 0 q 765 100 765 0 q 585 10 688 10 q 450 65 499 10 q 401 208 401 121 q 513 511 401 365 q 760 663 628 663 q 922 560 869 663 l 953 635 l 1072 635 m 790 608 q 601 433 697 608 q 511 160 511 272 q 608 67 511 67 q 691 97 654 67 q 757 173 728 126 q 808 276 786 219 q 847 385 831 332 q 876 519 876 478 q 852 582 876 556 q 790 608 828 608 z "},"A":{"ha":1046,"x_min":-19,"x_max":1174,"o":"m 925 936 q 1096 969 996 969 q 1174 932 1174 969 q 1146 910 1174 910 q 1103 917 1122 910 q 1061 925 1085 925 q 957 906 996 925 q 1026 808 1003 861 q 1050 688 1050 754 q 1028 560 1050 618 l 892 194 q 869 121 869 138 q 885 100 869 100 q 905 106 894 100 q 925 119 915 111 q 943 132 935 126 q 958 138 951 138 q 969 122 969 138 q 944 89 969 110 q 888 49 919 68 q 824 15 856 29 q 781 0 793 0 q 757 26 757 0 q 775 94 757 53 l 875 333 q 492 268 774 268 q 88 -28 325 -28 q -19 15 -19 -28 q 29 51 -19 51 q 48 48 39 51 q 70 40 57 44 q 101 33 83 36 q 149 29 119 29 q 432 268 311 29 q 355 251 392 268 q 281 197 318 235 q 247 172 256 172 q 231 189 231 172 q 249 229 231 204 q 300 277 268 254 q 374 317 332 300 q 461 333 415 333 q 546 502 501 417 q 640 664 590 588 q 748 805 690 740 q 872 911 806 869 q 813 948 849 932 q 733 974 776 964 q 645 990 690 985 q 558 996 600 996 q 400 978 479 996 q 258 923 321 960 q 156 832 196 886 q 117 706 117 778 q 344 514 117 514 q 367 492 367 514 q 338 469 367 469 q 28 704 28 469 q 78 851 28 788 q 207 956 129 914 q 378 1020 285 999 q 558 1042 472 1042 q 656 1035 606 1042 q 756 1015 707 1028 q 849 982 806 1001 q 925 936 892 963 m 833 371 q 922 465 894 396 l 957 560 q 979 688 979 618 q 901 878 979 813 q 519 333 736 803 q 710 343 632 333 q 833 371 789 353 z "},"B":{"ha":1140,"x_min":28,"x_max":1093,"o":"m 957 615 q 972 670 967 646 q 976 736 976 694 q 940 853 976 804 q 843 933 903 901 q 708 981 783 965 q 556 996 632 996 q 403 978 481 996 q 262 925 325 961 q 158 834 199 889 q 117 706 117 779 q 342 515 117 515 q 364 492 364 515 q 335 471 364 471 q 28 704 28 471 q 78 851 28 788 q 206 956 128 914 q 376 1020 283 999 q 556 1042 469 1042 q 733 1025 643 1042 q 896 972 824 1008 q 1014 876 968 935 q 1060 733 1060 818 q 1004 588 1060 664 q 1093 368 1093 504 q 1057 211 1093 283 q 960 85 1021 139 q 821 2 900 32 q 654 -28 742 -28 q 460 0 547 -28 q 369 29 374 29 q 326 51 326 29 q 343 74 326 61 q 397 130 376 100 q 435 207 417 160 l 619 703 q 636 768 636 749 q 625 781 636 781 q 597 769 614 781 q 571 758 579 758 q 558 772 558 758 q 580 799 558 781 q 631 834 601 817 q 689 865 660 851 q 732 878 718 878 q 749 858 749 878 q 743 826 749 847 q 725 772 738 804 l 514 211 q 485 157 501 179 q 454 117 469 135 q 435 99 446 107 q 424 90 424 92 q 448 70 424 79 q 521 49 472 61 q 610 32 567 38 q 693 26 654 26 q 820 51 763 26 q 919 122 878 76 q 984 230 961 167 q 1007 368 1007 293 q 949 529 1007 463 q 919 508 938 518 q 879 489 900 497 q 837 476 858 481 q 799 471 815 471 q 764 475 782 471 q 732 488 746 479 q 709 509 718 496 q 700 540 700 522 q 713 581 700 563 q 747 613 726 599 q 793 634 768 626 q 840 642 818 642 q 957 615 903 642 m 919 565 q 838 601 883 601 q 756 546 756 601 q 814 515 756 515 q 838 520 822 515 q 871 532 854 525 q 901 548 888 539 q 919 565 915 557 z "},"C":{"ha":828,"x_min":28,"x_max":869,"o":"m 833 1032 q 869 850 869 1032 q 847 747 869 747 q 818 797 818 747 q 800 874 818 839 q 751 933 782 908 q 678 972 719 958 q 592 986 638 986 q 403 931 489 986 q 254 789 317 876 q 156 593 192 701 q 121 376 121 485 q 140 234 121 299 q 196 122 160 169 q 282 49 232 75 q 393 24 332 24 q 584 81 508 24 q 671 247 660 139 q 721 332 679 329 q 754 293 754 332 q 728 183 754 239 q 654 79 701 126 q 540 2 607 32 q 394 -28 474 -28 q 235 2 304 -28 q 121 85 167 32 q 51 213 75 139 q 28 376 28 288 q 49 530 28 451 q 108 682 69 608 q 199 821 146 756 q 314 935 251 886 q 447 1013 376 985 q 592 1042 517 1042 q 665 1033 633 1042 q 721 1013 697 1024 q 761 994 744 1003 q 790 986 778 986 q 808 1010 800 986 q 833 1032 817 1032 z "},"D":{"ha":1121,"x_min":42,"x_max":1107,"o":"m 378 492 q 349 469 378 469 q 42 704 42 469 q 90 851 42 788 q 215 956 139 914 q 385 1020 292 999 q 569 1042 479 1042 q 778 1012 681 1042 q 949 923 876 982 q 1065 776 1022 864 q 1107 569 1107 688 q 1072 356 1107 463 q 974 163 1038 249 q 819 25 910 78 q 617 -28 729 -28 q 522 -19 561 -28 q 456 1 483 -10 q 413 20 429 11 q 383 29 396 29 q 340 51 340 29 q 357 74 340 61 q 413 132 393 101 q 449 207 432 163 l 633 703 q 645 741 642 724 q 650 768 649 758 q 639 781 650 781 q 627 777 635 781 q 611 769 619 774 q 596 762 603 765 q 585 758 589 758 q 572 772 572 758 q 595 800 572 782 q 647 835 618 818 q 705 865 676 853 q 746 878 733 878 q 763 858 763 878 q 739 772 763 836 l 528 211 q 498 153 514 175 q 469 118 482 131 q 447 100 456 106 q 438 90 438 94 q 460 68 438 79 q 513 47 483 57 q 572 32 543 38 q 615 26 601 26 q 792 72 715 26 q 919 194 868 118 q 997 367 971 269 q 1024 569 1024 465 q 990 746 1024 667 q 894 881 956 825 q 750 966 833 936 q 569 996 667 996 q 418 978 496 996 q 276 925 340 961 q 172 834 213 889 q 131 706 131 779 q 356 514 131 514 q 378 492 378 514 z "},"E":{"ha":832,"x_min":28,"x_max":836,"o":"m 789 1032 q 836 844 836 1032 q 803 747 836 749 q 772 797 772 747 q 754 874 772 839 q 705 933 736 908 q 633 972 674 958 q 547 986 593 986 q 406 929 457 986 q 354 775 354 872 q 364 696 354 726 q 458 704 411 704 q 509 698 483 704 q 556 679 535 692 q 590 647 576 667 q 603 603 603 628 q 593 567 603 582 q 569 540 583 551 q 535 524 554 529 q 497 518 515 518 q 383 546 438 518 q 301 624 328 574 q 230 569 263 604 q 174 492 197 535 q 137 401 150 449 q 124 306 124 353 q 145 190 124 242 q 206 103 167 139 q 297 47 244 67 q 413 28 350 28 q 514 43 467 28 q 599 87 561 58 q 660 157 636 115 q 690 251 683 199 q 740 336 700 336 q 772 297 772 336 q 744 184 772 242 q 666 79 717 126 q 544 2 615 32 q 389 -28 474 -28 q 242 -6 308 -28 q 128 59 175 17 q 54 163 81 101 q 28 306 28 225 q 49 410 28 356 q 104 514 69 464 q 184 603 139 564 q 278 663 229 643 q 267 716 271 690 q 263 774 263 742 q 286 876 263 828 q 349 962 310 925 q 439 1020 388 999 q 547 1042 490 1042 q 615 1034 583 1042 q 678 1014 647 1026 q 721 994 706 1003 q 746 986 736 986 q 764 1010 756 986 q 789 1032 772 1032 m 376 649 q 425 588 388 610 q 506 567 463 567 q 564 601 564 567 q 453 664 564 664 q 424 660 443 664 q 376 649 406 657 z "},"F":{"ha":906,"x_min":28,"x_max":1215,"o":"m 1201 1042 q 1215 1024 1215 1042 q 1203 1003 1215 1019 q 1173 969 1190 986 q 1138 938 1156 951 q 1111 924 1121 924 q 1011 932 1082 924 q 849 950 940 940 q 657 968 758 960 q 467 976 556 976 q 342 958 404 976 q 229 906 279 940 q 148 820 179 871 q 117 706 117 769 q 344 514 117 514 q 367 492 367 514 q 338 469 367 469 q 28 704 28 469 q 73 847 28 785 q 193 953 118 910 q 363 1019 268 996 q 558 1042 458 1042 q 701 1036 618 1042 q 863 1024 783 1031 q 1006 1013 943 1018 q 1089 1007 1068 1007 q 1122 1013 1107 1007 q 1151 1024 1138 1018 q 1178 1036 1165 1031 q 1201 1042 1190 1042 m 610 485 q 576 474 594 483 q 540 456 557 465 q 510 438 524 446 q 494 429 497 429 q 479 444 479 429 q 495 472 479 454 q 535 507 511 490 q 585 537 558 524 q 635 551 613 550 l 700 739 q 721 814 721 799 q 710 826 721 826 q 681 815 699 826 q 656 804 664 804 q 643 818 643 804 q 665 844 643 826 q 715 879 686 861 q 772 910 743 897 q 817 924 801 924 q 833 904 833 924 q 810 818 833 883 l 715 551 q 739 549 722 550 q 767 549 756 549 q 858 568 817 549 q 925 607 900 588 q 938 588 938 607 q 918 553 938 572 q 871 518 899 535 q 810 490 843 501 q 751 479 778 479 q 723 480 738 479 q 692 482 708 481 l 592 194 q 575 143 581 163 q 569 121 569 124 q 585 100 569 100 q 603 106 593 100 q 624 119 614 111 q 644 132 635 126 q 658 138 653 138 q 669 122 669 138 q 646 91 669 111 q 591 51 622 71 q 528 15 560 31 q 481 0 497 0 q 457 26 458 0 q 461 53 457 38 q 472 93 465 69 q 541 288 507 192 q 610 485 575 385 z "},"G":{"ha":865,"x_min":-8,"x_max":844,"o":"m 676 231 q 389 96 544 96 q 242 117 308 96 q 128 178 175 138 q 54 281 81 219 q 28 422 28 342 q 75 653 28 542 q 199 851 122 765 q 372 990 275 938 q 567 1042 468 1042 q 641 1033 608 1042 q 698 1013 674 1024 q 738 994 722 1003 q 765 986 754 986 q 783 1010 775 986 q 808 1032 792 1032 q 835 985 826 1032 q 844 850 844 939 q 822 747 844 747 q 793 797 793 747 q 775 872 793 838 q 726 932 757 907 q 654 972 696 957 q 567 986 613 986 q 386 936 468 986 q 245 806 304 886 q 153 625 186 726 q 121 422 121 524 q 140 309 121 360 q 195 223 160 258 q 280 169 231 188 q 389 150 329 150 q 510 177 450 150 q 619 244 571 204 q 696 328 667 283 q 725 406 725 372 q 708 426 725 426 q 682 416 696 426 q 657 406 668 406 q 638 421 638 406 q 660 446 638 429 q 710 478 682 463 q 765 506 738 494 q 800 518 792 518 q 824 490 824 518 q 809 369 824 438 q 764 227 794 300 q 688 83 733 154 q 581 -43 642 13 q 441 -133 519 -99 q 268 -167 363 -167 q 163 -154 213 -167 q 74 -122 113 -142 q 14 -75 36 -101 q -8 -21 -8 -49 q 35 22 -8 22 q 88 -12 58 22 q 128 -60 110 -40 q 168 -90 147 -79 q 213 -106 189 -101 q 271 -111 238 -111 q 676 231 539 -111 z "},"H":{"ha":1232,"x_min":28,"x_max":1340,"o":"m 822 558 q 919 560 868 558 q 1018 574 971 563 q 1101 607 1065 585 q 1151 671 1136 629 l 1207 829 q 1228 904 1228 888 q 1217 917 1228 917 q 1189 906 1203 917 q 1163 894 1175 894 q 1150 908 1150 894 q 1173 936 1150 918 q 1225 972 1196 954 q 1283 1001 1254 989 q 1324 1014 1311 1014 q 1340 994 1340 1014 q 1317 908 1340 979 l 1067 194 q 1044 121 1044 133 q 1060 100 1044 100 q 1078 106 1068 100 q 1099 119 1089 111 q 1119 132 1110 126 q 1133 138 1128 138 q 1144 122 1144 138 q 1122 92 1144 113 q 1067 51 1099 72 q 1004 15 1036 31 q 956 0 972 0 q 932 26 932 0 q 935 53 932 38 q 947 93 939 69 l 1107 546 q 1031 508 1064 522 q 966 488 999 494 q 894 479 933 481 q 797 478 854 478 q 726 274 769 375 q 624 92 683 172 q 490 -40 565 11 q 321 -90 414 -90 q 269 -69 269 -90 q 310 -49 269 -49 q 456 -6 393 -49 q 566 106 519 36 q 647 268 613 176 q 708 458 681 360 q 667 449 689 458 q 623 424 644 439 q 581 392 601 410 q 544 358 561 374 q 525 372 525 358 q 548 413 525 385 q 603 469 571 440 q 673 522 636 499 q 738 550 710 546 l 825 829 q 833 864 831 847 q 836 900 836 881 q 810 947 836 928 q 742 976 783 965 q 653 992 701 988 q 558 996 604 996 q 406 978 483 996 q 263 925 328 961 q 158 834 199 889 q 117 706 117 779 q 344 514 117 514 q 367 492 367 514 q 338 469 367 469 q 105 526 182 469 q 28 704 28 582 q 78 851 28 788 q 207 956 129 914 q 378 1020 285 999 q 558 1042 472 1042 q 675 1037 610 1042 q 799 1019 740 1032 q 897 987 857 1007 q 936 938 936 967 q 907 829 936 922 l 822 558 l 822 558 z "},"I":{"ha":854,"x_min":28,"x_max":921,"o":"m 782 551 q 821 560 801 553 q 857 575 840 567 q 887 592 874 583 q 908 607 900 601 q 921 588 921 607 q 902 556 921 574 q 858 522 883 538 q 803 494 832 506 q 757 481 775 482 q 665 253 714 357 q 552 72 615 149 q 406 -47 489 -4 q 213 -90 322 -90 q 161 -69 161 -90 q 201 -49 161 -49 q 362 -10 292 -49 q 488 97 432 28 q 590 265 544 167 q 675 482 635 363 q 643 484 657 483 q 618 485 629 485 q 580 476 599 485 q 545 456 561 467 q 518 438 529 446 q 503 429 507 429 q 488 444 488 429 q 502 471 488 453 q 540 506 517 489 q 590 538 563 524 q 643 551 617 551 q 677 551 664 551 q 699 549 690 550 l 797 829 q 806 862 803 844 q 808 900 808 879 q 782 947 808 928 q 715 976 756 965 q 624 992 674 988 q 531 996 575 996 q 378 978 453 996 q 246 923 304 960 q 152 832 188 886 q 117 706 117 778 q 344 514 117 514 q 367 492 367 514 q 338 469 367 469 q 28 704 28 469 q 74 851 28 788 q 194 956 121 914 q 356 1020 267 999 q 531 1042 446 1042 q 646 1036 581 1042 q 769 1018 711 1031 q 868 985 828 1006 q 908 938 908 965 q 879 829 908 913 l 782 551 l 782 551 z "},"J":{"ha":808,"x_min":-76,"x_max":908,"o":"m 329 492 q 300 469 329 469 q 195 484 244 469 q 108 528 146 499 q 49 602 71 558 q 28 704 28 646 q 77 846 28 783 q 201 952 126 908 q 363 1019 275 996 q 531 1042 451 1042 q 646 1037 581 1042 q 769 1019 711 1032 q 868 987 828 1007 q 908 938 908 967 q 879 829 908 913 l 685 275 q 594 69 649 172 q 470 -119 539 -35 q 319 -257 401 -204 q 147 -310 238 -310 q 54 -292 96 -310 q -17 -242 13 -274 q -61 -166 -46 -210 q -76 -72 -76 -122 q -52 51 -76 -14 q 16 181 -28 117 q 122 306 60 246 q 259 410 183 365 q 422 483 335 456 q 606 510 510 510 q 647 472 647 510 q 589 443 647 443 q 410 418 492 443 q 265 351 329 393 q 152 257 200 310 q 72 148 104 204 q 23 38 39 92 q 7 -61 7 -17 q 154 -258 7 -258 q 297 -212 229 -258 q 420 -94 364 -167 q 521 69 476 -21 q 596 246 565 158 l 797 829 q 808 900 808 863 q 782 947 808 928 q 715 976 756 965 q 624 992 674 988 q 531 996 575 996 q 383 975 457 996 q 251 916 310 954 q 154 824 192 878 q 117 706 117 771 q 169 566 117 618 q 307 514 222 514 q 329 492 328 514 z "},"K":{"ha":1246,"x_min":28,"x_max":1433,"o":"m 367 492 q 338 469 367 469 q 105 529 182 469 q 28 704 28 589 q 78 851 28 788 q 207 956 129 914 q 378 1020 285 999 q 558 1042 472 1042 q 675 1037 610 1042 q 799 1019 740 1032 q 897 987 857 1007 q 936 938 936 967 q 907 829 936 922 l 801 489 q 1119 815 1086 785 q 1385 1006 1318 1006 q 1433 964 1433 1006 q 1414 939 1433 950 q 1382 928 1394 928 q 1178 801 1317 928 q 1098 724 1147 774 q 978 599 1049 674 l 1058 144 q 1092 88 1069 88 q 1109 95 1099 88 q 1131 111 1119 103 q 1154 127 1142 119 q 1179 135 1167 135 q 1194 114 1194 135 q 1174 81 1194 103 q 1126 39 1154 60 q 1070 2 1099 18 q 1025 -14 1042 -14 q 996 0 1006 -14 q 988 26 993 7 q 981 64 983 44 l 900 515 q 845 463 879 499 q 763 372 811 428 q 321 -90 597 -90 q 269 -69 269 -90 q 310 -49 269 -49 q 453 -10 393 -49 q 558 96 513 28 q 638 257 603 164 q 708 458 674 350 l 825 829 q 833 864 831 847 q 836 900 836 881 q 809 947 836 928 q 741 976 782 965 q 651 992 700 988 q 558 996 603 996 q 406 978 483 996 q 263 925 328 961 q 158 834 199 889 q 117 706 117 779 q 344 514 117 514 q 367 492 367 514 z "},"L":{"ha":1157,"x_min":-119,"x_max":1174,"o":"m 208 106 q 274 247 239 153 q 349 483 308 340 q 504 867 424 758 q 863 1042 629 1042 q 978 1022 922 1042 q 1078 966 1035 1003 q 1148 876 1122 929 q 1174 756 1174 822 q 1142 581 1174 658 q 1053 448 1110 503 q 917 363 996 393 q 744 333 838 333 q 635 375 635 333 q 686 413 635 413 q 731 403 706 413 q 810 393 757 393 q 931 422 878 393 q 1019 499 983 450 q 1074 615 1056 549 q 1092 757 1092 682 q 1021 933 1092 872 q 838 993 950 993 q 561 826 653 993 q 439 458 531 769 q 253 85 365 204 q 411 8 344 39 q 531 -42 478 -24 q 626 -69 583 -61 q 713 -76 669 -76 q 803 -67 764 -76 q 875 -35 843 -57 q 933 22 907 -12 q 983 104 960 56 q 1042 167 1014 167 q 1067 131 1067 167 q 1018 35 1067 96 q 873 -86 960 -37 q 683 -135 786 -135 q 577 -123 635 -135 q 457 -89 519 -111 q 330 -35 394 -67 q 203 35 265 -4 q 125 1 176 15 q 19 -14 67 -14 q -119 74 -119 -14 q -108 110 -119 94 q -77 137 -96 126 q -34 153 -58 147 q 15 158 -10 158 q 61 156 40 158 q 103 148 82 154 q 149 132 124 142 q 208 106 174 122 m 163 63 q 125 87 142 76 q 92 103 108 97 q 58 111 76 108 q 18 114 40 114 q -61 76 -61 114 q 19 35 -61 35 q 163 63 121 35 z "},"M":{"ha":1418,"x_min":28,"x_max":1518,"o":"m 364 492 q 335 469 364 469 q 28 704 28 469 q 70 847 28 785 q 179 953 113 910 q 328 1019 246 996 q 492 1042 411 1042 q 820 948 681 1042 q 1031 674 960 854 q 1126 778 1067 721 q 1253 884 1186 835 q 1387 967 1321 933 q 1501 1000 1453 1000 q 1518 981 1518 1000 q 1494 894 1518 963 l 1247 194 q 1225 121 1225 133 q 1240 100 1225 100 q 1259 106 1249 100 q 1280 119 1269 111 q 1299 132 1290 126 q 1314 138 1308 138 q 1325 122 1325 138 q 1302 92 1325 113 q 1248 51 1279 72 q 1185 15 1217 31 q 1136 0 1153 0 q 1113 26 1113 0 q 1116 53 1113 38 q 1128 93 1119 69 l 1388 829 q 1408 904 1408 888 q 1397 917 1408 917 q 1353 901 1382 917 q 1290 861 1325 886 q 1217 805 1256 836 q 1146 742 1179 774 q 1085 681 1113 710 q 1046 632 1058 651 q 1058 472 1058 583 q 1048 391 1058 439 q 1019 299 1038 343 q 974 225 1000 256 q 914 194 947 194 q 844 306 844 194 q 855 381 844 339 q 883 465 865 422 q 924 546 901 507 q 971 613 946 585 q 944 672 963 639 q 903 738 925 706 q 860 794 881 769 q 826 828 839 819 l 799 811 q 756 661 785 747 q 684 484 726 575 q 588 304 642 393 q 469 145 533 215 q 333 32 406 75 q 182 -11 261 -11 q 82 33 82 -11 q 138 74 82 74 q 178 65 160 74 q 229 56 197 56 q 349 91 293 56 q 454 185 406 126 q 544 322 503 244 q 619 482 585 399 q 681 649 654 565 q 729 807 708 733 q 797 856 739 824 q 743 910 779 885 q 663 955 707 936 q 574 985 619 974 q 492 996 529 996 q 353 977 421 996 q 233 922 285 958 q 149 831 181 886 q 117 706 117 776 q 342 514 117 514 q 364 492 364 514 m 985 563 q 953 522 968 551 q 926 456 938 492 q 907 385 914 421 q 900 325 900 349 q 938 261 900 261 q 962 281 951 261 q 980 328 972 300 q 991 389 988 357 q 994 444 994 421 q 992 514 994 485 q 985 563 990 543 z "},"N":{"ha":1239,"x_min":28,"x_max":1307,"o":"m 1088 615 q 1107 650 1092 626 q 1142 701 1122 674 q 1185 759 1163 729 q 1228 813 1208 789 q 1263 853 1249 838 q 1283 868 1278 868 q 1301 860 1294 868 q 1307 843 1307 853 q 1292 820 1307 836 q 1251 773 1278 804 q 1187 692 1224 742 q 1104 569 1150 642 q 1138 310 1138 450 q 1129 228 1138 275 q 1105 140 1121 182 q 1066 67 1089 97 q 1013 38 1043 38 q 956 71 974 38 q 939 149 939 104 q 947 249 939 196 q 967 352 954 301 q 997 447 979 403 q 1033 521 1014 492 q 1023 557 1033 532 q 996 613 1013 582 q 958 678 979 644 q 913 742 936 713 q 867 795 890 772 q 826 828 844 818 l 799 811 q 746 636 779 729 q 667 451 713 543 q 567 276 622 360 q 449 129 511 193 q 319 27 388 65 q 182 -11 251 -11 q 82 33 82 -11 q 138 74 82 74 q 179 65 161 74 q 217 56 197 56 q 336 88 281 56 q 440 175 392 119 q 529 305 488 231 q 607 463 571 379 q 673 634 643 546 q 729 807 703 722 q 799 857 738 821 q 739 911 776 886 q 658 955 701 936 q 571 985 615 974 q 492 996 526 996 q 349 977 417 996 q 229 922 281 958 q 147 831 178 885 q 117 706 117 776 q 342 514 117 514 q 364 492 364 514 q 335 469 364 469 q 28 704 28 469 q 70 847 28 785 q 179 953 113 910 q 328 1019 246 996 q 492 1042 411 1042 q 684 1008 593 1042 q 851 917 775 975 q 988 781 928 858 q 1088 615 1049 703 m 1057 474 q 1027 412 1040 449 q 1004 333 1014 375 q 989 246 994 290 q 983 161 983 201 q 1026 100 983 100 q 1053 119 1042 100 q 1073 167 1065 139 q 1085 226 1081 196 q 1089 279 1089 257 q 1057 474 1089 379 z "},"O":{"ha":906,"x_min":28,"x_max":903,"o":"m 261 800 q 303 888 271 844 q 382 966 336 932 q 481 1021 428 1000 q 589 1042 535 1042 q 718 1008 660 1042 q 817 921 776 975 q 881 798 858 867 q 903 658 903 729 q 866 419 903 540 q 760 198 829 297 q 592 35 692 99 q 367 -28 493 -28 q 220 3 283 -28 q 114 87 157 33 q 49 212 71 140 q 28 367 28 283 q 40 500 28 433 q 78 625 51 567 q 150 729 106 683 q 261 800 194 775 m 250 751 q 184 702 211 733 q 140 631 157 671 q 117 541 124 590 q 110 439 110 492 q 126 291 110 364 q 177 160 143 218 q 264 67 211 103 q 390 32 317 32 q 574 88 494 32 q 708 230 654 143 q 790 421 763 317 q 818 622 818 525 q 802 757 818 692 q 753 874 786 822 q 672 956 721 925 q 556 986 622 986 q 456 964 499 986 q 384 903 413 942 q 341 815 356 865 q 326 707 326 764 q 289 425 326 508 q 265 385 281 407 q 228 342 249 363 q 187 308 208 322 q 149 294 165 294 q 135 310 135 294 q 147 324 135 314 q 173 349 158 335 q 202 385 188 364 q 221 431 217 406 q 229 494 225 451 q 233 606 233 538 q 235 649 233 626 q 238 692 236 672 q 244 728 240 713 q 250 751 247 743 z "},"P":{"ha":1001,"x_min":28,"x_max":1086,"o":"m 364 492 q 335 469 364 469 q 28 704 28 469 q 78 851 28 788 q 206 956 128 914 q 376 1020 283 999 q 556 1042 469 1042 q 743 1022 649 1042 q 914 958 838 1001 q 1038 850 990 915 q 1086 694 1086 785 q 1052 558 1086 624 q 963 442 1018 493 q 835 362 907 392 q 689 332 764 332 q 633 333 657 332 q 590 338 608 335 l 528 167 q 514 122 518 140 q 508 93 510 104 q 522 72 508 72 q 540 78 529 72 q 561 91 550 83 q 582 104 572 99 q 596 110 592 110 q 607 94 607 110 q 583 63 607 83 q 528 22 560 42 q 465 -13 496 1 q 418 -28 433 -28 q 394 -1 396 -28 q 410 65 394 19 l 646 732 q 661 780 657 761 q 667 807 665 799 q 656 819 667 819 q 645 816 653 819 q 628 808 638 813 q 612 801 619 804 q 600 797 604 797 q 589 811 589 797 q 611 839 589 821 q 663 874 633 857 q 720 904 692 892 q 763 917 749 917 q 779 897 779 917 q 756 811 779 876 l 643 489 q 633 453 636 469 q 629 428 629 436 q 694 389 629 389 q 817 410 761 389 q 915 472 874 432 q 979 568 956 511 q 1003 694 1003 625 q 964 829 1003 772 q 861 923 925 886 q 717 978 797 960 q 556 996 638 996 q 403 978 481 996 q 262 925 325 961 q 158 834 199 889 q 117 706 117 779 q 342 514 117 514 q 364 492 364 514 z "},"Q":{"ha":906,"x_min":28,"x_max":903,"o":"m 261 800 q 306 885 276 842 q 378 963 336 928 q 473 1019 419 997 q 589 1042 526 1042 q 716 1010 658 1042 q 815 925 774 978 q 880 803 857 872 q 903 658 903 733 q 878 471 903 569 q 809 283 854 372 q 698 122 764 193 q 549 14 632 50 q 561 -66 549 -35 q 594 -117 574 -97 q 642 -149 615 -137 q 694 -165 668 -160 q 700 -178 700 -168 q 694 -192 700 -189 q 674 -196 688 -196 q 611 -185 643 -196 q 552 -151 579 -174 q 504 -94 525 -128 q 474 -14 483 -60 q 367 -28 428 -28 q 220 3 283 -28 q 114 87 157 33 q 49 212 71 140 q 28 367 28 283 q 40 500 28 433 q 78 625 51 567 q 151 729 106 683 q 261 800 196 775 m 471 135 q 307 47 393 106 q 347 36 326 40 q 390 32 367 32 q 465 40 429 32 q 471 135 465 108 m 546 71 q 658 162 608 99 q 744 304 708 225 q 799 467 779 383 q 818 622 818 551 q 801 763 818 697 q 752 878 785 829 q 670 957 719 928 q 556 986 621 986 q 453 964 497 986 q 382 903 410 942 q 340 815 354 865 q 326 707 326 764 q 289 425 326 508 q 265 385 281 407 q 228 342 249 363 q 188 308 208 322 q 149 294 167 294 q 135 310 135 294 q 142 321 135 314 q 162 338 150 328 q 186 361 174 347 q 208 394 199 375 q 220 433 215 407 q 228 491 225 460 q 232 553 231 522 q 233 606 233 583 q 234 641 233 619 q 237 684 235 663 q 242 724 239 706 q 250 751 246 743 q 185 702 211 733 q 142 631 158 671 q 117 541 125 590 q 110 439 110 492 q 119 326 110 382 q 147 222 128 271 q 197 131 167 172 q 269 64 228 90 l 432 174 q 499 215 472 200 q 538 229 526 229 q 557 206 557 229 q 551 151 557 183 q 546 71 546 119 z "},"R":{"ha":1081,"x_min":28,"x_max":1086,"o":"m 629 458 q 726 493 660 493 q 851 422 826 493 q 966 536 929 467 q 1003 694 1003 606 q 963 829 1003 772 q 860 923 924 886 q 717 978 797 960 q 556 996 636 996 q 401 978 479 996 q 260 924 324 960 q 157 833 197 888 q 117 706 117 779 q 342 514 117 514 q 364 492 364 514 q 335 469 364 469 q 28 704 28 469 q 78 851 28 788 q 206 956 128 914 q 376 1020 283 999 q 556 1042 469 1042 q 744 1022 650 1042 q 915 959 839 1001 q 1039 851 992 917 q 1086 694 1086 785 q 1068 597 1086 647 q 1020 503 1050 547 q 949 424 990 458 q 863 375 908 390 l 886 192 q 901 116 893 143 q 918 89 908 89 q 942 97 928 89 q 972 114 957 104 q 1000 131 988 124 q 1019 139 1013 139 q 1031 124 1031 139 q 1006 90 1031 111 q 949 49 981 69 q 885 15 917 29 q 842 0 854 0 q 814 46 826 0 q 797 165 801 92 l 788 349 q 762 342 781 344 q 725 339 743 339 q 685 344 706 339 q 649 358 665 349 q 624 381 633 367 q 614 414 614 394 l 600 372 q 527 190 567 274 q 435 43 488 106 q 315 -55 383 -19 q 158 -90 247 -90 q 107 -69 107 -90 q 147 -49 107 -49 q 290 -9 231 -49 q 393 99 349 31 q 474 260 438 168 q 546 458 510 353 l 650 763 q 660 807 660 792 q 649 819 660 819 q 637 816 644 819 q 621 808 629 813 q 605 801 613 804 q 594 797 597 797 q 582 811 582 797 q 604 838 582 821 q 656 873 626 856 q 715 903 686 890 q 756 917 743 917 q 772 897 772 917 q 767 868 772 889 q 749 811 761 847 l 629 458 l 629 458 m 783 396 q 767 440 783 424 q 722 456 750 456 q 661 424 661 456 q 731 385 661 385 q 783 396 760 385 z "},"S":{"ha":892,"x_min":0,"x_max":869,"o":"m 369 7 q 527 33 458 7 q 642 109 596 60 q 713 226 689 158 q 736 378 736 294 q 722 480 736 431 q 671 576 707 529 q 613 649 643 613 q 551 721 583 685 q 488 864 488 800 q 533 991 488 940 q 657 1042 579 1042 q 754 1018 711 1042 q 796 996 794 996 q 802 999 797 996 q 810 1014 807 1003 q 833 1032 815 1032 q 865 989 857 1032 q 869 888 869 965 q 847 785 869 785 q 819 835 819 785 q 806 896 819 867 q 769 947 792 925 q 717 983 747 969 q 657 996 688 996 q 592 969 619 996 q 565 901 565 942 q 632 765 565 844 q 715 666 685 703 q 753 617 746 629 q 819 394 819 517 q 787 215 819 294 q 695 78 754 135 q 553 -8 636 22 q 368 -37 469 -37 q 222 -19 289 -37 q 105 38 154 0 q 28 134 56 76 q 0 269 0 192 q 57 451 0 374 q 208 574 114 529 q 308 606 275 606 q 332 586 331 606 q 294 561 332 571 q 140 462 199 533 q 82 289 82 390 q 154 81 82 156 q 369 7 226 7 z "},"T":{"ha":893,"x_min":28,"x_max":1215,"o":"m 1201 1042 q 1215 1024 1215 1042 q 1202 1002 1215 1018 q 1172 969 1189 986 q 1137 938 1154 951 q 1111 924 1119 924 q 1065 928 1103 924 q 972 938 1028 932 q 847 950 915 943 q 709 963 778 957 q 576 972 640 968 q 467 976 513 976 q 342 958 404 976 q 229 906 279 940 q 148 820 179 871 q 117 706 117 769 q 344 514 117 514 q 367 492 367 514 q 338 469 367 469 q 28 704 28 469 q 74 849 28 786 q 194 955 119 913 q 365 1019 269 997 q 558 1042 460 1042 q 711 1036 631 1042 q 865 1024 792 1031 q 997 1013 938 1018 q 1089 1007 1057 1007 q 1124 1013 1108 1007 q 1152 1024 1139 1018 q 1177 1036 1165 1031 q 1201 1042 1189 1042 m 817 924 q 833 904 833 924 q 828 874 833 894 q 810 818 822 854 l 592 194 q 569 121 569 129 q 585 100 569 100 q 603 106 593 100 q 624 119 614 111 q 644 132 635 126 q 658 138 653 138 q 669 122 669 138 q 647 92 669 113 q 592 51 624 72 q 530 15 561 31 q 481 0 499 0 q 457 26 458 0 q 461 56 457 38 q 472 93 465 74 l 700 739 q 721 814 721 799 q 710 826 721 826 q 697 823 706 826 q 681 815 689 819 q 665 808 672 811 q 656 804 658 804 q 643 818 643 804 q 665 844 643 826 q 715 880 686 863 q 772 910 743 897 q 817 924 801 924 z "},"U":{"ha":1239,"x_min":28,"x_max":1340,"o":"m 367 492 q 338 469 367 469 q 105 526 182 469 q 28 704 28 582 q 78 851 28 788 q 207 956 129 914 q 378 1020 285 999 q 558 1042 472 1042 q 686 1035 619 1042 q 808 1017 753 1029 q 900 985 864 1004 q 936 938 936 965 q 907 829 936 914 l 725 300 q 695 205 706 242 q 685 144 685 168 q 771 58 685 58 q 967 150 858 58 l 1207 829 q 1228 904 1228 888 q 1217 917 1228 917 q 1189 906 1206 917 q 1163 894 1172 894 q 1150 908 1150 894 q 1172 935 1150 918 q 1224 970 1194 953 q 1282 1001 1253 988 q 1324 1014 1311 1014 q 1340 994 1340 1014 q 1317 908 1340 979 l 1067 194 q 1044 121 1044 133 q 1060 100 1044 100 q 1078 106 1068 100 q 1099 119 1089 111 q 1119 132 1110 126 q 1133 138 1128 138 q 1144 122 1144 138 q 1120 90 1144 110 q 1064 49 1096 69 q 1001 15 1032 29 q 956 0 969 0 q 932 26 932 0 q 934 43 932 29 q 943 81 936 57 q 719 0 833 0 q 664 13 686 0 q 628 45 642 25 q 608 88 614 65 q 601 132 601 111 q 617 219 601 181 q 646 299 632 258 l 825 829 q 833 863 831 846 q 836 900 836 881 q 810 947 836 928 q 742 976 783 965 q 652 992 701 988 q 558 996 603 996 q 406 978 483 996 q 263 925 328 961 q 158 834 199 889 q 117 706 117 779 q 344 514 117 514 q 367 492 367 514 z "},"V":{"ha":1293,"x_min":28,"x_max":1328,"o":"m 803 -24 q 624 169 624 -24 q 663 351 624 239 l 825 829 q 833 863 831 846 q 836 900 836 881 q 810 947 836 928 q 742 976 783 965 q 652 992 701 988 q 558 996 603 996 q 406 979 485 996 q 263 927 328 963 q 158 837 199 892 q 117 706 117 782 q 344 514 117 514 q 367 492 367 514 q 338 469 367 469 q 28 704 28 469 q 78 851 28 788 q 205 956 128 914 q 376 1020 282 999 q 558 1042 469 1042 q 675 1037 610 1042 q 799 1019 740 1032 q 897 987 857 1007 q 936 938 936 967 q 907 829 936 914 l 742 353 q 716 260 725 303 q 707 182 707 218 q 711 116 707 144 q 728 69 715 88 q 764 42 740 51 q 825 33 788 33 q 913 65 865 33 q 1009 151 961 97 q 1103 276 1057 204 q 1183 425 1149 347 q 1239 583 1218 503 q 1260 735 1260 663 q 1251 826 1260 789 q 1233 892 1243 864 q 1214 943 1222 921 q 1206 988 1206 965 q 1244 1038 1206 1038 q 1328 885 1328 1038 q 1298 594 1328 724 q 1220 363 1268 464 q 1113 189 1172 263 q 996 68 1054 115 q 886 -1 938 21 q 803 -24 835 -24 z "},"W":{"ha":1597,"x_min":28,"x_max":1619,"o":"m 951 38 q 803 -24 871 -24 q 624 169 624 -24 q 663 351 624 239 l 825 829 q 833 863 831 846 q 836 900 836 881 q 809 947 836 928 q 740 976 782 965 q 650 992 699 988 q 558 996 601 996 q 403 978 482 996 q 261 923 325 960 q 157 832 197 886 q 117 706 117 778 q 344 514 117 514 q 367 492 367 514 q 338 469 367 469 q 28 704 28 469 q 51 807 28 760 q 115 892 75 854 q 208 957 156 929 q 320 1003 261 985 q 440 1032 379 1022 q 558 1042 501 1042 q 680 1036 614 1042 q 803 1018 746 1031 q 898 986 860 1006 q 936 938 936 967 q 907 829 936 914 l 742 353 q 716 260 725 303 q 707 182 707 218 q 711 116 707 144 q 728 69 715 88 q 764 42 740 51 q 825 33 788 33 q 929 81 869 33 q 919 126 922 101 q 915 169 915 150 q 954 351 915 239 l 1060 661 q 1081 736 1081 721 q 1069 749 1081 749 q 1042 738 1057 749 q 1015 726 1026 726 q 1003 740 1003 726 q 1026 768 1003 750 q 1078 803 1049 786 q 1135 833 1107 821 q 1176 846 1164 846 q 1193 826 1193 846 q 1188 797 1193 818 q 1169 740 1182 776 l 1036 344 q 1001 175 1001 244 q 1026 70 1001 107 q 1117 33 1050 33 q 1199 63 1153 33 q 1292 143 1244 92 q 1387 263 1340 194 q 1470 408 1433 331 q 1529 569 1507 486 q 1551 735 1551 653 q 1543 826 1551 788 q 1524 892 1535 864 q 1506 943 1514 921 q 1497 988 1497 965 q 1536 1038 1497 1038 q 1619 885 1619 1038 q 1592 613 1619 738 q 1521 387 1565 488 q 1419 209 1476 286 q 1304 81 1363 132 q 1191 3 1246 29 q 1094 -24 1136 -24 q 951 38 1001 -24 z "},"X":{"ha":1150,"x_min":28,"x_max":1286,"o":"m 847 550 q 926 570 892 553 q 988 607 960 588 q 1000 588 1000 607 q 986 560 1000 575 q 951 530 972 544 q 906 503 931 515 q 860 486 881 492 l 938 117 q 949 92 940 100 q 969 83 958 83 q 990 92 978 83 q 1015 112 1003 101 q 1036 131 1026 122 q 1050 140 1046 140 q 1074 118 1074 140 q 1052 86 1074 110 q 1002 37 1031 63 q 945 -8 974 11 q 903 -28 917 -28 q 864 25 875 -28 l 786 461 l 682 278 q 508 39 588 110 q 339 -28 431 -28 q 288 15 289 -28 q 338 58 288 58 q 356 56 343 58 q 382 53 368 53 q 438 62 410 53 q 485 86 465 71 q 561 169 519 111 q 654 317 603 226 l 749 485 q 665 457 707 485 l 624 429 q 608 444 608 429 q 623 470 608 453 q 660 506 638 488 q 712 538 683 524 q 768 551 740 551 l 735 699 q 696 822 719 767 q 636 915 672 876 q 549 975 600 954 q 425 996 497 996 q 308 975 364 996 q 210 915 253 954 q 142 823 168 876 q 117 706 117 769 q 344 514 117 514 q 367 492 367 514 q 338 469 367 469 q 28 704 28 469 q 61 843 28 781 q 150 949 94 906 q 277 1017 206 993 q 425 1042 349 1042 q 797 746 714 1042 l 831 628 l 893 740 q 962 853 926 799 q 1039 950 997 908 q 1129 1017 1081 992 q 1235 1042 1178 1042 q 1286 999 1286 1042 q 1236 956 1286 956 q 1210 957 1221 956 q 1192 958 1200 958 q 1117 941 1151 958 q 1050 890 1082 924 q 986 809 1018 857 q 921 701 954 761 l 844 565 l 847 550 z "},"Y":{"ha":1232,"x_min":28,"x_max":1340,"o":"m 975 99 q 719 0 840 0 q 634 38 667 0 q 601 132 601 75 q 606 169 601 147 q 615 213 610 190 q 628 258 621 236 q 642 299 635 281 l 825 829 q 833 863 831 846 q 836 900 836 881 q 810 947 836 928 q 742 976 783 965 q 652 992 701 988 q 558 996 603 996 q 397 978 476 996 q 256 923 318 960 q 155 832 193 886 q 117 706 117 778 q 344 514 117 514 q 367 492 367 514 q 338 469 367 469 q 28 704 28 469 q 76 851 28 788 q 201 956 125 914 q 372 1020 278 999 q 558 1042 467 1042 q 675 1037 610 1042 q 799 1019 740 1032 q 897 987 857 1007 q 936 938 936 967 q 907 829 936 914 l 725 300 q 685 144 685 182 q 771 58 685 58 q 967 150 858 58 q 1060 410 1000 242 q 1207 829 1119 579 q 1228 904 1228 888 q 1217 917 1228 917 q 1205 913 1213 917 q 1189 906 1197 910 q 1173 898 1181 901 q 1163 894 1165 894 q 1150 908 1150 894 q 1172 936 1150 918 q 1224 972 1194 954 q 1283 1001 1254 989 q 1324 1014 1311 1014 q 1340 994 1340 1014 q 1317 908 1340 979 l 1054 150 q 1065 74 1061 111 q 1069 0 1069 38 q 1040 -143 1069 -81 q 959 -248 1011 -206 q 835 -312 907 -290 q 675 -335 763 -335 q 521 -315 586 -335 q 413 -268 456 -296 q 348 -210 369 -240 q 326 -158 326 -179 q 372 -115 326 -115 q 425 -171 400 -115 q 674 -293 479 -293 q 985 -10 985 -293 q 975 99 985 54 z "},"Z":{"ha":997,"x_min":28,"x_max":986,"o":"m 686 549 q 730 552 710 549 q 769 563 750 556 q 807 581 788 569 q 850 607 826 592 q 863 588 863 607 q 841 551 863 571 q 790 515 819 532 q 728 488 760 499 q 676 476 697 476 q 651 477 665 476 q 625 481 636 478 l 274 94 q 371 82 325 94 q 459 55 417 69 q 542 28 501 40 q 626 15 583 15 q 738 33 688 15 q 824 80 789 50 q 879 149 860 110 q 899 231 899 188 q 893 256 899 240 q 888 288 888 272 q 932 350 888 349 q 969 282 969 350 q 944 177 969 235 q 867 69 918 119 q 740 -16 815 18 q 564 -50 664 -50 q 451 -40 499 -50 q 365 -19 404 -31 q 290 1 326 -8 q 213 11 254 11 q 190 9 203 11 q 164 7 176 7 q 144 19 144 7 q 171 50 144 22 l 563 485 l 535 485 q 503 476 522 485 q 467 456 485 467 q 435 438 449 446 q 419 429 421 429 q 404 444 404 429 q 420 472 404 454 q 459 508 436 490 q 509 540 482 526 q 560 553 536 553 q 586 551 568 553 q 622 549 604 549 l 864 818 q 883 841 878 833 q 888 851 888 849 q 852 911 888 885 q 766 956 817 938 q 658 985 715 975 q 558 996 601 996 q 401 978 479 996 q 259 923 322 960 q 156 832 196 886 q 117 706 117 778 q 344 514 117 514 q 367 492 367 514 q 338 469 367 469 q 28 704 28 469 q 51 809 28 761 q 115 894 75 857 q 208 960 156 932 q 320 1006 261 988 q 440 1033 379 1024 q 558 1042 501 1042 q 639 1036 593 1042 q 732 1021 685 1031 q 825 997 779 1011 q 906 967 871 983 q 964 933 942 951 q 986 894 986 914 q 960 850 986 878 l 686 549 l 686 549 z "},"[":{"ha":400,"x_min":-58,"x_max":561,"o":"m -58 -181 q -44 -119 -58 -157 l 346 1014 q 376 1074 363 1064 q 401 1081 383 1078 q 439 1083 418 1083 l 511 1083 q 561 1054 558 1083 q 511 1029 561 1029 l 456 1029 q 411 961 436 1029 l 54 -67 q 36 -139 36 -117 q 60 -165 36 -165 l 110 -165 q 160 -193 160 -165 q 110 -219 160 -219 l 28 -219 q -35 -213 -11 -219 q -58 -181 -58 -207 z "},"\\":{"ha":439,"x_min":192,"x_max":415,"o":"m 222 1063 q 251 1044 243 1063 q 261 1015 260 1026 l 411 -17 q 415 -37 414 -28 q 415 -49 415 -46 q 406 -60 415 -57 q 388 -64 396 -64 q 359 -46 372 -64 q 343 -8 346 -28 l 197 989 q 193 1019 194 1008 q 192 1032 192 1029 q 201 1053 192 1044 q 222 1063 211 1063 z "},"]":{"ha":400,"x_min":-43,"x_max":576,"o":"m 358 1057 q 408 1083 358 1083 l 490 1083 q 553 1077 529 1083 q 576 1044 576 1071 q 563 983 576 1024 l 172 -150 q 156 -187 164 -174 q 138 -208 149 -201 q 114 -217 128 -215 q 79 -219 100 -219 l 7 -219 q -43 -190 -43 -219 q 7 -165 -43 -165 l 63 -165 q 107 -97 82 -165 l 464 931 q 482 1003 482 981 q 458 1029 482 1029 l 408 1029 q 358 1057 358 1029 z "},"^":{"ha":694,"x_min":67,"x_max":626,"o":"m 382 1042 q 424 953 401 993 q 477 876 447 913 q 544 805 507 839 q 626 738 581 771 l 626 674 q 563 700 601 681 q 485 745 525 719 q 407 799 444 771 q 347 856 369 828 q 236 757 303 807 q 67 674 169 707 l 67 738 q 217 874 156 801 q 311 1042 278 947 l 382 1042 z "},"_":{"ha":694,"x_min":0,"x_max":694,"o":"m 694 -276 l 694 -347 l 0 -347 l 0 -276 l 694 -276 z "},"`":{"ha":368,"x_min":83,"x_max":322,"o":"m 297 647 q 315 628 310 636 q 322 613 321 619 q 308 593 322 593 q 281 604 297 593 l 113 708 q 83 775 86 726 q 103 808 83 808 q 138 788 113 808 l 297 647 z "},"a":{"ha":590,"x_min":11,"x_max":539,"o":"m 361 57 q 165 -21 283 -21 q 11 106 11 -21 q 24 172 11 136 q 58 240 38 207 q 107 301 79 274 q 164 342 135 328 q 160 374 160 358 q 177 438 160 407 q 224 491 194 468 q 293 528 254 514 q 376 542 332 542 q 539 383 539 542 q 522 314 539 360 l 444 101 q 433 68 433 71 q 450 51 433 51 q 465 56 454 51 q 486 66 475 61 q 506 76 497 71 q 519 81 515 81 q 531 67 531 81 q 513 41 531 54 q 472 16 496 28 q 424 -3 449 4 q 388 -10 400 -10 q 356 21 356 -10 q 361 57 356 36 m 346 381 q 251 355 296 381 q 173 290 207 329 q 119 206 139 251 q 99 122 99 161 q 113 49 99 74 q 181 24 128 24 q 277 50 231 24 q 358 118 324 76 q 414 210 393 160 q 435 307 435 260 q 346 381 435 381 m 229 383 q 364 418 290 418 q 423 407 400 418 q 467 372 446 396 q 471 392 469 383 q 472 407 472 400 q 443 474 472 449 q 367 500 414 500 q 270 465 308 500 q 229 383 232 431 z "},"b":{"ha":543,"x_min":31,"x_max":517,"o":"m 203 438 q 407 542 300 542 q 517 406 517 542 q 485 268 517 343 q 403 129 454 193 q 285 22 351 65 q 149 -21 218 -21 q 65 8 100 -21 q 31 88 31 38 q 64 246 31 150 l 260 807 q 283 889 283 875 q 272 901 283 901 q 244 889 261 901 q 218 876 226 876 q 203 892 203 876 q 223 918 203 901 q 270 949 243 935 q 324 975 297 964 q 364 986 350 986 q 386 967 385 986 q 374 919 386 954 l 203 438 l 203 438 m 110 107 q 178 25 110 25 q 277 64 231 25 q 358 159 324 103 q 412 278 392 215 q 432 389 432 340 q 361 476 432 476 q 265 440 311 476 q 185 347 219 403 q 131 227 151 292 q 110 107 110 163 z "},"c":{"ha":479,"x_min":24,"x_max":494,"o":"m 349 542 q 398 538 372 542 q 445 528 424 535 q 481 511 467 522 q 494 486 494 500 q 463 440 494 440 q 415 467 433 440 q 333 496 396 496 q 239 467 281 496 q 168 393 197 438 q 123 293 139 349 q 107 186 107 238 q 113 124 107 154 q 133 72 119 94 q 169 37 147 50 q 224 24 192 24 q 263 31 242 24 q 303 49 283 38 q 340 75 324 60 q 365 107 357 90 q 403 146 386 146 q 414 128 414 146 q 398 80 414 106 q 353 32 382 54 q 286 -6 325 10 q 201 -21 247 -21 q 131 -6 164 -21 q 74 34 99 8 q 37 94 50 60 q 24 167 24 128 q 52 307 24 239 q 126 427 81 375 q 231 510 172 479 q 349 542 289 542 z "},"d":{"ha":603,"x_min":24,"x_max":746,"o":"m 374 92 q 160 -21 286 -21 q 60 19 96 -21 q 24 125 24 60 q 57 262 24 189 q 143 397 90 335 q 263 501 196 460 q 400 542 331 542 q 503 468 460 542 l 619 807 q 636 862 631 842 q 643 889 642 882 q 632 901 643 901 q 603 889 621 901 q 578 876 586 876 q 563 892 563 876 q 583 919 563 903 q 630 950 603 935 q 683 976 657 965 q 724 986 710 986 q 746 967 746 986 q 733 919 746 954 l 467 169 q 443 88 443 101 q 454 75 443 75 q 483 88 465 75 q 508 100 500 100 q 524 85 524 100 q 506 60 524 76 q 463 29 488 44 q 413 2 438 14 q 374 -10 388 -10 q 351 10 351 -10 q 363 57 351 25 l 374 92 m 385 496 q 281 460 331 496 q 195 371 232 424 q 137 258 158 318 q 115 147 115 197 q 188 35 115 35 q 288 72 240 35 q 373 164 336 110 q 432 279 410 218 q 454 389 454 340 q 438 462 454 428 q 385 496 421 496 z "},"e":{"ha":497,"x_min":24,"x_max":475,"o":"m 111 136 q 224 25 124 25 q 381 86 315 25 q 408 108 403 108 q 424 92 424 108 q 406 61 424 79 q 201 -21 326 -21 q 69 29 114 -21 q 24 167 24 79 q 50 302 24 235 q 122 423 76 369 q 225 509 167 476 q 349 542 283 542 q 475 428 475 542 q 444 320 475 372 q 361 227 413 268 q 244 161 310 186 q 111 136 179 136 m 107 174 q 218 191 165 174 q 311 240 271 208 q 376 314 351 271 q 400 410 400 357 q 333 496 400 496 q 239 467 281 496 q 168 394 197 439 q 123 294 139 349 q 107 186 107 239 l 107 174 l 107 174 z "},"f":{"ha":333,"x_min":-237,"x_max":593,"o":"m 221 603 q 369 883 274 796 q 529 951 444 951 q 593 924 592 951 q 558 894 593 894 q 532 901 544 894 q 508 907 519 907 q 396 851 438 907 q 281 547 344 776 l 269 507 l 275 507 q 321 513 303 507 q 351 526 339 519 q 369 540 363 533 q 378 546 375 546 q 393 531 393 546 q 379 502 393 518 q 344 472 365 486 q 297 449 322 458 q 250 440 272 440 l 133 17 q 85 -116 114 -51 q 17 -231 56 -181 q -70 -310 -22 -281 q -175 -340 -118 -340 q -237 -312 -236 -340 q -204 -283 -237 -283 q -177 -290 -187 -283 q -154 -296 -167 -296 q 53 -12 -26 -296 q 115 215 85 101 q 176 443 144 328 q 142 441 157 443 q 115 435 128 439 q 91 423 103 431 q 65 404 79 415 q 50 419 50 404 q 63 447 50 432 q 98 476 76 463 q 145 500 119 490 q 196 510 171 510 l 221 603 z "},"g":{"ha":504,"x_min":-64,"x_max":531,"o":"m 440 504 q 475 543 475 524 q 468 553 475 547 q 452 565 461 558 q 436 576 443 571 q 429 588 429 582 q 446 617 429 603 q 476 632 463 632 q 513 608 496 632 q 531 563 531 585 q 465 478 531 518 q 494 388 494 438 q 475 284 494 335 q 421 193 456 233 q 340 128 386 153 q 240 103 294 103 q 135 121 179 103 l 65 36 q 121 41 90 39 q 188 43 151 43 q 390 -100 390 43 q 365 -176 390 -142 q 302 -237 340 -211 q 217 -278 264 -264 q 125 -293 169 -293 q 55 -286 89 -293 q -6 -265 21 -279 q -48 -229 -32 -251 q -64 -175 -64 -207 q 11 -40 -64 -101 q -3 -42 4 -42 q -18 -43 -11 -43 q -44 -31 -44 -43 q -7 21 -44 -21 l 100 142 q 51 264 51 183 q 76 372 51 321 q 141 460 101 422 q 230 519 181 497 q 328 542 279 542 q 440 504 396 542 m 319 496 q 240 479 275 496 q 181 433 206 463 q 144 363 157 403 q 131 276 131 322 q 139 226 131 250 q 163 185 147 203 q 199 156 178 167 q 249 144 221 144 q 325 165 292 144 q 381 215 358 185 q 414 282 403 246 q 425 351 425 318 q 394 457 425 418 q 319 496 364 496 m 154 -26 q 94 -37 122 -26 q 47 -66 67 -47 q 15 -110 26 -85 q 3 -164 3 -135 q 14 -201 3 -185 q 43 -229 25 -218 q 84 -246 61 -240 q 131 -251 107 -251 q 205 -242 169 -251 q 267 -215 240 -232 q 308 -173 293 -197 q 324 -118 324 -149 q 154 -26 324 -26 z "},"h":{"ha":599,"x_min":-1,"x_max":574,"o":"m 385 986 q 407 967 407 986 q 394 919 407 954 l 221 431 q 432 542 317 542 q 574 388 574 542 q 537 228 574 304 q 446 96 500 153 q 328 6 392 39 q 213 -28 265 -28 q 157 3 157 -28 q 193 38 157 38 q 230 35 214 38 q 258 33 246 33 q 323 60 285 33 q 396 131 361 88 q 455 231 431 175 q 479 346 479 288 q 378 478 479 478 q 324 462 354 478 q 266 421 294 446 q 214 367 238 396 q 181 311 190 338 l 83 53 q 57 10 75 29 q 14 -10 39 -10 q -1 1 1 -10 q 14 53 -1 13 l 286 807 q 307 889 307 863 q 293 901 307 901 q 265 889 282 901 q 239 876 247 876 q 224 892 224 876 q 244 918 224 901 q 291 949 264 935 q 345 975 318 964 q 385 986 372 986 z "},"i":{"ha":260,"x_min":-12,"x_max":328,"o":"m 207 542 q 232 522 232 542 q 219 475 232 510 l 106 161 q 89 110 94 129 q 82 88 83 92 q 93 75 82 75 q 122 88 104 75 q 147 100 140 100 q 163 85 163 100 q 143 60 163 76 q 97 28 124 44 q 46 1 71 13 q 10 -10 21 -10 q -12 10 -10 -10 q -1 57 -12 24 l 108 363 q 131 444 131 424 q 115 457 131 457 q 86 444 104 457 q 61 432 68 432 q 46 447 46 432 q 65 473 46 457 q 111 504 85 489 q 165 531 138 519 q 207 542 192 542 m 297 813 q 318 790 308 813 q 328 742 328 767 q 317 697 328 721 q 288 651 306 672 q 249 617 269 631 q 207 604 228 604 q 190 615 190 604 q 204 632 190 628 q 246 693 246 642 q 242 713 246 706 q 233 725 238 721 q 225 732 229 729 q 221 740 221 735 q 256 781 221 747 q 297 813 290 813 z "},"j":{"ha":236,"x_min":-272,"x_max":340,"o":"m -249 -279 q 14 63 -110 -279 l 121 363 q 143 444 143 424 q 128 457 143 457 q 99 444 119 457 q 74 432 78 432 q 58 447 58 432 q 125 503 58 465 q 219 542 190 542 q 244 522 244 542 q 232 475 244 510 l 86 68 q -122 -265 0 -169 q -242 -317 -189 -317 q -272 -300 -272 -317 q -249 -279 -272 -279 m 246 725 q 233 740 233 733 q 268 781 233 747 q 310 813 304 813 q 329 793 319 813 q 340 751 338 779 q 294 646 340 693 q 222 604 257 608 q 203 615 206 603 q 217 632 203 628 q 258 693 258 642 q 246 725 258 714 z "},"k":{"ha":549,"x_min":-6,"x_max":579,"o":"m 119 167 l 79 53 q 53 10 72 31 q 10 -10 35 -10 q -6 1 -6 -10 q 10 53 -6 7 l 282 807 q 303 889 303 863 q 289 901 303 901 q 276 897 283 901 q 260 889 268 893 q 246 881 253 885 q 235 876 239 876 q 219 892 219 876 q 240 918 219 901 q 287 949 260 935 q 341 975 314 964 q 381 986 368 986 q 403 967 403 986 q 390 919 403 954 l 146 239 l 358 425 q 462 501 415 474 q 540 528 508 528 q 579 496 579 528 q 556 467 579 469 l 497 461 q 441 440 474 458 q 381 397 408 421 l 293 319 l 390 99 q 426 58 410 58 q 441 63 433 58 q 456 74 449 68 q 471 85 464 81 q 482 90 478 90 q 499 67 499 90 q 485 47 499 60 q 453 22 472 35 q 414 0 435 10 q 379 -10 393 -10 q 332 39 353 -10 l 236 268 l 119 167 z "},"l":{"ha":250,"x_min":-6,"x_max":397,"o":"m 372 986 q 397 967 397 986 q 385 919 397 954 l 113 161 q 89 88 89 94 q 100 75 89 75 q 113 79 106 75 q 129 88 121 83 q 144 96 138 92 q 154 100 150 100 q 169 85 169 100 q 151 61 169 76 q 107 30 132 46 q 56 2 82 14 q 17 -10 31 -10 q -6 10 -6 -10 q 6 57 -6 24 l 274 807 q 296 889 296 867 q 281 901 296 901 q 268 897 276 901 q 251 889 260 893 q 236 881 243 885 q 226 876 229 876 q 211 892 211 876 q 231 918 211 901 q 278 949 251 935 q 333 975 306 964 q 372 986 360 986 z "},"m":{"ha":771,"x_min":7,"x_max":753,"o":"m 253 542 q 275 522 275 542 q 251 446 275 492 q 293 476 264 460 q 358 508 322 493 q 432 532 394 522 q 499 542 469 542 q 533 522 533 542 q 525 485 533 507 q 701 542 615 542 q 753 483 753 542 q 732 400 753 451 l 618 108 q 604 68 604 74 q 621 51 604 51 q 636 56 626 51 q 656 66 646 61 q 676 76 667 71 q 690 81 686 81 q 701 67 701 81 q 686 44 701 57 q 649 19 671 31 q 603 -1 628 7 q 558 -10 578 -10 q 526 21 526 -10 q 549 101 526 40 l 653 392 q 667 447 667 429 q 632 476 667 476 q 572 465 604 476 q 500 425 539 453 l 351 53 q 324 10 342 29 q 279 -10 307 -10 q 265 1 265 -10 q 269 19 265 6 q 281 53 272 32 l 394 364 q 426 457 426 453 q 404 476 426 476 q 308 439 372 476 q 199 321 225 388 l 93 53 q 66 10 83 29 q 21 -10 49 -10 q 7 1 7 -10 q 10 19 7 6 q 22 53 14 32 l 136 364 q 163 444 163 433 q 151 457 163 457 q 138 453 146 457 q 123 444 131 449 q 108 436 115 440 q 97 432 101 432 q 82 447 82 432 q 101 473 82 457 q 148 504 121 489 q 204 531 175 519 q 253 542 233 542 z "},"n":{"ha":556,"x_min":21,"x_max":551,"o":"m 289 522 q 265 446 289 492 q 324 486 292 468 q 390 517 357 504 q 451 535 422 529 q 500 542 479 542 q 551 483 551 542 q 531 400 551 451 l 414 101 q 403 68 403 74 q 419 51 403 51 q 434 56 424 51 q 455 66 444 61 q 475 76 465 71 q 489 81 485 81 q 500 67 500 81 q 483 41 500 54 q 442 17 465 28 q 394 -2 418 6 q 357 -10 369 -10 q 325 21 325 -10 q 347 101 325 40 l 451 392 q 465 447 465 429 q 431 478 465 478 q 369 464 403 478 q 305 427 336 450 q 249 376 274 404 q 213 321 224 349 l 107 53 q 89 19 100 35 q 36 -10 69 -7 q 21 1 24 -10 q 36 53 21 10 l 150 364 q 176 444 176 433 q 165 457 176 457 q 137 444 154 457 q 111 432 119 432 q 96 447 96 432 q 115 473 96 457 q 160 504 133 489 q 217 531 188 519 q 267 542 246 542 q 289 522 289 542 z "},"o":{"ha":578,"x_min":38,"x_max":546,"o":"m 363 542 q 438 527 404 542 q 496 486 472 513 q 533 425 519 460 q 546 350 546 390 q 521 219 546 285 q 452 100 496 153 q 347 13 408 47 q 215 -21 286 -21 q 142 -6 175 -21 q 87 34 110 8 q 51 94 64 60 q 38 167 38 128 q 66 308 38 240 q 140 427 94 375 q 244 510 186 479 q 363 542 303 542 m 347 496 q 254 468 296 496 q 183 397 213 440 q 137 298 153 353 q 121 189 121 243 q 127 126 121 156 q 148 74 133 97 q 184 38 163 51 q 238 25 206 25 q 333 54 292 25 q 403 128 375 83 q 447 229 432 174 q 463 338 463 285 q 456 395 463 367 q 436 446 450 424 q 400 482 422 468 q 347 496 378 496 z "},"p":{"ha":556,"x_min":-194,"x_max":539,"o":"m 239 446 q 429 542 326 542 q 539 406 539 542 q 525 322 539 368 q 486 228 511 276 q 427 136 461 181 q 352 56 393 92 q 264 0 311 21 q 168 -21 217 -21 q 82 15 101 -21 l 40 -83 q -62 -262 -10 -203 q -167 -321 -115 -321 q -194 -308 -194 -321 q -165 -286 -194 -286 q -94 -231 -131 -286 q -22 -71 -58 -176 l 125 363 q 142 417 136 397 q 149 444 147 438 q 138 457 149 457 q 108 444 126 457 q 83 432 90 432 q 68 447 68 432 q 88 474 68 457 q 135 505 108 490 q 192 531 163 519 q 239 542 221 542 q 261 522 261 542 q 255 490 261 511 q 238 446 249 469 l 239 446 m 383 478 q 284 438 331 478 q 203 340 238 397 q 149 218 169 282 q 129 107 129 154 q 199 24 129 24 q 283 56 238 24 q 366 140 328 88 q 429 257 404 192 q 454 389 454 322 q 383 478 454 478 z "},"q":{"ha":561,"x_min":24,"x_max":588,"o":"m 503 468 q 576 536 546 536 q 588 524 588 536 q 565 471 588 517 q 510 331 543 425 l 333 -164 q 318 -210 322 -193 q 313 -233 314 -228 q 324 -246 313 -246 q 335 -242 328 -246 q 352 -233 343 -237 q 368 -225 361 -229 q 378 -221 375 -221 q 393 -236 393 -221 q 374 -260 393 -244 q 328 -292 354 -276 q 278 -319 303 -308 q 243 -331 253 -331 q 221 -311 224 -331 q 232 -264 221 -297 l 349 65 q 160 -21 263 -21 q 60 19 96 -21 q 24 125 24 60 q 60 273 24 199 q 153 407 97 347 q 274 504 208 467 q 400 542 340 542 q 503 468 460 542 m 385 496 q 277 458 326 496 q 192 367 228 421 q 135 253 156 313 q 115 147 115 193 q 188 35 115 35 q 264 55 228 35 q 330 106 300 75 q 383 177 360 138 q 422 256 406 217 q 446 331 438 296 q 454 389 454 365 q 438 462 454 428 q 385 496 421 496 z "},"r":{"ha":383,"x_min":10,"x_max":469,"o":"m 218 360 q 352 497 289 453 q 442 542 415 542 q 469 507 469 542 q 431 468 469 482 q 345 425 388 453 q 265 362 303 397 q 199 285 228 326 q 154 203 171 244 l 96 53 q 69 9 86 28 q 25 -10 53 -10 q 10 1 10 -10 q 13 19 10 6 q 25 53 17 32 l 139 364 q 165 444 165 433 q 154 457 165 457 q 125 444 142 457 q 100 432 108 432 q 85 447 85 432 q 106 476 85 460 q 156 506 128 492 q 213 531 185 521 q 256 542 242 542 q 278 522 278 542 q 244 425 278 504 l 217 360 l 218 360 z "},"s":{"ha":457,"x_min":-19,"x_max":418,"o":"m 69 219 q 48 177 57 201 q 39 124 39 153 q 76 46 39 75 q 165 17 113 17 q 321 157 321 17 q 243 292 321 210 q 165 438 165 372 q 197 512 165 482 q 276 542 229 542 q 341 532 318 542 q 367 522 364 522 q 380 532 372 522 q 396 542 388 542 q 413 518 407 542 q 418 454 418 494 q 403 381 418 381 q 385 413 385 381 q 378 449 385 431 q 358 481 371 467 q 328 503 346 494 q 292 511 311 511 q 233 458 233 511 q 274 382 233 426 l 349 300 q 378 249 367 281 q 389 189 389 217 q 326 37 389 90 q 158 -17 263 -17 q 90 -8 122 -17 q 34 18 58 0 q -5 62 10 36 q -19 124 -19 88 q -14 160 -19 142 q 1 195 -8 179 q 22 222 10 211 q 47 232 35 232 q 69 219 67 232 z "},"t":{"ha":304,"x_min":21,"x_max":382,"o":"m 178 461 q 142 453 160 461 q 101 428 125 444 q 89 442 89 428 q 100 465 89 451 q 128 489 111 478 q 163 508 144 500 q 194 517 181 517 l 244 654 q 267 736 267 713 q 251 749 267 749 q 238 744 246 749 q 222 736 231 740 q 207 728 214 732 q 197 724 200 724 q 182 739 182 724 q 201 763 182 747 q 247 795 221 779 q 301 822 274 811 q 343 833 328 833 q 368 814 368 833 q 356 767 368 801 q 311 642 333 704 q 265 517 289 581 l 281 517 q 346 533 321 517 q 369 550 367 550 q 382 536 382 550 q 370 511 382 525 q 340 486 358 497 q 299 467 321 475 q 260 460 278 460 l 246 460 l 139 161 q 115 88 115 94 q 126 75 115 75 q 140 79 132 75 q 155 88 147 83 q 169 96 163 92 q 181 100 176 100 q 196 85 196 100 q 176 60 196 76 q 131 28 157 44 q 80 1 106 13 q 43 -10 54 -10 q 21 10 24 -10 q 32 57 21 24 l 178 461 l 178 461 z "},"u":{"ha":542,"x_min":15,"x_max":550,"o":"m 238 542 q 260 522 260 542 q 253 489 260 508 q 238 446 247 469 l 114 129 q 101 74 101 96 q 131 43 101 43 q 194 56 160 43 q 259 91 228 69 q 315 141 290 113 q 351 200 339 169 l 461 479 q 469 499 465 490 q 476 513 472 507 q 487 522 479 517 q 503 531 494 526 q 520 539 511 536 q 535 542 529 542 q 550 531 550 542 q 533 479 550 525 l 401 129 q 387 89 392 103 q 382 71 382 75 q 396 54 382 54 q 416 59 406 54 q 436 69 426 64 q 453 78 446 74 q 465 83 461 83 q 479 69 479 83 q 461 43 479 57 q 418 18 443 29 q 367 0 393 7 q 326 -7 342 -7 q 300 21 300 -7 q 303 54 300 40 q 314 86 307 68 q 265 46 292 64 q 203 13 239 28 q 64 -21 129 -21 q 15 38 17 -21 q 33 121 15 72 l 144 417 q 153 444 153 439 q 142 457 153 457 q 128 453 138 457 q 110 444 119 449 q 94 436 101 440 q 83 432 86 432 q 68 447 68 432 q 88 476 68 460 q 136 506 108 492 q 192 531 164 521 q 238 542 221 542 z "},"v":{"ha":550,"x_min":38,"x_max":533,"o":"m 231 464 q 414 542 317 542 q 533 381 533 542 q 506 246 533 317 q 428 116 478 175 q 309 18 378 57 q 160 -21 240 -21 q 38 117 38 -21 q 64 238 38 168 l 117 379 q 138 444 138 435 q 126 457 138 457 q 97 444 111 457 q 71 432 82 432 q 56 447 56 432 q 75 473 56 457 q 122 504 94 489 q 177 531 149 519 q 225 542 206 542 q 247 522 247 542 q 231 464 247 499 m 128 208 q 110 115 110 164 q 188 22 110 22 q 295 58 247 22 q 378 145 343 93 q 431 258 413 197 q 450 369 450 319 q 445 413 450 392 q 430 452 440 435 q 404 480 419 469 q 367 490 389 490 q 310 475 339 490 q 253 435 281 460 q 206 382 226 411 q 174 325 185 353 l 128 208 l 128 208 z "},"w":{"ha":794,"x_min":28,"x_max":778,"o":"m 231 464 q 414 542 321 542 q 471 497 471 542 q 467 458 471 492 q 658 542 556 542 q 778 381 778 542 q 752 254 778 324 q 678 124 726 185 q 561 21 631 63 q 404 -21 492 -21 q 289 60 318 -21 q 129 -21 222 -21 q 53 16 79 -21 q 28 106 28 53 q 64 238 28 143 l 117 379 q 138 444 138 435 q 126 457 138 457 q 97 444 114 457 q 71 432 81 432 q 56 447 56 432 q 74 473 56 457 q 120 504 93 489 q 176 531 147 519 q 225 542 204 542 q 247 522 247 542 q 231 464 247 499 m 279 113 q 308 238 279 158 l 361 379 q 380 428 372 407 q 388 451 388 449 q 367 490 388 490 q 309 476 339 490 q 253 438 279 461 q 206 384 228 414 q 174 325 185 354 l 128 207 q 106 141 113 167 q 99 99 99 115 q 153 22 99 22 q 190 31 169 22 q 228 51 210 39 q 260 80 246 64 q 279 113 274 96 m 372 208 q 354 106 354 164 q 376 48 354 74 q 432 22 397 22 q 540 58 492 22 q 624 145 589 93 q 676 258 658 197 q 694 369 694 319 q 690 413 694 392 q 674 452 685 435 q 649 480 664 469 q 611 490 633 490 q 554 475 583 490 q 498 435 525 460 q 450 382 471 411 q 418 325 429 353 l 372 208 l 372 208 z "},"x":{"ha":510,"x_min":-54,"x_max":542,"o":"m 225 542 q 253 508 246 542 l 282 363 l 290 376 q 503 542 389 542 q 542 510 542 542 q 506 482 542 482 q 490 483 496 482 q 468 485 483 485 q 314 344 400 485 l 293 310 l 333 106 q 363 65 342 65 q 379 72 371 65 q 396 85 388 78 q 411 98 404 92 q 422 104 418 104 q 439 83 439 104 q 424 60 439 76 q 390 29 410 44 q 348 2 369 14 q 313 -10 326 -10 q 269 50 282 -10 l 236 215 l 199 156 q 149 81 172 113 q 102 30 126 50 q 49 0 78 10 q -15 -10 21 -10 q -54 22 -54 -10 q -18 50 -54 50 q -4 49 -14 50 q 19 47 6 47 q 174 183 92 47 l 225 268 l 192 431 q 168 475 183 475 q 127 464 149 475 q 99 453 106 453 q 83 472 83 453 q 101 491 83 479 q 144 514 119 503 q 191 533 168 525 q 225 542 214 542 z "},"y":{"ha":539,"x_min":-125,"x_max":563,"o":"m 328 88 q 277 46 308 65 q 211 12 246 26 q 141 -12 176 -3 q 76 -21 106 -21 q 28 38 28 -21 q 46 121 28 72 l 157 417 q 165 444 165 435 q 154 457 165 457 q 140 453 149 457 q 123 444 132 449 q 107 436 114 440 q 96 432 100 432 q 81 447 81 432 q 100 474 81 457 q 147 505 119 490 q 203 531 174 519 q 250 542 232 542 q 272 519 272 542 q 253 450 272 497 l 126 129 q 114 74 114 97 q 143 43 114 43 q 204 56 171 43 q 269 90 238 68 q 326 140 300 111 q 364 200 351 168 l 474 479 q 499 522 485 510 q 526 535 508 529 q 547 542 543 542 q 563 531 561 542 q 558 512 563 528 q 546 479 553 496 l 401 97 q 403 58 403 85 q 404 -8 404 32 q 383 -133 404 -76 q 322 -232 361 -190 q 227 -297 282 -274 q 106 -319 172 -319 q 6 -306 49 -319 q -67 -274 -37 -293 q -110 -233 -96 -254 q -125 -193 -125 -211 q -89 -154 -125 -154 q -58 -173 -72 -154 q -25 -213 -44 -192 q 26 -253 -6 -235 q 110 -272 57 -272 q 332 -8 332 -272 q 328 88 332 54 z "},"z":{"ha":486,"x_min":-10,"x_max":485,"o":"m 203 268 q 163 262 179 268 q 135 249 146 256 q 117 235 124 242 q 108 229 111 229 q 100 244 100 229 q 113 274 100 258 q 147 304 126 290 q 190 326 167 318 q 236 335 214 335 l 265 335 l 381 457 q 349 460 372 457 q 301 466 326 463 q 254 472 276 469 q 224 475 232 475 q 177 470 199 475 q 136 456 156 465 q 95 424 108 442 q 75 406 82 406 q 58 415 58 406 q 74 451 58 429 q 117 493 90 474 q 178 527 144 513 q 247 542 211 542 q 350 531 308 542 q 424 521 392 521 q 447 523 435 521 q 463 525 458 525 q 485 513 485 525 q 468 489 485 507 l 319 332 q 364 338 346 332 q 394 351 382 344 q 412 365 406 358 q 421 371 418 371 q 432 356 432 371 q 419 333 432 347 q 385 303 406 318 q 340 276 364 288 q 293 265 315 265 l 257 265 l 89 88 q 118 81 97 88 q 166 65 139 74 q 224 49 193 56 q 282 42 254 42 q 324 51 301 42 q 367 73 346 60 q 406 101 388 86 q 435 131 424 117 q 447 117 447 131 q 431 78 447 101 q 385 33 414 54 q 322 -5 357 11 q 249 -21 286 -21 q 189 -15 222 -21 q 123 -1 156 -10 q 62 16 90 7 q 17 31 33 25 q -10 42 -10 31 q 5 63 -10 51 q 31 85 19 74 l 203 268 l 203 268 z "},"{":{"ha":617,"x_min":133,"x_max":700,"o":"m 693 1017 l 639 996 q 563 940 594 978 q 517 861 531 901 q 497 782 504 826 q 481 694 489 738 q 466 610 474 650 q 446 546 458 571 q 290 407 404 458 l 204 368 l 253 342 q 363 182 363 282 q 349 97 363 140 q 319 9 336 53 q 290 -77 303 -35 q 276 -157 276 -119 q 302 -237 276 -203 q 389 -293 328 -271 l 381 -328 l 331 -319 q 260 -297 294 -314 q 200 -257 226 -281 q 158 -203 174 -233 q 142 -137 142 -172 q 158 -43 142 -89 q 195 47 175 3 q 232 135 215 92 q 249 219 249 178 q 218 299 249 271 q 133 347 188 326 l 140 382 l 213 419 q 291 477 261 444 q 331 550 321 510 q 338 604 335 567 q 345 685 342 642 q 353 768 349 728 q 365 831 358 808 q 482 978 393 925 q 700 1051 571 1032 l 693 1017 z "},"|":{"ha":694,"x_min":311,"x_max":382,"o":"m 382 -347 l 311 -347 l 311 1042 l 382 1042 l 382 -347 z "},"}":{"ha":617,"x_min":-700,"x_max":-133,"o":"m -693 -293 l -639 -272 q -599 -249 -618 -264 q -563 -217 -579 -235 q -535 -178 -547 -199 q -517 -137 -524 -157 q -495 -54 -503 -99 q -481 33 -487 -10 q -466 113 -474 75 q -446 178 -458 150 q -290 317 -404 265 l -204 356 l -253 382 q -362 542 -362 442 q -349 631 -362 588 q -319 715 -336 674 q -290 798 -303 757 q -276 881 -276 839 q -302 960 -276 926 q -389 1017 -328 994 l -381 1051 l -331 1043 q -264 1022 -297 1038 q -203 983 -231 1007 q -159 928 -176 958 q -142 861 -142 897 q -158 767 -142 813 q -195 676 -175 721 q -232 589 -215 632 q -249 504 -249 546 q -218 425 -249 453 q -133 376 -187 397 l -140 342 l -212 304 q -331 174 -308 254 q -338 119 -335 157 q -345 39 -342 82 q -353 -44 -349 -4 q -365 -107 -358 -85 q -482 -254 -396 -199 q -700 -328 -568 -310 l -693 -293 z "},"~":{"ha":1389,"x_min":263,"x_max":1125,"o":"m 1125 444 l 1107 407 q 1022 309 1075 340 q 904 278 969 278 q 836 284 879 278 q 738 306 793 290 l 585 347 q 461 369 504 369 q 307 304 389 369 l 285 286 l 263 308 l 296 354 q 385 439 335 407 q 500 471 436 471 q 567 465 531 471 q 650 446 604 460 l 771 411 q 874 386 833 393 q 939 379 914 379 q 1076 440 1021 379 l 1101 468 l 1125 444 z "},"":{"ha":488,"x_min":-304,"x_max":7,"o":"m -197 111 q -176 90 -186 111 q -167 50 -167 69 q -176 2 -167 28 q -203 -46 -186 -24 q -241 -83 -219 -68 q -287 -97 -262 -97 q -304 -86 -304 -97 q -290 -69 -304 -74 q -249 -8 -249 -60 q -253 11 -249 4 q -261 23 -257 18 q -269 31 -265 28 q -274 39 -274 35 q -263 53 -274 42 q -240 78 -253 65 q -214 101 -226 90 q -197 111 -201 111 m -24 111 q -3 90 -12 111 q 7 50 7 69 q -3 2 7 28 q -29 -46 -12 -24 q -67 -83 -46 -68 q -114 -97 -89 -97 q -131 -86 -131 -97 q -117 -69 -131 -74 q -75 -8 -75 -60 q -79 11 -75 4 q -87 23 -83 18 q -96 31 -92 28 q -100 39 -100 35 q -90 53 -100 42 q -66 78 -79 65 q -40 101 -53 90 q -24 111 -28 111 z "},"":{"ha":771,"x_min":50,"x_max":606,"o":"m 107 111 q 118 101 111 111 q 131 78 125 92 q 142 53 138 65 q 147 38 147 42 q 140 21 147 31 q 124 2 133 11 q 106 -14 115 -7 q 90 -21 96 -21 q 76 -12 83 -21 q 64 7 69 -4 q 54 29 58 18 q 50 47 50 40 q 57 64 50 53 q 74 85 64 75 q 93 103 83 96 q 107 111 103 111 m 336 111 q 347 101 340 111 q 360 78 354 92 q 372 53 367 65 q 376 38 376 42 q 369 21 376 31 q 353 2 363 11 q 335 -14 344 -7 q 319 -21 325 -21 q 306 -12 313 -21 q 293 7 299 -4 q 283 29 288 18 q 279 47 279 40 q 286 64 279 53 q 303 85 293 75 q 322 103 313 96 q 336 111 332 111 m 565 111 q 576 101 569 111 q 590 78 583 92 q 601 53 596 65 q 606 38 606 42 q 599 21 606 31 q 583 2 592 11 q 564 -14 574 -7 q 549 -21 554 -21 q 535 -12 542 -21 q 522 7 528 -4 q 513 29 517 18 q 508 47 508 40 q 515 64 508 53 q 532 85 522 75 q 551 103 542 96 q 565 111 561 111 z "},"":{"ha":313,"x_min":167,"x_max":304,"o":"m 261 921 q 274 906 274 914 q 239 867 274 901 q 197 833 206 833 q 178 851 188 833 q 167 894 169 869 q 213 1000 167 951 q 285 1042 250 1038 q 304 1031 304 1044 q 290 1014 304 1018 q 249 953 251 1004 q 261 921 249 929 z "},"":{"ha":313,"x_min":167,"x_max":304,"o":"m 274 1042 q 294 1021 285 1042 q 304 981 304 1000 q 294 933 304 958 q 268 885 285 907 q 230 848 251 863 q 183 833 208 833 q 167 844 167 833 q 181 861 167 857 q 222 922 222 871 q 218 942 222 935 q 210 953 214 949 q 201 962 206 958 q 197 969 197 965 q 208 984 197 972 q 231 1008 218 996 q 257 1031 244 1021 q 274 1042 269 1042 z "},"":{"ha":488,"x_min":167,"x_max":478,"o":"m 261 921 q 274 906 274 914 q 239 867 274 901 q 197 833 206 833 q 178 851 188 833 q 167 894 169 869 q 213 1000 167 951 q 285 1042 250 1038 q 304 1031 304 1044 q 290 1014 304 1018 q 249 953 251 1004 q 261 921 249 929 m 435 921 q 447 906 447 914 q 413 867 447 901 q 371 833 379 833 q 351 851 361 833 q 340 894 343 869 q 386 1000 340 951 q 458 1042 424 1038 q 478 1031 478 1044 q 464 1014 478 1018 q 422 953 425 1004 q 435 921 422 929 z "},"":{"ha":486,"x_min":167,"x_max":478,"o":"m 447 1042 q 468 1021 458 1042 q 478 981 478 1000 q 468 933 478 958 q 442 885 458 907 q 403 848 425 863 q 357 833 382 833 q 340 844 340 833 q 354 861 340 857 q 396 922 396 871 q 392 942 396 935 q 383 953 388 949 q 375 962 379 958 q 371 969 371 965 q 381 984 371 972 q 405 1008 392 996 q 431 1031 418 1021 q 447 1042 443 1042 m 274 1042 q 294 1021 285 1042 q 304 981 304 1000 q 294 933 304 958 q 268 885 285 907 q 230 848 251 863 q 183 833 208 833 q 167 844 167 833 q 181 861 167 857 q 222 922 222 871 q 218 942 222 935 q 210 953 214 949 q 201 962 206 958 q 197 969 197 965 q 208 984 197 972 q 231 1008 218 996 q 257 1031 244 1021 q 274 1042 269 1042 z "},"":{"ha":692,"x_min":111,"x_max":613,"o":"m 111 496 q 132 594 111 549 q 187 674 153 640 q 267 728 221 708 q 363 747 313 747 q 459 727 414 747 q 538 673 504 707 q 592 593 572 639 q 613 496 613 547 q 592 399 613 444 q 538 320 572 354 q 459 266 504 286 q 363 246 414 246 q 267 265 313 246 q 186 319 221 285 q 131 399 151 353 q 111 496 111 444 z "},"":{"ha":849,"x_min":131,"x_max":964,"o":"m 140 925 l 464 925 l 471 774 l 443 774 l 431 814 q 402 870 419 849 q 339 897 385 892 l 339 618 q 345 569 339 582 q 375 553 351 556 l 399 550 l 399 522 l 206 522 l 206 550 l 225 551 q 265 618 265 556 l 265 897 q 204 872 222 894 q 171 808 186 849 l 157 774 l 131 774 l 140 925 m 492 550 l 510 553 q 541 573 529 556 q 553 614 553 590 l 553 844 q 548 882 553 872 q 521 894 543 892 l 492 897 l 492 925 l 644 925 l 724 660 l 811 925 l 964 925 l 964 897 l 943 896 q 903 839 903 892 l 903 617 q 909 569 903 583 q 943 553 915 556 l 964 550 l 964 522 l 771 522 l 771 550 l 793 553 q 824 570 818 556 q 831 617 831 585 l 831 890 l 708 522 l 692 522 l 585 878 l 585 617 q 622 554 585 561 l 644 550 l 644 522 l 492 522 l 492 550 z "},"":{"ha":694,"x_min":18,"x_max":679,"o":"m 61 826 l 154 733 q 247 785 199 769 q 349 800 294 800 q 438 786 388 800 q 543 733 488 772 l 635 826 l 679 782 l 585 690 q 635 593 621 638 q 650 500 650 549 q 635 397 650 447 q 585 306 621 347 l 678 211 l 636 169 l 543 261 q 437 210 482 224 q 347 196 392 196 q 255 210 303 196 q 154 261 207 224 l 61 169 l 18 211 l 111 306 q 60 401 75 354 q 46 500 46 447 q 60 590 46 546 q 111 690 75 635 l 18 782 l 61 826 m 583 497 q 565 588 583 544 q 513 663 546 631 q 438 713 481 694 q 347 732 394 732 q 256 715 299 732 q 183 666 214 697 q 133 591 151 635 q 114 496 114 547 q 133 405 114 447 q 183 331 151 363 q 256 281 214 300 q 347 263 299 263 q 438 281 394 263 q 513 331 481 299 q 565 406 546 363 q 583 497 583 449 z "},"":{"ha":674,"x_min":-37,"x_max":638,"o":"m 549 825 q 553 831 549 826 q 564 847 558 836 q 574 873 569 857 q 579 913 579 889 q 546 984 579 957 q 463 1011 513 1011 q 372 974 406 1011 q 338 881 338 936 q 353 812 338 849 q 403 738 369 775 l 521 603 q 569 529 553 567 q 586 460 586 492 q 569 369 586 410 q 522 300 551 329 q 453 253 493 271 q 369 229 414 235 q 421 56 421 132 q 397 -29 421 10 q 335 -96 374 -68 q 248 -139 296 -124 q 153 -154 200 -154 q 83 -145 117 -154 q 22 -119 49 -136 q -22 -76 -6 -101 q -37 -15 -37 -50 q -32 21 -37 1 q -17 56 -26 40 q 3 83 -8 72 q 29 93 15 93 q 51 81 51 93 q 30 34 39 63 q 21 -15 21 6 q 57 -94 21 -64 q 147 -124 93 -124 q 219 -110 185 -124 q 278 -72 253 -96 q 320 -14 304 -47 q 336 58 336 19 q 319 132 336 93 q 274 203 301 171 l 158 328 q 111 395 126 361 q 96 458 96 429 q 113 544 96 503 q 160 619 129 586 q 232 674 190 653 q 322 699 274 694 q 260 853 260 800 q 276 929 260 894 q 321 989 293 964 q 385 1028 349 1014 q 463 1042 422 1042 q 523 1032 492 1042 q 580 1006 554 1022 q 622 965 606 989 q 638 913 638 942 q 633 878 638 896 q 619 845 628 860 q 597 822 610 831 q 571 813 585 813 q 549 825 549 813 m 354 664 q 221 612 271 657 q 171 488 171 567 q 243 353 171 433 q 344 267 304 288 q 463 308 417 267 q 508 419 508 349 q 491 489 508 451 q 442 563 474 526 l 354 664 l 354 664 z "},"":{"ha":832,"x_min":28,"x_max":836,"o":"m 789 1032 q 836 844 836 1032 q 803 747 836 749 q 772 797 772 747 q 754 874 772 839 q 705 933 736 908 q 633 972 674 958 q 547 986 593 986 q 406 929 457 986 q 354 775 354 872 q 364 696 354 726 q 458 704 411 704 q 509 698 483 704 q 556 679 535 692 q 590 647 576 667 q 603 603 603 628 q 593 567 603 582 q 569 540 583 551 q 535 524 554 529 q 497 518 515 518 q 383 546 438 518 q 301 624 328 574 q 230 569 263 604 q 174 492 197 535 q 137 401 150 449 q 124 306 124 353 q 145 190 124 242 q 206 103 167 139 q 297 47 244 67 q 413 28 350 28 q 514 43 467 28 q 599 87 561 58 q 660 157 636 115 q 690 251 683 199 q 740 336 700 336 q 772 297 772 336 q 744 184 772 242 q 666 79 717 126 q 544 2 615 32 q 389 -28 474 -28 q 242 -6 308 -28 q 128 59 175 17 q 54 163 81 101 q 28 306 28 225 q 49 410 28 356 q 104 514 69 464 q 184 603 139 564 q 278 663 229 643 q 267 716 271 690 q 263 774 263 742 q 286 876 263 828 q 349 962 310 925 q 439 1020 388 999 q 547 1042 490 1042 q 615 1034 583 1042 q 678 1014 647 1026 q 721 994 706 1003 q 746 986 736 986 q 764 1010 756 986 q 789 1032 772 1032 m 376 649 q 425 588 388 610 q 506 567 463 567 q 564 601 564 567 q 453 664 564 664 q 424 660 443 664 q 376 649 406 657 m 514 1294 q 525 1285 518 1294 q 538 1262 532 1275 q 549 1237 544 1249 q 554 1221 554 1225 q 547 1204 554 1214 q 531 1185 540 1194 q 513 1169 522 1176 q 497 1163 503 1163 q 483 1171 490 1163 q 471 1190 476 1179 q 461 1213 465 1201 q 457 1231 457 1224 q 464 1247 457 1236 q 481 1269 471 1258 q 500 1287 490 1279 q 514 1294 510 1294 m 715 1294 q 726 1285 719 1294 q 740 1262 733 1275 q 751 1237 746 1249 q 756 1221 756 1225 q 749 1204 756 1214 q 733 1185 742 1194 q 714 1169 724 1176 q 699 1163 704 1163 q 685 1171 692 1163 q 672 1190 678 1179 q 663 1213 667 1201 q 658 1231 658 1224 q 665 1247 658 1236 q 682 1269 672 1258 q 701 1287 692 1279 q 715 1294 711 1294 z "},"":{"ha":694,"x_min":132,"x_max":783,"o":"m 457 1040 q 581 1015 522 1040 q 685 944 640 989 q 757 841 731 900 q 783 714 783 782 q 759 588 783 647 q 692 485 735 529 q 589 414 649 440 q 458 388 529 388 q 333 411 392 388 q 229 477 274 435 q 158 580 185 519 q 132 714 132 640 q 158 840 132 781 q 229 944 185 900 q 333 1015 274 989 q 457 1040 392 1040 m 458 990 q 348 969 399 990 q 260 910 297 947 q 201 822 222 872 q 181 714 181 771 q 203 606 181 657 q 263 518 225 556 q 351 458 300 481 q 458 436 401 436 q 566 458 515 436 q 654 519 617 481 q 713 608 692 557 q 735 714 735 658 q 713 819 735 769 q 653 908 690 869 q 565 968 615 946 q 458 990 514 990 m 608 658 q 567 549 597 581 q 467 518 538 518 q 341 574 390 518 q 292 718 292 629 q 304 791 292 754 q 340 858 317 828 q 393 906 363 888 q 460 925 424 925 q 515 913 492 925 q 550 901 538 901 q 559 905 553 901 q 575 924 565 908 l 601 924 l 601 776 l 575 772 q 532 864 557 835 q 472 893 507 893 q 379 718 379 893 q 482 550 379 550 q 542 572 518 550 q 581 658 567 594 l 608 658 z "},"":{"ha":446,"x_min":42,"x_max":414,"o":"m 224 485 q 235 474 235 485 q 225 450 235 464 l 131 318 q 110 282 110 289 q 117 235 110 274 l 147 79 q 151 49 151 58 q 142 38 151 38 q 113 71 124 38 l 54 240 q 42 282 42 274 q 53 304 42 289 q 82 340 64 319 l 190 463 q 224 485 208 485 m 403 485 q 414 474 414 485 q 404 450 414 464 l 310 318 q 289 282 289 289 q 296 235 289 274 l 326 79 q 331 49 331 58 q 321 38 331 38 q 292 71 303 38 l 233 240 q 221 282 221 274 q 232 304 221 289 q 261 340 243 319 l 369 463 q 403 485 388 485 z "},"":{"ha":721,"x_min":67,"x_max":653,"o":"m 585 390 l 67 390 l 67 458 l 653 458 l 653 129 l 585 129 l 585 390 z "},"":{"ha":694,"x_min":132,"x_max":783,"o":"m 457 1040 q 580 1017 521 1040 q 684 950 639 993 q 756 847 729 907 q 783 714 783 786 q 757 580 783 640 q 685 477 731 519 q 581 411 640 435 q 458 388 522 388 q 333 411 393 388 q 229 478 274 435 q 158 581 185 521 q 132 714 132 640 q 158 843 132 783 q 229 947 185 903 q 333 1015 274 990 q 457 1040 392 1040 m 458 990 q 348 968 399 990 q 260 908 297 946 q 201 820 222 871 q 181 714 181 769 q 202 605 181 656 q 261 517 224 554 q 349 458 299 479 q 458 436 400 436 q 569 459 518 436 q 656 520 619 482 q 714 608 693 558 q 735 714 735 658 q 714 818 735 768 q 656 906 693 868 q 569 967 619 944 q 458 990 518 990 m 290 910 l 464 910 q 521 907 493 910 q 569 894 549 904 q 603 866 590 885 q 617 815 617 847 q 597 759 617 783 q 521 722 578 735 q 562 683 549 703 q 582 635 575 663 q 597 595 590 604 q 611 586 603 586 q 625 595 618 586 q 635 635 632 604 l 661 635 l 661 621 q 642 557 661 581 q 586 533 622 533 q 506 628 522 533 q 497 672 501 654 q 484 699 492 689 q 465 712 476 708 q 435 715 453 715 l 424 715 l 424 622 q 431 578 424 590 q 461 564 438 567 l 485 561 l 485 533 l 290 533 l 290 561 l 313 563 q 351 619 351 565 l 351 831 q 340 867 351 851 q 290 882 329 882 l 290 910 m 424 743 l 454 743 q 514 758 494 743 q 533 814 533 774 q 474 882 533 882 q 438 872 451 882 q 424 826 424 861 l 424 743 z "},"":{"ha":529,"x_min":308,"x_max":535,"o":"m 422 819 q 466 810 446 819 q 501 784 486 800 q 526 747 517 768 q 535 704 535 726 q 526 662 535 682 q 503 626 518 642 q 467 602 488 611 q 422 593 447 593 q 342 625 375 593 q 308 704 308 657 q 342 785 308 751 q 422 819 375 819 m 422 765 q 381 749 399 765 q 363 707 363 732 q 380 665 363 682 q 421 647 397 647 q 463 665 444 647 q 481 707 481 683 q 463 748 481 731 q 422 765 446 765 z "},"":{"ha":690,"x_min":3,"x_max":561,"o":"m 286 279 l 347 447 q 392 472 357 472 q 422 457 422 472 q 421 447 422 454 q 415 428 419 440 l 361 279 l 528 279 q 554 275 547 279 q 561 254 561 271 q 551 224 561 239 q 526 210 542 210 l 336 210 l 269 25 q 258 10 267 17 q 238 0 250 3 l 458 0 q 484 -4 478 0 q 490 -25 490 -8 q 481 -55 490 -40 q 456 -69 471 -69 l 38 -69 q 3 -44 3 -69 q 38 0 3 0 l 208 0 q 194 15 194 6 q 197 27 194 21 q 201 44 199 33 l 261 210 l 108 210 q 74 235 74 210 q 108 279 74 279 l 286 279 z "},"":{"ha":772,"x_min":38,"x_max":735,"o":"m 321 569 l 247 210 q 239 162 242 182 q 236 126 236 142 q 301 53 239 53 q 368 78 339 53 q 419 140 397 103 q 454 222 440 178 q 476 303 468 265 l 532 569 l 644 569 l 574 229 q 564 172 567 197 q 561 136 561 146 q 571 89 561 113 q 603 65 581 65 q 682 158 643 65 l 693 182 l 735 164 q 676 30 708 81 q 585 -21 644 -21 q 547 -9 564 -21 q 520 22 531 3 q 504 65 510 42 q 499 114 499 89 q 499 137 499 124 q 501 165 500 150 q 460 94 483 128 q 411 35 438 60 q 354 -6 385 10 q 292 -21 324 -21 q 188 47 221 -21 l 150 -217 q 126 -280 143 -265 q 86 -294 110 -294 q 38 -246 38 -294 q 40 -225 38 -240 q 46 -190 42 -210 l 206 569 l 321 569 z "},"":{"ha":694,"x_min":90,"x_max":664,"o":"m 664 978 l 571 978 l 571 -221 l 517 -221 l 517 978 l 450 978 l 450 -221 l 396 -221 l 396 388 q 269 415 325 388 q 173 487 213 442 q 112 589 133 532 q 90 706 90 646 q 127 860 90 797 q 226 962 164 924 q 368 1017 288 1000 q 538 1035 449 1035 l 664 1035 l 664 978 z "},"":{"ha":497,"x_min":24,"x_max":485,"o":"m 111 136 q 224 25 124 25 q 381 86 315 25 q 408 108 403 108 q 424 92 424 108 q 406 61 424 79 q 201 -21 326 -21 q 69 29 114 -21 q 24 167 24 79 q 50 302 24 235 q 122 423 76 369 q 225 509 167 476 q 349 542 283 542 q 475 428 475 542 q 444 320 475 372 q 361 227 413 268 q 244 161 310 186 q 111 136 179 136 m 107 174 q 218 191 165 174 q 311 240 271 208 q 376 314 351 271 q 400 410 400 357 q 333 496 400 496 q 239 467 281 496 q 168 394 197 439 q 123 294 139 349 q 107 186 107 239 l 107 174 l 107 174 m 243 725 q 254 715 247 725 q 267 692 261 706 q 278 667 274 679 q 283 651 283 656 q 276 635 283 644 q 260 616 269 625 q 242 600 251 607 q 226 593 232 593 q 213 601 219 593 q 200 621 206 610 q 190 643 194 632 q 186 661 186 654 q 193 678 186 667 q 210 699 200 689 q 229 717 219 710 q 243 725 239 725 m 444 725 q 456 715 449 725 q 469 692 463 706 q 480 667 475 679 q 485 651 485 656 q 478 635 485 644 q 462 616 471 625 q 443 600 453 607 q 428 593 433 593 q 414 601 421 593 q 401 621 407 610 q 392 643 396 632 q 388 661 388 654 q 394 678 388 667 q 411 699 401 689 q 431 717 421 710 q 444 725 440 725 z "},"":{"ha":446,"x_min":32,"x_max":404,"o":"m 126 501 q 154 468 142 501 l 206 318 q 219 277 214 294 q 225 257 225 260 q 215 238 225 253 q 185 199 206 222 l 76 76 q 43 54 58 54 q 32 65 32 54 q 42 89 32 75 l 136 221 q 157 257 157 250 q 150 304 157 265 l 119 460 q 115 490 115 481 q 126 501 115 501 m 306 501 q 333 468 321 501 l 385 318 q 399 277 393 294 q 404 257 404 260 q 394 238 404 253 q 364 199 385 222 l 256 76 q 222 54 238 54 q 211 65 211 54 q 221 89 211 75 l 315 221 q 336 257 336 250 q 329 304 336 265 l 299 460 q 294 490 294 481 q 306 501 294 501 z "},"":{"ha":1046,"x_min":-19,"x_max":1174,"o":"m 925 936 q 1096 969 996 969 q 1174 932 1174 969 q 1146 910 1174 910 q 1103 917 1122 910 q 1061 925 1085 925 q 957 906 996 925 q 1026 808 1003 861 q 1050 688 1050 754 q 1028 560 1050 618 l 892 194 q 869 121 869 138 q 885 100 869 100 q 905 106 894 100 q 925 119 915 111 q 943 132 935 126 q 958 138 951 138 q 969 122 969 138 q 944 89 969 110 q 888 49 919 68 q 824 15 856 29 q 781 0 793 0 q 757 26 757 0 q 775 94 757 53 l 875 333 q 492 268 774 268 q 88 -28 325 -28 q -19 15 -19 -28 q 29 51 -19 51 q 48 48 39 51 q 70 40 57 44 q 101 33 83 36 q 149 29 119 29 q 432 268 311 29 q 355 251 392 268 q 281 197 318 235 q 247 172 256 172 q 231 189 231 172 q 249 229 231 204 q 300 277 268 254 q 374 317 332 300 q 461 333 415 333 q 546 502 501 417 q 640 664 590 588 q 748 805 690 740 q 872 911 806 869 q 813 948 849 932 q 733 974 776 964 q 645 990 690 985 q 558 996 600 996 q 400 978 479 996 q 258 923 321 960 q 156 832 196 886 q 117 706 117 778 q 344 514 117 514 q 367 492 367 514 q 338 469 367 469 q 28 704 28 469 q 78 851 28 788 q 207 956 129 914 q 378 1020 285 999 q 558 1042 472 1042 q 656 1035 606 1042 q 756 1015 707 1028 q 849 982 806 1001 q 925 936 892 963 m 833 371 q 922 465 894 396 l 957 560 q 979 688 979 618 q 901 878 979 813 q 519 333 736 803 q 710 343 632 333 q 833 371 789 353 z "},"":{"ha":1140,"x_min":25,"x_max":1310,"o":"m 619 703 q 636 768 636 749 q 625 781 636 781 q 597 769 614 781 q 571 758 579 758 q 558 772 558 758 q 580 797 558 779 q 630 832 601 814 q 688 864 658 850 q 732 878 717 878 q 749 858 749 878 q 743 826 749 847 q 725 772 738 804 l 665 615 q 727 634 693 626 q 801 642 761 642 q 908 625 856 642 q 1002 574 961 608 q 1068 488 1043 539 q 1093 368 1093 436 q 1057 211 1093 283 q 960 85 1021 139 q 821 2 900 32 q 654 -28 742 -28 q 460 0 547 -28 q 369 29 374 29 q 326 51 326 29 q 343 74 326 61 q 397 131 376 100 q 435 207 417 161 l 553 522 q 496 482 518 504 q 460 440 474 460 q 438 404 446 419 q 426 385 431 389 q 412 388 419 385 q 404 400 404 390 q 420 453 404 426 q 461 506 436 481 q 516 550 486 531 q 574 581 546 569 l 619 703 m 514 211 q 505 190 511 203 q 490 163 499 176 q 472 137 482 149 q 454 117 463 125 q 424 90 424 90 q 521 49 424 71 q 609 32 565 38 q 693 26 653 26 q 821 51 763 26 q 921 122 879 76 q 985 230 963 167 q 1008 368 1008 293 q 990 467 1008 424 q 944 538 972 510 q 879 581 915 567 q 806 596 843 596 q 717 588 753 596 q 644 558 681 581 l 514 211 m 1183 1007 q 1217 1013 1201 1007 q 1245 1024 1232 1018 q 1271 1036 1258 1031 q 1296 1042 1283 1042 q 1310 1024 1310 1042 q 1265 969 1310 1014 q 1206 924 1221 924 q 1144 928 1194 924 q 1020 938 1093 932 q 862 950 947 943 q 698 963 776 957 q 556 972 619 968 q 464 976 493 976 q 339 958 401 976 q 226 906 276 940 q 145 820 176 871 q 114 706 114 769 q 342 514 114 514 q 364 492 364 514 q 335 469 364 469 q 102 526 179 469 q 25 704 25 582 q 74 853 25 790 q 201 958 124 917 q 372 1021 278 1000 q 556 1042 465 1042 q 642 1039 589 1042 q 757 1033 694 1036 q 886 1024 819 1029 q 1012 1016 953 1019 q 1116 1010 1071 1013 q 1183 1007 1161 1007 z "},"":{"ha":1140,"x_min":28,"x_max":1093,"o":"m 957 615 q 972 670 967 646 q 976 736 976 694 q 940 853 976 804 q 843 933 903 901 q 708 981 783 965 q 556 996 632 996 q 403 978 481 996 q 262 925 325 961 q 158 834 199 889 q 117 706 117 779 q 342 515 117 515 q 364 492 364 515 q 335 471 364 471 q 28 704 28 471 q 78 851 28 788 q 206 956 128 914 q 376 1020 283 999 q 556 1042 469 1042 q 733 1025 643 1042 q 896 972 824 1008 q 1014 876 968 935 q 1060 733 1060 818 q 1004 588 1060 664 q 1093 368 1093 504 q 1057 211 1093 283 q 960 85 1021 139 q 821 2 900 32 q 654 -28 742 -28 q 460 0 547 -28 q 369 29 374 29 q 326 51 326 29 q 343 74 326 61 q 397 130 376 100 q 435 207 417 160 l 619 703 q 636 768 636 749 q 625 781 636 781 q 597 769 614 781 q 571 758 579 758 q 558 772 558 758 q 580 799 558 781 q 631 834 601 817 q 689 865 660 851 q 732 878 718 878 q 749 858 749 878 q 743 826 749 847 q 725 772 738 804 l 514 211 q 485 157 501 179 q 454 117 469 135 q 435 99 446 107 q 424 90 424 92 q 448 70 424 79 q 521 49 472 61 q 610 32 567 38 q 693 26 654 26 q 820 51 763 26 q 919 122 878 76 q 984 230 961 167 q 1007 368 1007 293 q 949 529 1007 463 q 919 508 938 518 q 879 489 900 497 q 837 476 858 481 q 799 471 815 471 q 764 475 782 471 q 732 488 746 479 q 709 509 718 496 q 700 540 700 522 q 713 581 700 563 q 747 613 726 599 q 793 634 768 626 q 840 642 818 642 q 957 615 903 642 m 919 565 q 838 601 883 601 q 756 546 756 601 q 814 515 756 515 q 838 520 822 515 q 871 532 854 525 q 901 548 888 539 q 919 565 915 557 z "},"":{"ha":906,"x_min":28,"x_max":1182,"o":"m 844 950 q 630 970 724 964 q 467 976 536 976 q 342 958 404 976 q 229 906 279 940 q 148 820 179 871 q 117 706 117 769 q 344 514 117 514 q 367 492 367 514 q 338 469 367 469 q 28 704 28 469 q 77 853 28 790 q 203 958 126 917 q 374 1021 281 1000 q 558 1042 468 1042 q 699 1038 621 1042 q 872 1024 776 1033 q 1001 1011 960 1015 q 1056 1007 1042 1007 q 1089 1013 1074 1007 q 1118 1024 1104 1018 q 1144 1036 1132 1031 q 1168 1042 1157 1042 q 1182 1024 1182 1042 q 1168 1002 1182 1018 q 1137 969 1154 986 q 1102 938 1119 951 q 1078 924 1085 924 q 1056 925 1071 924 q 1015 930 1042 926 q 946 938 988 933 q 844 950 904 943 m 817 924 q 833 904 833 924 q 828 873 833 894 q 810 818 824 851 l 688 522 q 578 288 632 388 q 464 122 525 188 q 327 23 403 56 q 151 -10 251 -10 q 51 35 51 -10 q 107 75 51 75 q 147 66 129 75 q 199 57 164 57 q 274 63 238 57 q 345 82 311 68 q 409 119 379 96 q 463 179 439 143 q 581 408 532 283 q 682 689 629 533 l 722 808 q 719 821 722 815 q 710 826 717 826 q 682 815 699 826 q 656 804 665 804 q 643 818 643 804 q 665 844 643 826 q 715 879 686 861 q 772 910 743 897 q 817 924 801 924 z "},"":{"ha":1121,"x_min":42,"x_max":1107,"o":"m 746 878 q 763 858 763 878 q 739 772 763 836 l 528 211 q 501 157 517 179 q 467 117 486 135 q 445 97 453 103 q 438 90 438 92 q 461 67 438 79 q 515 47 485 56 q 574 32 544 38 q 615 26 603 26 q 790 72 714 26 q 919 194 867 118 q 997 369 971 271 q 1024 569 1024 467 q 990 746 1024 667 q 895 881 956 825 q 751 966 835 936 q 569 996 668 996 q 418 978 496 996 q 276 925 340 961 q 172 834 213 889 q 131 706 131 779 q 356 514 131 514 q 378 492 378 514 q 349 469 378 469 q 42 704 42 469 q 91 851 42 788 q 217 956 140 914 q 387 1020 293 999 q 569 1042 481 1042 q 778 1012 681 1042 q 949 923 876 982 q 1065 775 1022 864 q 1107 569 1107 686 q 1066 340 1107 449 q 958 150 1025 232 q 801 20 890 68 q 617 -28 713 -28 q 460 0 531 -28 q 383 29 390 29 q 340 51 340 29 q 357 74 340 61 q 410 127 390 99 q 449 207 429 156 l 633 703 q 650 768 650 749 q 639 781 650 781 q 628 777 636 781 q 613 769 621 774 q 597 762 604 765 q 585 758 589 758 q 572 772 572 758 q 594 800 572 782 q 646 835 617 818 q 703 865 675 853 q 746 878 732 878 z "},"":{"ha":832,"x_min":28,"x_max":836,"o":"m 789 1032 q 836 844 836 1032 q 803 747 836 749 q 772 797 772 747 q 754 874 772 839 q 705 933 736 908 q 633 972 674 958 q 547 986 593 986 q 406 929 457 986 q 354 775 354 872 q 364 696 354 726 q 458 704 411 704 q 509 698 483 704 q 556 679 535 692 q 590 647 576 667 q 603 603 603 628 q 593 567 603 582 q 569 540 583 551 q 535 524 554 529 q 497 518 515 518 q 383 546 438 518 q 301 624 328 574 q 230 569 263 604 q 174 492 197 535 q 137 401 150 449 q 124 306 124 353 q 145 190 124 242 q 206 103 167 139 q 297 47 244 67 q 413 28 350 28 q 514 43 467 28 q 599 87 561 58 q 660 157 636 115 q 690 251 683 199 q 740 336 700 336 q 772 297 772 336 q 744 184 772 242 q 666 79 717 126 q 544 2 615 32 q 389 -28 474 -28 q 242 -6 308 -28 q 128 59 175 17 q 54 163 81 101 q 28 306 28 225 q 49 410 28 356 q 104 514 69 464 q 184 603 139 564 q 278 663 229 643 q 267 716 271 690 q 263 774 263 742 q 286 876 263 828 q 349 962 310 925 q 439 1020 388 999 q 547 1042 490 1042 q 615 1034 583 1042 q 678 1014 647 1026 q 721 994 706 1003 q 746 986 736 986 q 764 1010 756 986 q 789 1032 772 1032 m 376 649 q 425 588 388 610 q 506 567 463 567 q 564 601 564 567 q 453 664 564 664 q 424 660 443 664 q 376 649 406 657 z "},"":{"ha":1739,"x_min":0,"x_max":1739,"o":"m 1136 1126 q 1151 1113 1151 1126 q 1146 1093 1151 1101 q 1115 1051 1129 1072 q 1085 999 1100 1031 q 1051 921 1069 968 q 1008 801 1033 874 l 904 488 l 907 488 q 1035 676 986 604 q 1115 789 1085 747 q 1160 850 1144 831 q 1190 885 1176 869 q 1349 1003 1265 964 q 1518 1042 1433 1042 q 1565 1036 1544 1042 q 1600 1024 1585 1031 q 1627 1011 1615 1017 q 1650 1006 1639 1006 q 1669 1010 1664 1006 q 1677 1019 1674 1014 q 1685 1028 1681 1024 q 1703 1032 1690 1032 q 1739 850 1739 1032 q 1717 747 1739 747 q 1688 797 1688 747 q 1672 871 1688 836 q 1631 931 1656 906 q 1577 972 1607 957 q 1518 986 1547 986 q 1390 959 1450 986 q 1281 886 1331 932 q 1194 781 1232 840 q 1128 657 1156 722 q 1088 526 1101 592 q 1074 404 1074 461 q 1090 231 1074 303 q 1136 115 1107 160 q 1207 49 1165 69 q 1299 28 1249 28 q 1389 45 1347 28 q 1462 92 1431 63 q 1513 162 1493 122 q 1538 247 1533 201 q 1588 332 1546 332 q 1621 293 1621 332 q 1594 185 1621 242 q 1522 82 1567 129 q 1418 3 1476 35 q 1297 -28 1360 -28 q 1167 3 1225 -28 q 1067 90 1108 33 q 1003 224 1025 146 q 981 400 981 303 q 992 502 981 450 q 1021 607 1003 554 l 1018 607 l 876 378 l 818 175 q 781 82 804 129 q 731 -3 758 35 q 676 -65 704 -42 q 628 -89 649 -89 q 613 -76 613 -89 q 628 -49 613 -64 q 660 -6 643 -35 q 694 58 678 22 q 726 133 711 93 q 751 210 740 172 l 849 551 l 846 551 q 716 357 767 432 q 633 238 665 282 q 583 169 601 193 q 549 129 565 146 q 390 11 474 50 q 221 -28 306 -28 q 174 -22 196 -28 q 136 -10 153 -17 q 108 3 119 -3 q 89 8 96 8 q 70 4 75 8 q 62 -5 65 0 q 53 -14 58 -10 q 36 -18 49 -18 q 0 164 0 -18 q 22 267 0 267 q 51 217 51 267 q 67 145 51 179 q 108 85 83 111 q 162 44 132 60 q 221 28 192 28 q 398 86 317 28 q 539 232 479 144 q 632 422 599 319 q 665 611 665 524 q 649 784 665 713 q 603 900 632 856 q 532 965 574 944 q 440 986 490 986 q 350 969 392 986 q 277 922 308 951 q 226 852 246 892 q 201 767 206 813 q 151 682 193 682 q 118 721 118 682 q 145 828 118 772 q 217 932 172 885 q 321 1010 263 979 q 442 1042 379 1042 q 571 1011 513 1042 q 671 924 629 981 q 735 790 713 868 q 758 614 758 711 q 747 513 758 565 q 719 410 736 461 l 722 410 l 882 668 l 951 857 q 1000 966 974 917 q 1052 1051 1026 1015 q 1100 1106 1078 1086 q 1136 1126 1122 1126 z "},"":{"ha":760,"x_min":8,"x_max":757,"o":"m 517 1042 q 599 1033 556 1042 q 676 1002 642 1025 q 734 939 711 979 q 757 833 757 899 q 745 763 757 800 q 717 694 733 726 q 681 634 700 661 q 646 593 661 607 q 707 496 682 554 q 732 368 732 438 q 704 227 732 297 q 623 100 676 157 q 492 8 569 43 q 318 -28 415 -28 q 185 -6 243 -28 q 88 53 128 15 q 28 141 49 90 q 8 250 8 192 q 10 278 8 264 q 17 305 13 293 q 32 324 22 317 q 58 332 42 332 q 81 317 74 332 q 89 278 89 303 q 84 243 89 263 q 79 200 79 224 q 92 131 79 163 q 136 76 106 99 q 215 40 167 53 q 335 26 264 26 q 460 52 403 26 q 558 124 517 78 q 623 232 600 169 q 646 368 646 294 q 633 464 646 415 q 590 546 619 513 q 522 515 554 525 q 468 504 490 504 q 379 533 411 504 q 347 599 347 563 q 378 663 347 643 q 460 682 410 682 q 531 669 489 682 q 597 636 572 656 q 649 708 625 660 q 672 833 672 756 q 657 913 672 883 q 619 960 642 943 q 569 982 596 976 q 518 988 542 988 q 434 971 478 988 q 351 926 390 954 q 282 860 313 897 q 239 781 251 822 q 223 744 232 757 q 199 732 214 732 q 182 757 182 732 q 183 769 182 763 q 185 782 183 775 q 194 834 188 807 q 208 888 201 861 q 223 940 215 915 q 236 983 231 965 q 247 1005 240 999 q 261 1011 254 1011 q 283 988 279 1011 q 289 969 286 975 q 300 964 292 964 q 321 976 304 964 q 365 1002 338 988 q 432 1029 393 1017 q 517 1042 471 1042 m 558 585 q 507 627 531 618 q 446 636 483 636 q 409 627 425 636 q 393 599 393 618 q 418 558 393 567 q 475 550 443 550 q 558 585 517 550 z "},"":{"ha":1239,"x_min":28,"x_max":1340,"o":"m 367 492 q 338 469 367 469 q 105 526 182 469 q 28 704 28 582 q 78 851 28 788 q 207 956 129 914 q 378 1020 285 999 q 558 1042 472 1042 q 686 1035 619 1042 q 808 1017 753 1029 q 900 985 864 1004 q 936 938 936 965 q 907 829 936 914 l 725 300 q 695 205 706 242 q 685 144 685 168 q 771 58 685 58 q 967 150 858 58 l 1207 829 q 1228 904 1228 888 q 1217 917 1228 917 q 1189 906 1206 917 q 1163 894 1172 894 q 1150 908 1150 894 q 1172 935 1150 918 q 1224 970 1194 953 q 1282 1001 1253 988 q 1324 1014 1311 1014 q 1340 994 1340 1014 q 1317 908 1340 979 l 1067 194 q 1044 121 1044 133 q 1060 100 1044 100 q 1078 106 1068 100 q 1099 119 1089 111 q 1119 132 1110 126 q 1133 138 1128 138 q 1144 122 1144 138 q 1120 90 1144 110 q 1064 49 1096 69 q 1001 15 1032 29 q 956 0 969 0 q 932 26 932 0 q 934 43 932 29 q 943 81 936 57 q 719 0 833 0 q 664 13 686 0 q 628 45 642 25 q 608 88 614 65 q 601 132 601 111 q 617 219 601 181 q 646 299 632 258 l 825 829 q 833 863 831 846 q 836 900 836 881 q 810 947 836 928 q 742 976 783 965 q 652 992 701 988 q 558 996 603 996 q 406 978 483 996 q 263 925 328 961 q 158 834 199 889 q 117 706 117 779 q 344 514 117 514 q 367 492 367 514 z "},"":{"ha":1239,"x_min":28,"x_max":1340,"o":"m 367 492 q 338 469 367 469 q 105 526 182 469 q 28 704 28 582 q 78 851 28 788 q 207 956 129 914 q 378 1020 285 999 q 558 1042 472 1042 q 686 1035 619 1042 q 808 1017 753 1029 q 900 985 864 1004 q 936 938 936 965 q 907 829 936 914 l 725 300 q 695 205 706 242 q 685 144 685 168 q 771 58 685 58 q 967 150 858 58 l 1207 829 q 1228 904 1228 888 q 1217 917 1228 917 q 1189 906 1206 917 q 1163 894 1172 894 q 1150 908 1150 894 q 1172 935 1150 918 q 1224 970 1194 953 q 1282 1001 1253 988 q 1324 1014 1311 1014 q 1340 994 1340 1014 q 1317 908 1340 979 l 1067 194 q 1044 121 1044 133 q 1060 100 1044 100 q 1078 106 1068 100 q 1099 119 1089 111 q 1119 132 1110 126 q 1133 138 1128 138 q 1144 122 1144 138 q 1120 90 1144 110 q 1064 49 1096 69 q 1001 15 1032 29 q 956 0 969 0 q 932 26 932 0 q 934 43 932 29 q 943 81 936 57 q 719 0 833 0 q 664 13 686 0 q 628 45 642 25 q 608 88 614 65 q 601 132 601 111 q 617 219 601 181 q 646 299 632 258 l 825 829 q 833 863 831 846 q 836 900 836 881 q 810 947 836 928 q 742 976 783 965 q 652 992 701 988 q 558 996 603 996 q 406 978 483 996 q 263 925 328 961 q 158 834 199 889 q 117 706 117 779 q 344 514 117 514 q 367 492 367 514 m 1071 1186 q 1081 1182 1078 1186 q 1089 1172 1085 1178 q 1101 1163 1093 1167 q 1126 1158 1110 1158 q 1169 1167 1151 1158 q 1199 1203 1186 1175 q 1218 1217 1204 1217 q 1231 1199 1231 1217 q 1216 1153 1231 1175 q 1177 1115 1201 1132 q 1122 1089 1153 1099 q 1057 1079 1090 1079 q 1010 1088 1036 1079 q 985 1110 985 1097 q 1022 1151 985 1119 q 1071 1186 1065 1186 z "},"":{"ha":1246,"x_min":28,"x_max":1433,"o":"m 367 492 q 338 469 367 469 q 105 529 182 469 q 28 704 28 589 q 78 851 28 788 q 207 956 129 914 q 378 1020 285 999 q 558 1042 472 1042 q 675 1037 610 1042 q 799 1019 740 1032 q 897 987 857 1007 q 936 938 936 967 q 907 829 936 922 l 801 489 q 1119 815 1086 785 q 1385 1006 1318 1006 q 1433 964 1433 1006 q 1414 939 1433 950 q 1382 928 1394 928 q 1178 801 1317 928 q 1098 724 1147 774 q 978 599 1049 674 l 1058 144 q 1092 88 1069 88 q 1109 95 1099 88 q 1131 111 1119 103 q 1154 127 1142 119 q 1179 135 1167 135 q 1194 114 1194 135 q 1174 81 1194 103 q 1126 39 1154 60 q 1070 2 1099 18 q 1025 -14 1042 -14 q 996 0 1006 -14 q 988 26 993 7 q 981 64 983 44 l 900 515 q 845 463 879 499 q 763 372 811 428 q 321 -90 597 -90 q 269 -69 269 -90 q 310 -49 269 -49 q 453 -10 393 -49 q 558 96 513 28 q 638 257 603 164 q 708 458 674 350 l 825 829 q 833 864 831 847 q 836 900 836 881 q 809 947 836 928 q 741 976 782 965 q 651 992 700 988 q 558 996 603 996 q 406 978 483 996 q 263 925 328 961 q 158 834 199 889 q 117 706 117 779 q 344 514 117 514 q 367 492 367 514 z "},"":{"ha":1253,"x_min":28,"x_max":1361,"o":"m 389 44 q 473 54 435 44 q 547 88 511 64 q 617 151 582 113 q 690 249 651 190 q 738 323 713 282 q 788 409 763 364 q 836 503 813 454 q 879 601 860 551 q 954 753 915 693 q 1035 851 993 813 q 1122 912 1076 889 q 1218 954 1168 935 q 1166 960 1203 956 q 1080 969 1129 964 q 976 978 1031 974 q 869 987 921 983 q 774 993 817 990 q 708 996 732 996 q 569 977 638 996 q 449 922 501 958 q 365 831 397 886 q 333 706 333 776 q 558 514 333 514 q 581 492 581 514 q 551 469 581 469 q 244 704 244 469 q 287 847 244 785 q 396 953 329 910 q 545 1019 463 996 q 708 1042 628 1042 q 860 1038 772 1042 q 1039 1028 949 1033 q 1212 1019 1129 1024 q 1346 1015 1294 1015 l 1344 1014 q 1361 994 1361 1014 q 1338 908 1361 979 l 1088 194 q 1065 121 1065 133 q 1081 100 1065 100 q 1099 106 1089 100 q 1120 119 1110 111 q 1140 132 1131 126 q 1154 138 1149 138 q 1165 122 1165 138 q 1142 90 1165 110 q 1086 49 1118 69 q 1023 15 1054 29 q 976 0 992 0 q 953 26 953 0 q 956 53 953 38 q 968 93 960 69 l 1228 829 q 1249 904 1249 888 q 1242 917 1249 917 q 1224 913 1235 917 q 1206 904 1214 908 q 1147 871 1178 890 q 1085 820 1117 851 q 1024 742 1054 789 q 964 628 993 696 q 855 400 904 489 q 790 288 806 311 q 399 -11 600 -11 q 267 16 333 -11 q 149 88 201 43 q 62 192 96 133 q 28 314 28 251 q 61 353 28 353 q 111 268 101 353 q 197 104 124 164 q 389 44 269 44 z "},"":{"ha":1418,"x_min":28,"x_max":1518,"o":"m 364 492 q 335 469 364 469 q 28 704 28 469 q 70 847 28 785 q 179 953 113 910 q 328 1019 246 996 q 492 1042 411 1042 q 820 948 681 1042 q 1031 674 960 854 q 1126 778 1067 721 q 1253 884 1186 835 q 1387 967 1321 933 q 1501 1000 1453 1000 q 1518 981 1518 1000 q 1494 894 1518 963 l 1247 194 q 1225 121 1225 133 q 1240 100 1225 100 q 1259 106 1249 100 q 1280 119 1269 111 q 1299 132 1290 126 q 1314 138 1308 138 q 1325 122 1325 138 q 1302 92 1325 113 q 1248 51 1279 72 q 1185 15 1217 31 q 1136 0 1153 0 q 1113 26 1113 0 q 1116 53 1113 38 q 1128 93 1119 69 l 1388 829 q 1408 904 1408 888 q 1397 917 1408 917 q 1353 901 1382 917 q 1290 861 1325 886 q 1217 805 1256 836 q 1146 742 1179 774 q 1085 681 1113 710 q 1046 632 1058 651 q 1058 472 1058 583 q 1048 391 1058 439 q 1019 299 1038 343 q 974 225 1000 256 q 914 194 947 194 q 844 306 844 194 q 855 381 844 339 q 883 465 865 422 q 924 546 901 507 q 971 613 946 585 q 944 672 963 639 q 903 738 925 706 q 860 794 881 769 q 826 828 839 819 l 799 811 q 756 661 785 747 q 684 484 726 575 q 588 304 642 393 q 469 145 533 215 q 333 32 406 75 q 182 -11 261 -11 q 82 33 82 -11 q 138 74 82 74 q 178 65 160 74 q 229 56 197 56 q 349 91 293 56 q 454 185 406 126 q 544 322 503 244 q 619 482 585 399 q 681 649 654 565 q 729 807 708 733 q 797 856 739 824 q 743 910 779 885 q 663 955 707 936 q 574 985 619 974 q 492 996 529 996 q 353 977 421 996 q 233 922 285 958 q 149 831 181 886 q 117 706 117 776 q 342 514 117 514 q 364 492 364 514 m 985 563 q 953 522 968 551 q 926 456 938 492 q 907 385 914 421 q 900 325 900 349 q 938 261 900 261 q 962 281 951 261 q 980 328 972 300 q 991 389 988 357 q 994 444 994 421 q 992 514 994 485 q 985 563 990 543 z "},"":{"ha":1232,"x_min":28,"x_max":1340,"o":"m 822 558 q 919 560 868 558 q 1018 574 971 563 q 1101 607 1065 585 q 1151 671 1136 629 l 1207 829 q 1228 904 1228 888 q 1217 917 1228 917 q 1189 906 1203 917 q 1163 894 1175 894 q 1150 908 1150 894 q 1173 936 1150 918 q 1225 972 1196 954 q 1283 1001 1254 989 q 1324 1014 1311 1014 q 1340 994 1340 1014 q 1317 908 1340 979 l 1067 194 q 1044 121 1044 133 q 1060 100 1044 100 q 1078 106 1068 100 q 1099 119 1089 111 q 1119 132 1110 126 q 1133 138 1128 138 q 1144 122 1144 138 q 1122 92 1144 113 q 1067 51 1099 72 q 1004 15 1036 31 q 956 0 972 0 q 932 26 932 0 q 935 53 932 38 q 947 93 939 69 l 1107 546 q 1031 508 1064 522 q 966 488 999 494 q 894 479 933 481 q 797 478 854 478 q 726 274 769 375 q 624 92 683 172 q 490 -40 565 11 q 321 -90 414 -90 q 269 -69 269 -90 q 310 -49 269 -49 q 456 -6 393 -49 q 566 106 519 36 q 647 268 613 176 q 708 458 681 360 q 667 449 689 458 q 623 424 644 439 q 581 392 601 410 q 544 358 561 374 q 525 372 525 358 q 548 413 525 385 q 603 469 571 440 q 673 522 636 499 q 738 550 710 546 l 825 829 q 833 864 831 847 q 836 900 836 881 q 810 947 836 928 q 742 976 783 965 q 653 992 701 988 q 558 996 604 996 q 406 978 483 996 q 263 925 328 961 q 158 834 199 889 q 117 706 117 779 q 344 514 117 514 q 367 492 367 514 q 338 469 367 469 q 105 526 182 469 q 28 704 28 582 q 78 851 28 788 q 207 956 129 914 q 378 1020 285 999 q 558 1042 472 1042 q 675 1037 610 1042 q 799 1019 740 1032 q 897 987 857 1007 q 936 938 936 967 q 907 829 936 922 l 822 558 l 822 558 z "},"":{"ha":906,"x_min":28,"x_max":903,"o":"m 261 800 q 303 888 271 844 q 382 966 336 932 q 481 1021 428 1000 q 589 1042 535 1042 q 718 1008 660 1042 q 817 921 776 975 q 881 798 858 867 q 903 658 903 729 q 866 419 903 540 q 760 198 829 297 q 592 35 692 99 q 367 -28 493 -28 q 220 3 283 -28 q 114 87 157 33 q 49 212 71 140 q 28 367 28 283 q 40 500 28 433 q 78 625 51 567 q 150 729 106 683 q 261 800 194 775 m 250 751 q 184 702 211 733 q 140 631 157 671 q 117 541 124 590 q 110 439 110 492 q 126 291 110 364 q 177 160 143 218 q 264 67 211 103 q 390 32 317 32 q 574 88 494 32 q 708 230 654 143 q 790 421 763 317 q 818 622 818 525 q 802 757 818 692 q 753 874 786 822 q 672 956 721 925 q 556 986 622 986 q 456 964 499 986 q 384 903 413 942 q 341 815 356 865 q 326 707 326 764 q 289 425 326 508 q 265 385 281 407 q 228 342 249 363 q 187 308 208 322 q 149 294 165 294 q 135 310 135 294 q 147 324 135 314 q 173 349 158 335 q 202 385 188 364 q 221 431 217 406 q 229 494 225 451 q 233 606 233 538 q 235 649 233 626 q 238 692 236 672 q 244 728 240 713 q 250 751 247 743 z "},"":{"ha":1282,"x_min":19,"x_max":1389,"o":"m 760 875 q 776 856 776 875 q 753 769 776 835 l 647 478 q 556 250 603 354 q 451 70 510 146 q 313 -48 392 -6 q 126 -90 235 -90 q 19 -47 19 -90 q 68 -11 19 -11 q 119 -22 88 -11 q 188 -33 150 -33 q 326 12 267 -33 q 432 136 385 57 q 519 324 479 215 q 600 558 558 432 l 643 690 q 658 739 653 721 q 664 765 664 757 q 653 778 664 778 q 625 767 642 778 q 599 756 608 756 q 586 769 586 756 q 609 799 586 781 q 662 833 632 817 q 720 863 692 850 q 760 875 749 875 m 1125 875 q 1142 856 1142 875 q 1118 769 1142 838 l 917 194 q 900 146 906 165 q 894 121 894 126 q 910 101 894 101 q 929 107 918 101 q 951 119 940 113 q 969 132 961 126 q 983 138 978 138 q 994 122 994 138 q 970 90 994 110 q 915 49 946 69 q 851 15 883 29 q 806 0 819 0 q 782 26 782 0 q 785 53 782 38 q 797 93 789 69 l 1008 690 q 1025 738 1019 719 q 1031 765 1031 757 q 1018 778 1031 778 q 1005 774 1013 778 q 990 767 997 771 q 975 759 982 763 q 964 756 968 756 q 951 769 951 756 q 973 796 951 778 q 1023 831 994 814 q 1081 862 1051 849 q 1125 875 1110 875 m 1263 1007 q 1296 1013 1281 1007 q 1325 1024 1311 1018 q 1351 1036 1339 1031 q 1375 1042 1364 1042 q 1389 1024 1389 1042 q 1376 1002 1389 1018 q 1344 969 1363 986 q 1310 938 1326 951 q 1285 924 1293 924 q 1177 932 1244 924 q 1010 950 1110 940 q 776 968 910 960 q 467 976 642 976 q 342 958 406 976 q 228 906 279 940 q 144 820 176 871 q 113 706 113 769 q 172 562 113 610 q 344 514 231 514 q 367 492 367 514 q 338 469 367 469 q 105 526 182 469 q 28 704 28 582 q 77 853 28 790 q 203 958 126 917 q 374 1021 281 1000 q 558 1042 468 1042 q 846 1036 729 1042 q 1042 1024 963 1031 q 1174 1013 1122 1018 q 1263 1007 1225 1007 z "},"":{"ha":1001,"x_min":28,"x_max":1086,"o":"m 364 492 q 335 469 364 469 q 28 704 28 469 q 78 851 28 788 q 206 956 128 914 q 376 1020 283 999 q 556 1042 469 1042 q 743 1022 649 1042 q 914 958 838 1001 q 1038 850 990 915 q 1086 694 1086 785 q 1052 558 1086 624 q 963 442 1018 493 q 835 362 907 392 q 689 332 764 332 q 633 333 657 332 q 590 338 608 335 l 528 167 q 514 122 518 140 q 508 93 510 104 q 522 72 508 72 q 540 78 529 72 q 561 91 550 83 q 582 104 572 99 q 596 110 592 110 q 607 94 607 110 q 583 63 607 83 q 528 22 560 42 q 465 -13 496 1 q 418 -28 433 -28 q 394 -1 396 -28 q 410 65 394 19 l 646 732 q 661 780 657 761 q 667 807 665 799 q 656 819 667 819 q 645 816 653 819 q 628 808 638 813 q 612 801 619 804 q 600 797 604 797 q 589 811 589 797 q 611 839 589 821 q 663 874 633 857 q 720 904 692 892 q 763 917 749 917 q 779 897 779 917 q 756 811 779 876 l 643 489 q 633 453 636 469 q 629 428 629 436 q 694 389 629 389 q 817 410 761 389 q 915 472 874 432 q 979 568 956 511 q 1003 694 1003 625 q 964 829 1003 772 q 861 923 925 886 q 717 978 797 960 q 556 996 638 996 q 403 978 481 996 q 262 925 325 961 q 158 834 199 889 q 117 706 117 779 q 342 514 117 514 q 364 492 364 514 z "},"":{"ha":828,"x_min":28,"x_max":869,"o":"m 833 1032 q 869 850 869 1032 q 847 747 869 747 q 818 797 818 747 q 800 874 818 839 q 751 933 782 908 q 678 972 719 958 q 592 986 638 986 q 403 931 489 986 q 254 789 317 876 q 156 593 192 701 q 121 376 121 485 q 140 234 121 299 q 196 122 160 169 q 282 49 232 75 q 393 24 332 24 q 584 81 508 24 q 671 247 660 139 q 721 332 679 329 q 754 293 754 332 q 728 183 754 239 q 654 79 701 126 q 540 2 607 32 q 394 -28 474 -28 q 235 2 304 -28 q 121 85 167 32 q 51 213 75 139 q 28 376 28 288 q 49 530 28 451 q 108 682 69 608 q 199 821 146 756 q 314 935 251 886 q 447 1013 376 985 q 592 1042 517 1042 q 665 1033 633 1042 q 721 1013 697 1024 q 761 994 744 1003 q 790 986 778 986 q 808 1010 800 986 q 833 1032 817 1032 z "},"":{"ha":1282,"x_min":19,"x_max":1442,"o":"m 760 875 q 776 856 776 875 q 753 769 776 836 l 647 478 q 609 374 626 419 q 576 292 592 329 q 544 220 561 254 q 506 151 526 186 q 421 37 465 83 q 329 -37 376 -10 q 231 -78 282 -65 q 126 -90 181 -90 q 19 -47 19 -90 q 68 -11 19 -11 q 119 -22 88 -11 q 188 -33 150 -33 q 311 3 249 -33 q 421 114 374 39 q 470 208 446 154 q 517 319 494 261 q 560 440 540 378 q 600 558 581 501 l 643 690 q 658 739 653 721 q 664 765 664 757 q 653 778 664 778 q 642 774 649 778 q 626 767 635 771 q 610 759 618 763 q 599 756 603 756 q 586 769 586 756 q 607 795 586 778 q 656 830 628 813 q 714 861 685 847 q 760 875 743 875 m 1225 875 q 1242 856 1242 875 q 1218 769 1242 836 l 1017 194 q 994 121 994 133 q 1010 101 994 101 q 1028 107 1018 101 q 1049 119 1039 113 q 1068 132 1060 126 q 1083 138 1076 138 q 1094 122 1094 138 q 1071 90 1094 110 q 1016 49 1047 69 q 953 15 985 29 q 906 0 921 0 q 882 26 882 0 q 885 53 882 38 q 897 93 889 69 l 1108 690 q 1125 738 1119 719 q 1131 765 1131 757 q 1118 778 1131 778 q 1090 767 1108 778 q 1064 756 1071 756 q 1051 769 1051 756 q 1072 795 1051 778 q 1121 831 1093 813 q 1178 862 1149 849 q 1225 875 1208 875 m 1315 1007 q 1349 1013 1333 1007 q 1379 1024 1365 1018 q 1405 1036 1393 1031 q 1428 1042 1417 1042 q 1442 1024 1442 1042 q 1429 1003 1442 1019 q 1399 970 1417 988 q 1365 938 1382 953 q 1338 924 1347 924 q 1198 932 1272 924 q 1023 950 1124 940 q 787 968 922 960 q 467 976 651 976 q 342 958 406 976 q 228 906 279 940 q 144 820 176 871 q 113 706 113 769 q 172 562 113 610 q 344 514 231 514 q 367 492 367 514 q 338 469 367 469 q 105 526 182 469 q 28 704 28 582 q 76 853 28 790 q 201 958 125 917 q 372 1021 278 1000 q 558 1042 467 1042 q 819 1036 700 1042 q 1033 1024 938 1031 q 1199 1013 1128 1018 q 1315 1007 1269 1007 m 1019 875 q 1035 861 1035 875 q 1029 842 1035 850 q 997 799 1013 821 q 966 744 982 776 q 932 664 950 711 q 890 546 914 617 l 797 267 q 764 186 786 232 q 715 99 742 140 q 660 28 689 57 q 608 0 632 0 q 593 13 593 0 q 608 40 593 25 q 670 135 640 68 q 732 299 700 203 l 835 606 q 874 696 849 649 q 928 783 900 743 q 981 849 956 822 q 1019 875 1006 875 z "},"":{"ha":1200,"x_min":28,"x_max":1301,"o":"m 1285 1042 q 1301 1022 1301 1042 q 1296 993 1301 1014 q 1278 936 1290 972 l 1143 542 q 1050 299 1099 414 q 938 97 1001 183 q 790 -40 874 11 q 594 -90 707 -90 q 488 -47 488 -90 q 536 -11 488 -11 q 587 -22 556 -11 q 656 -33 618 -33 q 790 9 732 -33 q 892 119 847 51 q 969 269 936 186 q 1028 432 1001 351 l 1024 432 q 800 351 914 351 q 715 389 747 351 q 682 483 682 426 q 697 567 682 524 q 726 650 713 610 l 788 829 q 796 863 793 846 q 799 900 799 881 q 772 947 799 928 q 705 976 746 965 q 615 992 664 988 q 521 996 565 996 q 386 976 457 996 q 256 919 315 957 q 156 828 196 882 q 117 706 117 774 q 344 514 117 514 q 367 492 367 514 q 338 469 367 469 q 105 526 182 469 q 28 704 28 582 q 51 803 28 757 q 112 886 74 849 q 200 952 150 924 q 305 1001 250 981 q 415 1031 360 1021 q 521 1042 471 1042 q 635 1037 569 1042 q 758 1019 700 1032 q 858 987 817 1007 q 899 938 899 967 q 869 829 899 914 l 806 651 q 774 553 783 590 q 765 496 765 517 q 851 410 765 410 q 1046 500 936 410 l 1182 896 q 1192 932 1192 922 q 1178 944 1192 944 q 1150 933 1168 944 q 1124 922 1132 922 q 1111 936 1111 922 q 1133 962 1111 944 q 1183 997 1154 979 q 1242 1028 1213 1015 q 1285 1042 1271 1042 z "},"":{"ha":1203,"x_min":28,"x_max":1200,"o":"m 1099 1196 q 1145 1188 1132 1196 q 1158 1165 1158 1181 q 1149 1135 1158 1147 q 1114 1122 1139 1122 q 992 1107 1039 1122 q 916 1060 946 1092 q 866 979 886 1028 q 824 864 846 931 l 619 244 q 612 217 615 232 q 608 194 608 201 q 634 142 608 163 q 735 121 660 121 q 871 152 813 121 q 972 233 929 183 q 1042 341 1014 282 q 1086 456 1069 400 q 1110 556 1103 511 q 1117 621 1117 601 q 1101 764 1117 703 q 1058 866 1085 825 q 996 927 1032 907 q 921 947 960 947 q 904 951 908 947 q 900 971 900 954 q 905 991 900 986 q 926 996 910 996 q 1024 976 975 996 q 1112 910 1072 956 q 1176 795 1151 865 q 1200 625 1200 725 q 1186 519 1200 579 q 1145 398 1172 460 q 1078 277 1118 336 q 986 172 1038 218 q 872 97 935 125 q 735 68 808 68 q 692 72 717 68 q 642 83 667 76 q 595 99 617 90 q 564 119 574 108 q 501 7 538 63 q 414 -92 465 -49 q 294 -163 363 -136 q 135 -190 225 -190 q 28 -147 28 -190 q 76 -111 28 -111 q 127 -122 96 -111 q 196 -133 158 -133 q 320 -110 271 -133 q 409 -33 369 -87 q 485 110 449 21 q 569 333 522 200 l 718 750 q 743 824 736 799 q 750 858 750 849 q 713 917 750 890 q 590 943 675 943 q 432 897 503 943 q 312 779 361 851 q 235 618 263 707 q 208 443 208 529 q 224 294 208 356 q 266 192 239 232 q 330 135 293 153 q 410 117 367 117 q 422 113 418 117 q 425 93 425 110 q 420 73 425 78 q 399 68 415 68 q 308 86 357 68 q 219 147 260 104 q 151 262 178 190 q 124 439 124 333 q 162 635 124 536 q 264 815 200 735 q 413 945 328 894 q 590 996 497 996 q 666 990 635 996 q 720 976 697 985 q 759 956 743 967 q 788 935 775 944 l 793 946 q 851 1040 817 994 q 925 1119 885 1085 q 1010 1175 965 1154 q 1099 1196 1054 1196 z "},"":{"ha":1150,"x_min":28,"x_max":1286,"o":"m 367 492 q 338 469 367 469 q 28 704 28 469 q 62 843 28 781 q 151 949 96 906 q 278 1017 207 993 q 425 1042 350 1042 q 797 746 714 1042 l 831 628 l 893 740 q 962 854 926 800 q 1039 950 997 908 q 1129 1017 1081 992 q 1235 1042 1178 1042 q 1286 999 1286 1042 q 1236 956 1286 956 q 1217 956 1229 956 q 1192 957 1204 957 q 1111 938 1147 957 q 1043 884 1075 918 q 981 803 1011 850 q 921 701 951 756 l 844 565 l 938 117 q 969 83 943 83 q 991 92 979 83 q 1014 112 1003 101 q 1035 131 1025 122 q 1050 140 1044 140 q 1074 118 1074 140 q 1053 88 1074 111 q 1003 38 1032 64 q 947 -8 975 13 q 903 -28 918 -28 q 864 25 875 -28 l 786 461 l 682 278 q 606 152 643 208 q 530 56 569 96 q 444 -6 490 17 q 339 -28 397 -28 q 288 15 289 -28 q 338 58 288 58 q 356 58 344 58 q 382 57 367 57 q 463 73 428 57 q 527 121 497 89 q 587 202 557 153 q 654 317 617 251 l 771 524 l 735 699 q 697 823 721 768 q 636 917 674 878 q 547 976 599 956 q 425 996 496 996 q 308 974 364 996 q 210 914 253 953 q 142 822 168 875 q 117 706 117 768 q 344 514 117 514 q 367 492 367 514 z "},"":{"ha":1239,"x_min":28,"x_max":1340,"o":"m 1324 1014 q 1340 994 1340 1014 q 1317 908 1340 972 l 1067 194 q 1050 144 1056 163 q 1044 121 1044 125 q 1060 100 1044 100 q 1095 117 1069 100 q 1151 154 1121 133 q 1211 192 1181 175 q 1263 208 1242 208 q 1286 181 1286 208 q 1276 103 1286 160 q 1242 -27 1267 46 q 1177 -179 1218 -100 q 1074 -324 1136 -258 q 928 -433 1013 -390 q 731 -476 843 -476 q 628 -465 678 -476 q 539 -433 578 -453 q 477 -386 500 -412 q 454 -331 454 -360 q 497 -287 454 -287 q 528 -297 515 -287 q 551 -322 540 -307 q 576 -354 563 -337 q 609 -386 589 -371 q 659 -411 629 -401 q 733 -421 689 -421 q 910 -391 838 -421 q 1036 -297 983 -361 q 1092 -199 1065 -261 q 1141 -75 1119 -137 q 1175 37 1163 -12 q 1188 96 1188 86 q 1171 117 1188 117 q 1133 99 1158 117 q 1077 58 1107 81 q 1015 18 1047 36 q 956 0 982 0 q 932 26 932 0 q 934 43 932 29 q 943 81 936 57 q 719 0 833 0 q 634 38 667 0 q 601 132 601 75 q 617 215 601 172 q 646 299 632 258 l 825 829 q 833 863 831 846 q 836 900 836 881 q 809 947 836 928 q 741 976 782 965 q 651 992 700 988 q 558 996 603 996 q 406 978 483 996 q 263 925 328 961 q 158 834 199 889 q 117 706 117 779 q 344 514 117 514 q 367 492 367 514 q 338 469 367 469 q 105 526 182 469 q 28 704 28 582 q 78 851 28 788 q 207 956 129 914 q 378 1020 285 999 q 558 1042 472 1042 q 686 1035 619 1042 q 808 1016 753 1029 q 900 983 864 1003 q 936 938 936 964 q 907 829 936 914 l 725 300 q 685 144 685 182 q 771 58 685 58 q 967 150 858 58 q 1060 410 1000 242 q 1207 829 1119 579 q 1228 904 1228 888 q 1217 917 1228 917 q 1205 913 1213 917 q 1189 906 1197 910 q 1174 898 1181 901 q 1163 894 1167 894 q 1150 908 1150 894 q 1173 936 1150 918 q 1225 972 1196 954 q 1283 1001 1254 989 q 1324 1014 1311 1014 z "},"":{"ha":1239,"x_min":28,"x_max":1340,"o":"m 1324 1014 q 1340 994 1340 1014 q 1317 908 1340 976 l 1067 194 q 1044 121 1044 133 q 1060 100 1044 100 q 1078 106 1068 100 q 1099 119 1089 111 q 1119 132 1110 126 q 1133 138 1128 138 q 1144 122 1144 138 q 1121 92 1144 113 q 1066 51 1097 72 q 1003 15 1035 31 q 956 0 972 0 q 932 26 932 0 q 942 57 932 28 q 966 130 951 86 q 998 226 981 174 q 1031 324 1015 278 q 1058 403 1047 369 q 1071 446 1068 438 q 847 365 961 365 q 762 403 794 365 q 729 497 729 440 q 737 545 729 514 q 757 615 744 576 q 783 696 769 653 q 808 778 796 739 q 828 849 821 817 q 836 900 836 882 q 810 947 836 928 q 742 976 783 965 q 652 992 701 988 q 558 996 603 996 q 399 978 478 996 q 257 925 319 961 q 156 834 194 889 q 117 706 117 779 q 344 514 117 514 q 367 492 367 514 q 338 469 367 469 q 105 529 182 469 q 28 704 28 589 q 76 851 28 788 q 201 956 125 914 q 372 1020 278 999 q 558 1042 467 1042 q 675 1037 610 1042 q 799 1019 740 1032 q 897 987 857 1007 q 936 938 936 967 q 927 891 936 922 q 904 819 918 860 q 874 732 890 778 q 844 643 858 686 q 822 565 831 600 q 813 510 813 529 q 899 424 813 424 q 1094 515 986 424 l 1207 829 q 1228 904 1228 888 q 1217 917 1228 917 q 1188 906 1206 917 q 1163 894 1171 894 q 1150 908 1150 894 q 1172 936 1150 918 q 1222 972 1193 954 q 1280 1001 1251 989 q 1324 1014 1308 1014 z "},"":{"ha":1597,"x_min":28,"x_max":1626,"o":"m 1610 990 q 1626 971 1626 990 q 1620 938 1626 961 q 1603 885 1614 915 l 1353 171 q 1331 97 1331 108 q 1346 76 1331 76 q 1365 82 1354 76 q 1385 95 1375 88 q 1405 108 1396 103 q 1419 114 1414 114 q 1431 99 1431 114 q 1407 69 1431 89 q 1352 28 1383 49 q 1290 -8 1321 7 q 1242 -24 1258 -24 q 1218 3 1218 -24 q 1229 57 1218 6 q 1146 -1 1188 22 q 1046 -24 1104 -24 q 989 -9 1017 -24 q 946 33 961 6 q 803 -24 869 -24 q 624 169 624 -24 q 663 351 624 239 l 825 829 q 833 863 831 846 q 836 900 836 881 q 810 947 836 928 q 742 976 783 965 q 652 992 701 988 q 558 996 603 996 q 406 978 483 996 q 263 925 328 961 q 158 834 199 889 q 117 706 117 779 q 344 514 117 514 q 367 492 367 514 q 338 469 367 469 q 28 704 28 469 q 78 851 28 788 q 207 956 129 914 q 378 1020 285 999 q 558 1042 472 1042 q 694 1035 626 1042 q 815 1015 761 1028 q 903 982 869 1001 q 936 938 936 963 q 907 829 936 914 l 742 353 q 716 260 725 303 q 707 182 707 218 q 711 116 707 144 q 728 69 715 88 q 764 42 740 51 q 825 33 788 33 q 931 78 867 33 q 928 92 929 85 q 928 108 928 100 q 942 185 928 140 q 972 275 957 229 l 1151 801 q 1167 851 1163 833 q 1171 876 1171 869 q 1160 889 1171 889 q 1131 878 1150 889 q 1106 867 1113 867 q 1093 881 1093 867 q 1115 910 1093 892 q 1167 944 1138 928 q 1226 974 1197 961 q 1267 986 1254 986 q 1283 967 1283 986 q 1278 938 1283 958 q 1260 881 1272 917 l 1051 276 q 1011 121 1011 158 q 1097 33 1011 33 q 1141 44 1118 33 q 1185 69 1164 54 q 1224 99 1206 83 q 1253 126 1242 115 q 1346 387 1286 218 q 1493 806 1406 556 q 1514 881 1514 864 q 1503 893 1514 893 q 1490 890 1499 893 q 1474 882 1482 886 q 1458 874 1465 878 q 1449 871 1451 871 q 1436 885 1436 871 q 1458 913 1436 894 q 1510 948 1481 931 q 1567 978 1539 965 q 1610 990 1596 990 z "},"":{"ha":1597,"x_min":28,"x_max":1626,"o":"m 1610 990 q 1626 971 1626 990 q 1620 938 1626 961 q 1603 885 1614 915 l 1353 171 q 1331 97 1331 108 q 1346 76 1331 76 q 1381 93 1356 76 q 1438 131 1407 110 q 1498 168 1468 151 q 1549 185 1528 185 q 1572 157 1572 185 q 1563 79 1572 136 q 1528 -51 1553 22 q 1463 -203 1504 -124 q 1360 -348 1422 -282 q 1214 -457 1299 -414 q 1017 -500 1129 -500 q 914 -488 964 -500 q 825 -456 864 -476 q 763 -410 786 -436 q 740 -354 740 -383 q 783 -311 740 -311 q 814 -321 801 -311 q 838 -346 826 -331 q 862 -378 849 -361 q 895 -410 875 -394 q 945 -435 915 -425 q 1019 -444 975 -444 q 1197 -415 1124 -444 q 1322 -321 1269 -385 q 1378 -223 1351 -285 q 1427 -99 1406 -161 q 1461 13 1449 -36 q 1474 72 1474 63 q 1457 93 1474 93 q 1419 75 1444 93 q 1363 35 1393 57 q 1301 -6 1333 13 q 1242 -24 1268 -24 q 1218 3 1218 -24 q 1220 19 1218 6 q 1229 57 1222 33 q 1146 -1 1188 22 q 1046 -24 1104 -24 q 989 -9 1017 -24 q 946 33 961 6 q 803 -24 869 -24 q 624 169 624 -24 q 663 351 624 239 l 825 829 q 833 863 831 846 q 836 900 836 881 q 810 947 836 928 q 742 976 783 965 q 652 992 701 988 q 558 996 603 996 q 406 978 483 996 q 263 925 328 961 q 158 834 199 889 q 117 706 117 779 q 344 514 117 514 q 367 492 367 514 q 338 469 367 469 q 28 704 28 469 q 78 851 28 788 q 207 956 129 914 q 378 1020 285 999 q 558 1042 472 1042 q 675 1037 610 1042 q 799 1019 740 1032 q 897 987 857 1007 q 936 938 936 967 q 907 829 936 914 l 742 353 q 716 260 725 303 q 707 182 707 218 q 711 116 707 144 q 728 69 715 88 q 764 42 740 51 q 825 33 788 33 q 931 78 867 33 q 928 92 929 85 q 928 108 928 100 q 942 187 928 143 q 972 275 957 231 l 1151 801 q 1167 851 1163 833 q 1171 876 1171 869 q 1160 889 1171 889 q 1131 878 1150 889 q 1106 867 1113 867 q 1093 881 1093 867 q 1116 910 1093 892 q 1169 944 1139 928 q 1227 974 1199 961 q 1267 986 1256 986 q 1283 967 1283 986 q 1278 938 1283 958 q 1260 881 1272 917 l 1051 276 q 1011 121 1011 158 q 1097 33 1011 33 q 1142 44 1119 33 q 1185 69 1164 54 q 1224 99 1206 83 q 1253 126 1242 115 q 1346 387 1286 218 q 1493 806 1406 556 q 1514 881 1514 864 q 1503 893 1514 893 q 1490 890 1499 893 q 1474 882 1482 886 q 1458 874 1465 878 q 1449 871 1451 871 q 1436 885 1436 871 q 1459 913 1436 894 q 1511 948 1482 931 q 1569 978 1540 965 q 1610 990 1597 990 z "},"":{"ha":1239,"x_min":28,"x_max":1172,"o":"m 754 621 q 673 560 706 597 q 617 469 640 522 q 602 472 610 469 q 594 485 594 475 q 610 531 594 503 q 650 590 625 560 q 708 646 675 619 q 776 686 740 672 l 825 829 q 833 863 831 846 q 836 900 836 881 q 810 947 836 928 q 742 976 783 965 q 652 992 701 988 q 558 996 603 996 q 406 978 485 996 q 261 924 326 960 q 154 833 196 888 q 113 706 113 779 q 172 563 113 610 q 344 515 232 515 q 367 492 367 515 q 338 469 367 469 q 105 526 182 469 q 28 704 28 582 q 78 851 28 788 q 207 956 129 914 q 378 1020 285 999 q 558 1042 472 1042 q 675 1037 610 1042 q 799 1019 740 1032 q 897 987 857 1007 q 936 938 936 967 q 907 829 936 914 l 863 699 q 897 703 876 703 q 994 689 944 703 q 1083 640 1043 675 q 1147 547 1122 606 q 1172 399 1172 488 q 1135 250 1172 324 q 1038 119 1099 176 q 901 26 978 61 q 743 -10 824 -10 q 642 30 682 -10 q 601 132 601 69 q 617 217 601 174 q 646 299 633 260 l 754 621 l 754 621 m 725 300 q 686 144 686 185 q 706 75 686 104 q 769 46 726 46 q 890 74 832 46 q 992 151 947 103 q 1064 263 1038 200 q 1090 396 1090 326 q 1072 513 1090 465 q 1022 589 1053 560 q 952 631 992 618 q 869 644 913 644 l 843 644 l 725 300 z "},"":{"ha":886,"x_min":79,"x_max":1088,"o":"m 239 621 q 101 469 146 578 q 87 472 94 469 q 79 485 79 475 q 92 531 79 503 q 129 588 106 558 q 187 644 153 617 q 261 686 221 671 l 286 760 q 297 789 290 771 q 309 825 303 807 q 320 858 315 843 q 325 876 325 872 q 314 889 325 889 q 286 878 304 889 q 260 867 268 867 q 247 881 247 867 q 269 908 247 890 q 322 944 292 926 q 380 974 351 961 q 421 986 408 986 q 438 967 438 986 q 414 881 438 944 l 347 699 q 382 703 361 703 q 478 689 429 703 q 567 640 528 675 q 632 547 607 606 q 657 399 657 488 q 619 251 657 324 q 522 119 582 178 q 384 26 461 61 q 228 -10 307 -10 q 126 30 167 -10 q 86 132 86 69 q 102 217 86 174 q 131 299 118 260 l 239 621 l 239 621 m 210 300 q 171 144 171 185 q 191 75 171 104 q 254 46 211 46 q 374 75 317 46 q 477 153 432 104 q 549 265 522 201 q 575 396 575 328 q 556 517 575 469 q 507 594 538 565 q 437 633 476 622 q 354 644 397 644 l 328 644 l 210 300 m 1071 986 q 1088 967 1088 986 q 1081 933 1088 957 q 1064 881 1075 910 l 819 185 q 797 111 797 121 q 813 92 797 92 q 833 97 822 92 q 853 110 843 103 q 872 122 864 117 q 886 128 881 128 q 897 113 897 128 q 874 81 897 101 q 820 41 851 61 q 757 6 789 21 q 708 -10 725 -10 q 685 17 685 -10 q 688 44 685 28 q 700 83 692 60 l 954 801 q 971 849 965 831 q 976 876 976 868 q 964 889 976 889 q 936 878 953 889 q 910 867 919 867 q 897 881 897 867 q 917 905 897 888 q 966 940 938 922 q 1024 972 994 958 q 1071 986 1053 986 z "},"":{"ha":732,"x_min":88,"x_max":665,"o":"m 247 621 q 110 469 154 578 q 95 472 103 469 q 88 485 88 475 q 101 531 88 503 q 138 588 114 558 q 195 644 161 617 q 269 686 229 671 l 294 760 q 305 789 299 771 q 317 825 311 807 q 328 858 324 843 q 333 876 333 872 q 322 889 333 889 q 294 878 313 889 q 268 867 276 867 q 256 881 256 867 q 278 908 256 890 q 330 944 300 926 q 388 974 360 961 q 429 986 417 986 q 446 967 446 986 q 422 881 446 944 l 356 699 q 390 703 369 703 q 487 689 438 703 q 576 640 536 675 q 640 547 615 606 q 665 399 665 488 q 628 251 665 324 q 530 119 590 178 q 392 26 469 61 q 236 -10 315 -10 q 135 30 175 -10 q 94 132 94 69 q 110 217 94 174 q 139 299 126 260 l 247 621 l 247 621 m 218 300 q 179 144 179 185 q 199 75 179 104 q 263 46 219 46 q 383 75 325 46 q 485 153 440 104 q 557 265 531 201 q 583 396 583 328 q 565 517 583 469 q 515 594 546 565 q 445 633 485 622 q 363 644 406 644 l 336 644 l 218 300 z "},"":{"ha":828,"x_min":28,"x_max":869,"o":"m 757 514 q 680 472 719 485 q 589 460 640 460 q 560 464 581 460 q 515 474 540 468 q 460 488 489 481 q 406 501 432 494 q 360 511 381 507 q 331 515 339 515 q 296 507 311 515 q 269 490 281 499 q 249 472 257 481 q 235 464 240 464 q 225 475 225 464 q 240 508 225 489 q 277 544 254 528 q 329 573 300 561 q 386 585 358 585 q 433 577 406 585 q 494 560 461 569 q 560 544 526 551 q 626 536 594 536 q 715 541 681 536 q 771 568 749 546 q 775 603 774 585 q 776 638 776 621 q 758 771 776 707 q 705 883 740 835 q 619 961 669 932 q 504 990 568 990 q 314 933 390 990 q 226 767 238 876 q 176 682 218 685 q 143 721 143 682 q 169 832 143 775 q 244 935 196 889 q 358 1012 292 982 q 503 1042 424 1042 q 660 1013 592 1042 q 776 930 729 983 q 846 802 822 876 q 869 638 869 728 q 848 485 869 564 q 788 333 826 407 q 698 193 750 258 q 583 78 646 128 q 449 1 519 29 q 306 -28 379 -28 q 213 -18 261 -28 q 123 14 164 -8 q 55 73 82 36 q 28 164 28 110 q 35 228 28 215 q 53 242 42 242 q 72 229 68 242 q 79 192 76 217 q 103 124 82 154 q 157 73 125 94 q 228 40 189 51 q 306 28 267 28 q 467 69 389 28 q 607 179 544 110 q 713 338 669 249 q 768 526 756 428 l 757 514 z "},"":{"ha":1731,"x_min":21,"x_max":1781,"o":"m 928 558 q 999 746 951 658 q 1114 899 1047 833 q 1264 1003 1181 965 q 1442 1042 1347 1042 q 1588 1011 1525 1042 q 1694 927 1651 981 q 1758 802 1736 874 q 1781 647 1781 731 q 1766 501 1781 571 q 1722 376 1751 432 q 1649 278 1693 319 q 1547 214 1606 236 q 1502 126 1536 169 q 1422 48 1468 82 q 1322 -7 1375 14 q 1219 -28 1268 -28 q 1090 6 1149 -28 q 991 93 1032 39 q 928 216 950 147 q 906 356 906 285 q 908 419 906 388 q 915 482 910 450 q 790 478 871 479 q 717 270 761 372 q 615 88 674 168 q 481 -41 556 8 q 314 -90 406 -90 q 263 -69 263 -90 q 303 -49 263 -49 q 449 -6 386 -49 q 559 106 513 36 q 640 268 606 176 q 701 458 674 360 q 626 431 669 458 q 538 358 582 403 q 518 372 518 358 q 540 410 518 383 q 593 466 561 438 q 662 519 625 494 q 731 550 699 543 l 818 829 q 826 864 824 847 q 829 900 829 881 q 808 940 829 922 q 751 971 788 958 q 663 990 714 983 q 551 996 611 996 q 399 978 476 996 q 256 925 321 961 q 151 834 192 889 q 110 706 110 779 q 338 514 110 514 q 360 492 360 514 q 331 469 360 469 q 98 532 175 469 q 21 704 21 594 q 72 851 21 788 q 200 956 122 914 q 372 1020 278 999 q 551 1042 465 1042 q 668 1037 603 1042 q 792 1019 733 1032 q 890 987 850 1007 q 929 938 929 967 q 900 829 929 922 l 815 558 l 928 558 m 1014 574 q 1074 597 1051 585 q 1109 618 1096 608 q 1129 634 1122 628 q 1143 640 1136 640 q 1158 636 1154 640 q 1163 619 1163 632 q 1144 582 1163 601 q 1101 546 1126 563 q 1048 516 1076 529 q 999 497 1019 503 q 990 392 990 444 q 1006 258 990 324 q 1053 142 1021 193 q 1135 59 1086 90 q 1253 28 1185 28 q 1353 50 1310 28 q 1424 110 1396 72 q 1467 199 1453 149 q 1482 307 1482 250 q 1519 589 1482 506 q 1544 629 1528 607 q 1580 672 1560 651 q 1622 706 1600 692 q 1660 719 1643 719 q 1674 704 1674 719 q 1664 692 1674 701 q 1641 671 1654 683 q 1615 642 1628 658 q 1596 610 1601 626 q 1579 526 1583 574 q 1575 408 1575 479 q 1570 314 1575 350 q 1558 263 1565 278 q 1622 308 1596 276 q 1666 381 1649 339 q 1691 474 1683 424 q 1699 575 1699 524 q 1682 724 1699 650 q 1631 854 1665 797 q 1543 947 1596 911 q 1418 982 1490 982 q 1270 949 1335 982 q 1157 860 1206 917 q 1073 731 1108 804 q 1014 574 1038 657 z "},"":{"ha":1156,"x_min":10,"x_max":1133,"o":"m 406 467 q 442 512 422 489 q 483 554 463 535 q 526 586 504 574 q 567 599 547 599 q 613 585 593 599 q 633 526 633 572 l 635 526 l 686 671 q 703 725 700 711 q 707 746 707 739 q 696 758 707 758 q 667 747 683 758 q 642 736 651 736 q 629 750 629 736 q 651 776 629 758 q 701 812 672 794 q 758 842 729 829 q 803 856 788 856 q 819 836 819 856 q 796 750 819 815 l 601 194 q 579 121 579 133 q 594 100 579 100 q 613 106 601 100 q 634 119 624 111 q 654 132 644 126 q 668 138 664 138 q 679 122 679 138 q 656 91 679 111 q 601 51 632 71 q 538 15 569 31 q 490 0 507 0 q 467 26 467 0 q 470 53 467 38 q 482 93 474 69 l 621 485 l 618 485 q 581 452 603 465 q 533 431 558 439 q 485 418 508 422 q 444 414 461 414 q 359 292 396 344 q 294 200 322 239 q 245 134 265 161 q 208 88 225 107 q 152 27 181 54 q 99 0 124 0 q 72 27 88 0 q 43 89 57 54 q 19 154 29 124 q 10 193 10 185 q 15 209 10 201 q 26 217 19 217 q 40 201 32 217 q 56 165 47 185 q 73 130 64 146 q 92 114 82 114 q 171 183 108 114 q 203 219 186 200 q 242 266 219 239 q 296 331 265 293 q 369 421 326 368 q 279 480 315 446 q 221 553 243 514 q 190 635 199 593 q 181 721 181 678 q 216 843 181 785 q 310 945 251 901 q 446 1015 369 989 q 603 1042 522 1042 q 792 1021 697 1042 q 963 958 886 1000 q 1086 849 1039 915 q 1133 694 1133 783 q 1113 583 1133 633 q 1061 494 1093 533 q 990 424 1029 454 q 913 376 950 394 q 844 347 875 357 q 796 338 813 338 q 776 342 781 338 q 771 360 771 346 q 781 376 771 369 q 815 389 790 382 q 985 498 921 419 q 1050 694 1050 576 q 1011 829 1050 772 q 908 923 972 886 q 765 978 844 960 q 603 996 685 996 q 465 974 528 996 q 358 915 403 953 q 290 822 314 876 q 265 703 265 768 q 406 467 265 511 m 467 467 q 512 469 489 467 q 553 480 535 472 q 585 499 572 488 q 597 529 597 511 q 589 551 597 542 q 565 560 581 560 q 520 538 542 560 q 467 467 499 515 z "},"":{"ha":590,"x_min":11,"x_max":539,"o":"m 361 57 q 165 -21 283 -21 q 11 106 11 -21 q 24 172 11 136 q 58 240 38 207 q 107 301 79 274 q 164 342 135 328 q 160 374 160 358 q 177 438 160 407 q 224 491 194 468 q 293 528 254 514 q 376 542 332 542 q 539 383 539 542 q 522 314 539 360 l 444 101 q 433 68 433 71 q 450 51 433 51 q 465 56 454 51 q 486 66 475 61 q 506 76 497 71 q 519 81 515 81 q 531 67 531 81 q 513 41 531 54 q 472 16 496 28 q 424 -3 449 4 q 388 -10 400 -10 q 356 21 356 -10 q 361 57 356 36 m 346 381 q 251 355 296 381 q 173 290 207 329 q 119 206 139 251 q 99 122 99 161 q 113 49 99 74 q 181 24 128 24 q 277 50 231 24 q 358 118 324 76 q 414 210 393 160 q 435 307 435 260 q 346 381 435 381 m 229 383 q 364 418 290 418 q 423 407 400 418 q 467 372 446 396 q 471 392 469 383 q 472 407 472 400 q 443 474 472 449 q 367 500 414 500 q 270 465 308 500 q 229 383 232 431 z "},"":{"ha":543,"x_min":25,"x_max":664,"o":"m 375 542 q 468 506 431 542 q 506 389 506 469 q 485 265 506 325 q 413 129 465 204 q 358 60 385 89 q 303 14 331 32 q 245 -12 275 -4 q 181 -21 215 -21 q 121 -8 149 -21 q 72 29 93 6 q 38 85 50 53 q 25 158 25 118 q 34 260 25 203 q 60 377 43 317 q 101 499 76 438 q 160 615 126 561 q 278 762 213 704 q 411 819 344 819 q 447 815 429 819 q 483 804 464 810 q 523 794 501 799 q 569 789 544 789 q 608 796 596 789 q 626 811 619 803 q 636 826 632 819 q 651 833 640 833 q 660 832 656 833 q 664 825 664 831 q 652 779 664 797 q 622 751 640 761 q 585 735 604 740 q 550 731 565 731 q 502 735 525 731 q 458 747 479 740 q 418 758 438 753 q 382 763 399 763 q 324 751 349 763 q 269 699 300 739 q 240 649 253 675 q 215 588 226 622 q 192 512 203 554 q 169 415 182 469 q 260 507 210 472 q 375 542 311 542 m 110 167 q 114 122 110 147 q 129 76 118 97 q 158 40 140 54 q 206 25 176 25 q 285 54 242 25 q 371 151 328 83 q 398 210 388 179 q 413 272 408 240 q 419 333 418 303 q 421 390 421 364 q 400 471 421 446 q 347 496 379 496 q 271 469 313 496 q 194 397 229 442 q 134 292 158 351 q 110 167 110 232 z "},"":{"ha":497,"x_min":24,"x_max":525,"o":"m 418 304 q 477 269 451 297 q 503 199 503 242 q 476 110 503 150 q 406 40 449 69 q 309 -5 363 11 q 201 -21 256 -21 q 69 29 114 -21 q 24 167 24 79 q 50 297 24 231 q 122 418 76 364 q 225 507 167 472 q 349 542 283 542 q 481 519 436 542 q 525 439 525 497 q 492 360 525 394 q 418 311 460 326 l 418 304 l 418 304 m 108 225 q 116 120 108 160 q 139 60 124 81 q 175 32 154 39 q 224 25 196 25 q 296 37 261 25 q 358 69 331 49 q 401 119 385 90 q 418 182 418 147 q 400 247 418 226 q 342 267 382 267 q 275 258 315 267 q 192 240 235 249 l 108 225 l 108 225 m 333 496 q 255 477 292 496 q 189 426 218 458 q 140 352 160 394 q 114 263 121 310 l 303 304 q 440 429 440 335 q 413 480 440 464 q 333 496 385 496 z "},"":{"ha":456,"x_min":38,"x_max":424,"o":"m 361 142 q 375 126 375 142 q 365 86 375 107 q 331 42 356 65 q 249 -6 294 10 q 151 -21 204 -21 q 69 8 100 -21 q 38 89 38 36 q 51 152 38 124 q 84 205 64 181 q 129 249 104 229 q 179 288 154 269 q 235 328 207 308 q 287 366 264 347 q 324 403 310 385 q 339 442 339 422 q 323 485 339 475 q 279 496 307 496 q 212 482 243 496 q 153 444 181 468 q 134 428 139 433 q 122 424 129 424 q 110 438 110 424 q 171 506 110 472 q 201 521 186 514 q 233 532 215 528 q 275 539 251 536 q 332 542 299 542 q 356 537 340 542 q 386 520 371 532 q 413 490 401 508 q 424 444 424 471 q 406 390 424 415 q 360 342 388 365 q 298 297 332 318 q 231 253 264 275 q 173 208 194 228 q 140 171 151 189 q 126 135 129 153 q 122 99 122 118 q 140 38 122 50 q 185 25 157 25 q 259 44 221 25 q 326 106 297 63 q 361 142 350 142 z "},"":{"ha":593,"x_min":38,"x_max":561,"o":"m 458 458 q 465 494 461 469 q 471 544 468 518 q 475 593 474 569 q 476 626 476 617 q 463 713 476 681 q 431 762 450 744 q 392 784 413 779 q 357 789 371 789 q 294 778 317 789 q 258 755 272 768 q 233 731 243 742 q 204 721 222 721 q 195 727 197 721 q 193 738 193 733 q 243 802 193 771 q 386 833 293 833 q 444 824 413 833 q 501 794 475 815 q 544 736 526 772 q 561 646 561 700 q 549 515 561 588 q 514 369 536 443 q 459 224 492 294 q 387 100 426 154 q 301 13 347 46 q 203 -21 254 -21 q 38 164 38 -21 q 62 281 38 218 q 128 399 86 344 q 226 489 169 453 q 346 525 282 525 q 403 507 376 525 q 457 458 431 489 l 458 458 m 446 413 q 403 458 429 438 q 346 479 376 479 q 276 458 315 479 q 203 397 238 438 q 146 297 169 357 q 122 161 122 238 q 151 60 122 94 q 215 25 179 25 q 294 60 257 25 q 363 151 332 96 q 416 276 394 207 q 446 413 438 346 z "},"":{"ha":497,"x_min":24,"x_max":475,"o":"m 111 136 q 224 25 124 25 q 381 86 315 25 q 408 108 403 108 q 424 92 424 108 q 406 61 424 79 q 201 -21 326 -21 q 69 29 114 -21 q 24 167 24 79 q 50 302 24 235 q 122 423 76 369 q 225 509 167 476 q 349 542 283 542 q 475 428 475 542 q 444 320 475 372 q 361 227 413 268 q 244 161 310 186 q 111 136 179 136 m 107 174 q 218 191 165 174 q 311 240 271 208 q 376 314 351 271 q 400 410 400 357 q 333 496 400 496 q 239 467 281 496 q 168 394 197 439 q 123 294 139 349 q 107 186 107 239 l 107 174 l 107 174 z "},"":{"ha":1107,"x_min":-15,"x_max":1122,"o":"m 535 346 l 701 807 q 722 889 722 863 q 708 901 722 901 q 695 897 703 901 q 679 889 688 893 q 665 881 671 885 q 654 876 658 876 q 639 892 639 876 q 659 919 639 903 q 706 950 679 935 q 760 976 733 965 q 800 986 788 986 q 822 967 822 986 q 810 919 822 954 l 565 239 l 778 425 q 894 514 836 475 q 1017 553 953 553 q 1051 548 1033 553 q 1085 535 1069 543 q 1112 514 1101 526 q 1122 485 1122 501 q 1093 451 1122 451 q 1065 460 1074 451 q 1048 478 1056 468 q 1031 498 1040 489 q 1001 507 1021 507 q 808 375 894 507 q 732 158 732 256 q 749 69 732 101 q 799 36 767 36 q 838 42 817 36 q 878 60 858 49 q 915 86 899 71 q 940 118 931 101 q 978 157 963 157 q 989 139 989 157 q 972 89 989 115 q 925 40 954 63 q 858 4 896 18 q 776 -10 819 -10 q 676 32 713 -10 q 640 136 640 74 q 658 226 640 175 q 696 317 676 278 l 693 317 l 539 167 l 499 53 q 472 10 490 29 q 429 -10 454 -10 q 414 1 417 -10 q 418 21 414 6 q 429 53 422 36 l 508 272 l 317 104 q 200 20 254 50 q 90 -10 146 -10 q 56 -5 74 -10 q 22 8 38 0 q -5 29 6 17 q -15 58 -15 42 q 14 92 -15 92 q 42 83 32 92 q 59 63 51 74 q 76 44 67 53 q 106 36 86 36 q 210 73 161 36 q 297 163 260 110 q 354 277 333 217 q 375 385 375 338 q 358 474 375 442 q 308 507 340 507 q 269 501 290 507 q 228 483 247 494 q 192 456 208 471 q 167 425 175 442 q 129 386 146 386 q 118 404 118 386 q 135 456 118 429 q 180 503 151 482 q 247 539 208 525 q 331 553 286 553 q 431 511 394 553 q 467 407 467 469 q 448 316 467 367 q 408 225 429 265 l 411 225 l 535 346 z "},"":{"ha":497,"x_min":-46,"x_max":475,"o":"m 283 176 q 348 142 319 167 q 389 81 376 117 q 407 90 399 88 q 418 92 415 92 q 428 85 425 92 q 431 69 431 78 q 423 56 431 64 q 401 43 415 47 q 406 -6 406 22 q 380 -136 406 -69 q 310 -257 354 -203 q 208 -346 267 -311 q 81 -381 149 -381 q -46 -267 -46 -381 q -24 -177 -46 -221 q 35 -96 -1 -133 q 120 -31 72 -58 q 218 13 168 -3 l 315 42 q 206 136 297 136 q 143 129 167 136 q 117 122 119 122 q 113 135 114 122 q 111 156 111 147 q 122 164 111 163 q 224 192 174 174 q 313 242 274 211 q 376 314 351 272 q 400 410 400 356 q 333 496 400 496 q 252 474 285 496 q 204 413 219 453 q 187 378 197 394 q 161 363 176 363 q 138 373 153 363 q 124 403 124 383 q 135 433 124 417 q 174 476 150 457 q 228 510 199 496 q 288 533 257 525 q 349 542 319 542 q 475 428 475 542 q 460 358 475 394 q 419 287 444 321 q 358 224 393 253 q 283 176 322 194 m 319 3 q 208 -28 261 -8 q 116 -80 156 -49 q 53 -153 76 -111 q 29 -249 29 -194 q 96 -335 29 -335 q 192 -306 150 -335 q 263 -233 233 -278 q 307 -133 292 -187 q 322 -25 322 -78 q 319 3 322 -11 z "},"":{"ha":542,"x_min":15,"x_max":550,"o":"m 238 542 q 260 522 260 542 q 253 489 260 508 q 238 446 247 469 l 114 129 q 101 74 101 96 q 131 43 101 43 q 194 56 160 43 q 259 91 228 69 q 315 141 290 113 q 351 200 339 169 l 461 479 q 469 499 465 490 q 476 513 472 507 q 487 522 479 517 q 503 531 494 526 q 520 539 511 536 q 535 542 529 542 q 550 531 550 542 q 533 479 550 525 l 401 129 q 387 89 392 103 q 382 71 382 75 q 396 54 382 54 q 416 59 406 54 q 436 69 426 64 q 453 78 446 74 q 465 83 461 83 q 479 69 479 83 q 461 43 479 57 q 418 18 443 29 q 367 0 393 7 q 326 -7 342 -7 q 300 21 300 -7 q 303 54 300 40 q 314 86 307 68 q 265 46 292 64 q 203 13 239 28 q 64 -21 129 -21 q 15 38 17 -21 q 33 121 15 72 l 144 417 q 153 444 153 439 q 142 457 153 457 q 128 453 138 457 q 110 444 119 449 q 94 436 101 440 q 83 432 86 432 q 68 447 68 432 q 88 476 68 460 q 136 506 108 492 q 192 531 164 521 q 238 542 221 542 z "},"":{"ha":542,"x_min":15,"x_max":550,"o":"m 238 542 q 260 522 260 542 q 253 489 260 508 q 238 446 247 469 l 114 129 q 101 74 101 96 q 131 43 101 43 q 194 56 160 43 q 259 91 228 69 q 315 141 290 113 q 351 200 339 169 l 461 479 q 469 499 465 490 q 476 513 472 507 q 487 522 479 517 q 503 531 494 526 q 520 539 511 536 q 535 542 529 542 q 550 531 550 542 q 533 479 550 525 l 401 129 q 387 89 392 103 q 382 71 382 75 q 396 54 382 54 q 416 59 406 54 q 436 69 426 64 q 453 78 446 74 q 465 83 461 83 q 479 69 479 83 q 461 43 479 57 q 418 18 443 29 q 367 0 393 7 q 326 -7 342 -7 q 300 21 300 -7 q 303 54 300 40 q 314 86 307 68 q 265 46 292 64 q 203 13 239 28 q 64 -21 129 -21 q 15 38 17 -21 q 33 121 15 72 l 144 417 q 153 444 153 439 q 142 457 153 457 q 128 453 138 457 q 110 444 119 449 q 94 436 101 440 q 83 432 86 432 q 68 447 68 432 q 88 476 68 460 q 136 506 108 492 q 192 531 164 521 q 238 542 221 542 m 503 775 q 514 756 514 775 q 501 719 514 740 q 469 681 489 699 q 422 650 449 663 q 367 638 396 638 q 326 647 347 638 q 306 668 306 657 q 338 710 306 678 q 378 744 372 744 q 385 740 382 744 q 394 731 389 736 q 406 721 399 725 q 426 717 414 717 q 463 728 446 717 q 486 761 481 740 q 503 775 490 775 z "},"":{"ha":549,"x_min":-6,"x_max":593,"o":"m 119 167 l 79 53 q 53 10 72 31 q 10 -10 35 -10 q -6 1 -3 -10 q -1 20 -6 6 q 10 53 3 35 l 122 363 q 143 444 143 418 q 129 457 143 457 q 100 444 118 457 q 75 432 82 432 q 60 447 60 432 q 80 474 60 458 q 127 506 100 490 q 181 531 154 521 q 221 542 208 542 q 243 522 243 542 q 231 475 243 510 l 146 239 l 372 439 q 554 542 490 542 q 593 510 593 542 q 569 481 593 485 q 536 478 553 478 q 503 474 519 478 q 449 451 475 467 q 394 411 422 435 l 293 319 l 390 99 q 426 58 410 58 q 442 63 435 58 q 456 74 449 68 q 470 85 464 81 q 482 90 476 90 q 499 67 499 90 q 485 47 499 60 q 453 21 472 33 q 414 -1 435 8 q 379 -10 393 -10 q 332 39 353 -10 l 236 268 l 119 167 z "},"":{"ha":613,"x_min":7,"x_max":592,"o":"m 346 461 q 294 444 314 451 q 260 436 274 436 q 243 457 243 436 q 254 473 243 464 q 285 488 265 482 l 464 533 q 502 540 479 538 q 540 542 525 542 q 592 483 589 542 q 571 400 592 451 l 454 101 q 443 68 443 75 q 460 51 443 51 q 476 56 467 51 q 496 66 486 61 q 515 76 506 71 q 529 81 524 81 q 540 67 540 81 q 526 45 540 58 q 490 19 511 32 q 443 -1 468 7 q 397 -10 418 -10 q 365 21 365 -10 q 388 101 365 40 l 492 392 q 503 428 499 411 q 508 457 508 446 q 501 477 508 472 q 471 482 493 482 q 438 480 458 482 q 397 474 418 478 l 292 231 q 240 120 264 165 q 192 46 215 75 q 145 3 169 17 q 92 -10 121 -10 q 31 11 56 -10 q 7 56 7 32 q 14 79 7 67 q 40 92 21 92 q 60 85 54 92 q 71 69 67 78 q 80 54 75 61 q 97 47 85 47 q 127 53 114 47 q 157 82 140 60 q 197 147 174 104 q 254 264 219 190 l 346 461 l 346 461 z "},"":{"ha":826,"x_min":7,"x_max":806,"o":"m 393 542 q 432 442 432 542 l 432 186 q 436 134 432 146 q 447 122 440 122 q 501 192 457 122 l 649 425 q 714 510 683 479 q 781 542 744 542 q 806 522 806 542 q 801 504 806 515 q 793 475 797 493 l 715 165 q 702 111 707 132 q 697 88 697 90 q 708 75 697 75 q 738 88 719 75 q 763 100 756 100 q 778 85 778 100 q 759 60 778 76 q 715 29 740 44 q 665 2 690 14 q 625 -10 639 -10 q 603 10 606 -10 q 606 34 603 18 q 613 67 608 50 l 700 419 l 693 419 l 492 96 q 437 25 464 50 q 379 0 410 0 q 361 20 368 0 q 354 86 354 40 q 355 117 354 92 q 357 176 356 142 q 360 250 358 211 q 364 324 363 289 q 366 385 365 358 q 367 419 367 411 l 365 419 l 292 231 q 243 119 267 165 q 195 45 219 74 q 146 3 171 17 q 92 -10 121 -10 q 31 11 56 -10 q 7 56 7 32 q 14 79 7 67 q 40 92 21 92 q 60 85 54 92 q 71 69 67 78 q 80 54 75 61 q 97 47 85 47 q 128 53 114 47 q 161 81 143 60 q 201 146 179 103 q 254 264 224 189 l 319 421 q 326 438 325 433 q 328 446 328 443 q 314 457 328 457 q 266 444 285 457 q 239 432 247 432 q 224 447 224 432 q 243 473 224 457 q 290 504 263 489 q 345 531 317 519 q 393 542 374 542 z "},"":{"ha":576,"x_min":21,"x_max":572,"o":"m 267 542 q 289 522 289 542 q 283 489 289 507 q 265 446 276 471 l 200 285 q 233 303 215 296 q 279 311 251 311 l 353 311 q 403 319 381 311 q 433 343 426 328 l 485 479 q 499 510 494 503 q 511 522 503 517 q 534 535 521 529 q 558 542 547 542 q 572 528 572 542 q 556 476 572 522 l 424 126 q 410 89 415 106 q 404 68 404 72 q 418 51 404 51 q 437 56 426 51 q 458 66 447 61 q 476 76 468 71 q 488 81 485 81 q 501 67 501 81 q 483 40 501 54 q 439 15 464 26 q 388 -3 414 4 q 349 -10 363 -10 q 322 18 322 -10 q 326 52 322 38 q 336 83 329 67 l 410 279 q 321 254 372 254 l 258 254 q 201 242 224 254 q 172 215 178 229 l 107 53 q 80 9 96 28 q 36 -10 64 -10 q 21 1 24 -10 q 36 53 21 10 l 150 364 q 176 444 176 433 q 165 457 176 457 q 153 453 161 457 q 136 444 144 449 q 121 436 128 440 q 111 432 114 432 q 96 447 96 432 q 115 473 96 457 q 160 504 133 489 q 217 531 188 519 q 267 542 246 542 z "},"":{"ha":578,"x_min":38,"x_max":546,"o":"m 363 542 q 438 527 404 542 q 496 486 472 513 q 533 425 519 460 q 546 350 546 390 q 521 219 546 285 q 452 100 496 153 q 347 13 408 47 q 215 -21 286 -21 q 142 -6 175 -21 q 87 34 110 8 q 51 94 64 60 q 38 167 38 128 q 66 308 38 240 q 140 427 94 375 q 244 510 186 479 q 363 542 303 542 m 347 496 q 254 468 296 496 q 183 397 213 440 q 137 298 153 353 q 121 189 121 243 q 127 126 121 156 q 148 74 133 97 q 184 38 163 51 q 238 25 206 25 q 333 54 292 25 q 403 128 375 83 q 447 229 432 174 q 463 338 463 285 q 456 395 463 367 q 436 446 450 424 q 400 482 422 468 q 347 496 378 496 z "},"":{"ha":556,"x_min":21,"x_max":551,"o":"m 289 522 q 265 446 289 492 q 324 486 292 468 q 390 517 357 504 q 451 535 422 529 q 500 542 479 542 q 551 483 551 542 q 531 400 551 451 l 414 101 q 403 68 403 74 q 419 51 403 51 q 434 56 424 51 q 455 66 444 61 q 475 76 465 71 q 489 81 485 81 q 500 67 500 81 q 483 41 500 54 q 442 17 465 28 q 394 -2 418 6 q 357 -10 369 -10 q 325 21 325 -10 q 347 101 325 40 l 451 392 q 465 447 465 429 q 431 478 465 478 q 369 464 403 478 q 305 427 336 450 q 249 376 274 404 q 213 321 224 349 l 107 53 q 89 19 100 35 q 36 -10 69 -7 q 21 1 24 -10 q 36 53 21 10 l 150 364 q 176 444 176 433 q 165 457 176 457 q 137 444 154 457 q 111 432 119 432 q 96 447 96 432 q 115 473 96 457 q 160 504 133 489 q 217 531 188 519 q 267 542 246 542 q 289 522 289 542 z "},"":{"ha":556,"x_min":-194,"x_max":539,"o":"m 239 446 q 429 542 326 542 q 539 406 539 542 q 525 322 539 368 q 486 228 511 276 q 427 136 461 181 q 352 56 393 92 q 264 0 311 21 q 168 -21 217 -21 q 82 15 101 -21 l 40 -83 q -62 -262 -10 -203 q -167 -321 -115 -321 q -194 -308 -194 -321 q -165 -286 -194 -286 q -94 -231 -131 -286 q -22 -71 -58 -176 l 125 363 q 142 417 136 397 q 149 444 147 438 q 138 457 149 457 q 108 444 126 457 q 83 432 90 432 q 68 447 68 432 q 88 474 68 457 q 135 505 108 490 q 192 531 163 519 q 239 542 221 542 q 261 522 261 542 q 255 490 261 511 q 238 446 249 469 l 239 446 m 383 478 q 284 438 331 478 q 203 340 238 397 q 149 218 169 282 q 129 107 129 154 q 199 24 129 24 q 283 56 238 24 q 366 140 328 88 q 429 257 404 192 q 454 389 454 322 q 383 478 454 478 z "},"":{"ha":479,"x_min":24,"x_max":494,"o":"m 349 542 q 398 538 372 542 q 445 528 424 535 q 481 511 467 522 q 494 486 494 500 q 463 440 494 440 q 415 467 433 440 q 333 496 396 496 q 239 467 281 496 q 168 393 197 438 q 123 293 139 349 q 107 186 107 238 q 113 124 107 154 q 133 72 119 94 q 169 37 147 50 q 224 24 192 24 q 263 31 242 24 q 303 49 283 38 q 340 75 324 60 q 365 107 357 90 q 403 146 386 146 q 414 128 414 146 q 398 80 414 106 q 353 32 382 54 q 286 -6 325 10 q 201 -21 247 -21 q 131 -6 164 -21 q 74 34 99 8 q 37 94 50 60 q 24 167 24 128 q 52 307 24 239 q 126 427 81 375 q 231 510 172 479 q 349 542 289 542 z "},"":{"ha":771,"x_min":7,"x_max":753,"o":"m 253 542 q 275 522 275 542 q 251 446 275 492 q 293 476 264 460 q 358 508 322 493 q 432 532 394 522 q 499 542 469 542 q 533 522 533 542 q 525 485 533 507 q 701 542 615 542 q 753 483 753 542 q 732 400 753 451 l 618 108 q 604 68 604 74 q 621 51 604 51 q 636 56 626 51 q 656 66 646 61 q 676 76 667 71 q 690 81 686 81 q 701 67 701 81 q 686 44 701 57 q 649 19 671 31 q 603 -1 628 7 q 558 -10 578 -10 q 526 21 526 -10 q 549 101 526 40 l 653 392 q 667 447 667 429 q 632 476 667 476 q 572 465 604 476 q 500 425 539 453 l 351 53 q 324 10 342 29 q 279 -10 307 -10 q 265 1 265 -10 q 269 19 265 6 q 281 53 272 32 l 394 364 q 426 457 426 453 q 404 476 426 476 q 308 439 372 476 q 199 321 225 388 l 93 53 q 66 10 83 29 q 21 -10 49 -10 q 7 1 7 -10 q 10 19 7 6 q 22 53 14 32 l 136 364 q 163 444 163 433 q 151 457 163 457 q 138 453 146 457 q 123 444 131 449 q 108 436 115 440 q 97 432 101 432 q 82 447 82 432 q 101 473 82 457 q 148 504 121 489 q 204 531 175 519 q 253 542 233 542 z "},"":{"ha":607,"x_min":-53,"x_max":592,"o":"m 279 542 q 301 522 301 542 q 295 488 301 507 q 279 446 289 469 l 156 129 q 143 74 143 100 q 172 43 143 43 q 248 62 211 43 q 317 110 285 81 q 373 176 349 140 q 411 246 397 213 l 503 479 q 519 512 513 503 q 543 531 525 521 q 576 542 565 542 q 592 531 592 542 q 575 479 592 525 l 431 97 q 365 -69 397 7 q 294 -201 332 -144 q 210 -288 257 -257 q 100 -319 163 -319 q 58 -312 83 -319 q 8 -292 32 -306 q -35 -261 -17 -279 q -53 -222 -53 -243 q -17 -183 -53 -183 q 7 -199 -4 -183 q 31 -231 18 -214 q 63 -264 44 -249 q 108 -279 81 -279 q 186 -257 153 -279 q 248 -190 219 -235 q 302 -76 276 -144 q 357 88 328 -7 l 356 88 q 298 41 329 61 q 233 7 267 21 q 167 -14 200 -7 q 106 -21 135 -21 q 57 38 57 -21 q 75 121 57 72 l 186 417 q 194 444 194 435 q 183 457 194 457 q 170 453 179 457 q 152 444 161 449 q 135 436 143 440 q 125 432 128 432 q 110 447 110 432 q 130 474 110 458 q 177 506 150 490 q 233 531 204 521 q 279 542 261 542 z "},"":{"ha":839,"x_min":38,"x_max":807,"o":"m 539 483 q 616 527 576 513 q 692 542 656 542 q 726 533 706 542 q 764 507 746 525 q 794 462 782 489 q 807 396 807 435 q 776 254 807 328 q 697 119 746 181 q 585 19 647 58 q 457 -21 522 -21 q 407 -10 429 -21 q 374 15 385 1 l 332 -83 q 122 -321 232 -321 q 94 -308 94 -321 q 124 -286 94 -286 q 165 -262 143 -286 q 208 -206 188 -239 q 244 -135 228 -172 q 269 -71 261 -99 l 303 36 q 153 -21 226 -21 q 119 -12 139 -21 q 81 13 99 -4 q 50 58 63 31 q 38 125 38 86 q 67 260 38 188 q 144 396 96 333 q 256 500 193 458 q 388 542 319 542 q 427 535 408 542 q 458 519 446 529 l 550 807 q 574 889 574 882 q 563 901 574 901 q 549 897 557 901 q 533 889 542 893 q 518 881 525 885 q 507 876 511 876 q 493 892 493 876 q 513 920 493 904 q 560 951 533 936 q 617 976 588 965 q 664 986 646 986 q 686 967 686 986 q 611 714 686 956 q 581 613 593 654 q 560 544 568 571 q 547 502 551 517 q 539 483 542 488 m 417 88 q 434 36 417 47 q 467 25 451 25 q 563 56 517 25 q 644 137 608 86 q 701 255 679 188 q 722 396 722 322 q 701 458 722 440 q 643 476 679 476 q 574 451 606 476 q 518 388 543 426 q 474 304 493 350 q 442 215 454 258 q 423 138 429 172 q 417 88 417 103 m 428 433 q 410 485 428 474 q 378 496 393 496 q 288 468 333 496 q 206 391 243 440 q 146 274 169 342 q 122 125 122 206 q 139 64 122 83 q 201 44 156 44 q 274 68 242 44 q 331 128 306 92 q 374 210 356 165 q 405 299 393 256 q 422 378 417 343 q 428 433 428 414 z "},"":{"ha":510,"x_min":-54,"x_max":542,"o":"m 225 542 q 253 508 246 542 l 282 363 l 290 376 q 503 542 389 542 q 542 510 542 542 q 506 482 542 482 q 490 483 496 482 q 468 485 483 485 q 314 344 400 485 l 293 310 l 333 106 q 363 65 342 65 q 379 72 371 65 q 396 85 388 78 q 411 98 404 92 q 422 104 418 104 q 439 83 439 104 q 424 60 439 76 q 390 29 410 44 q 348 2 369 14 q 313 -10 326 -10 q 269 50 282 -10 l 236 215 l 199 156 q 149 81 172 113 q 102 30 126 50 q 49 0 78 10 q -15 -10 21 -10 q -54 22 -54 -10 q -18 50 -54 50 q -4 49 -14 50 q 19 47 6 47 q 174 183 92 47 l 225 268 l 192 431 q 168 475 183 475 q 127 464 149 475 q 99 453 106 453 q 83 472 83 453 q 101 491 83 479 q 144 514 119 503 q 191 533 168 525 q 225 542 214 542 z "},"":{"ha":549,"x_min":15,"x_max":550,"o":"m 238 542 q 260 522 260 542 q 253 489 260 507 q 238 446 247 471 l 114 129 q 101 74 101 97 q 131 43 101 43 q 239 79 175 43 q 351 200 322 126 l 461 479 q 470 501 467 493 q 478 514 474 508 q 488 523 482 519 q 501 531 493 526 q 535 542 524 542 q 550 531 550 542 q 533 479 550 525 l 401 129 q 387 89 392 103 q 382 71 382 75 q 396 54 382 54 q 427 65 408 54 q 464 88 446 75 q 497 112 482 101 q 517 122 511 122 q 531 104 531 122 q 520 24 531 68 q 490 -64 510 -19 q 444 -151 471 -108 q 383 -228 417 -194 q 309 -281 349 -261 q 226 -301 269 -301 q 93 -264 143 -301 q 62 -236 74 -250 q 50 -204 50 -222 q 62 -176 50 -185 q 88 -167 74 -167 q 103 -172 94 -167 q 119 -190 113 -178 q 168 -247 143 -228 q 235 -265 193 -265 q 363 -191 297 -265 q 465 33 428 -117 q 468 43 468 42 q 465 47 468 47 q 444 38 461 47 q 407 19 428 29 q 365 -1 386 8 q 328 -10 343 -10 q 300 21 300 -10 q 302 53 300 40 q 314 86 304 65 q 269 51 300 74 q 203 13 239 28 q 64 -21 129 -21 q 15 38 17 -21 q 33 121 15 72 l 144 417 q 153 444 153 435 q 142 457 153 457 q 128 453 136 457 q 111 444 119 449 q 95 436 103 440 q 83 432 88 432 q 68 447 68 432 q 89 476 68 460 q 138 506 110 492 q 194 531 167 521 q 238 542 222 542 z "},"":{"ha":481,"x_min":15,"x_max":476,"o":"m 185 542 q 207 522 207 542 q 199 486 207 507 q 185 446 192 465 l 133 311 q 121 256 121 278 q 150 225 121 225 q 206 240 175 225 q 265 277 236 254 q 316 328 293 300 q 350 382 339 356 l 388 479 q 403 514 397 506 q 428 531 410 522 q 461 542 450 542 q 476 531 476 542 q 460 479 476 525 l 328 129 q 314 91 319 107 q 308 71 308 75 q 322 54 308 54 q 362 69 343 54 q 392 83 381 83 q 406 69 406 83 q 390 48 406 61 q 352 22 375 35 q 302 1 329 10 q 253 -7 275 -7 q 226 21 226 -7 q 228 49 226 38 q 238 78 231 61 l 307 267 l 304 267 q 259 228 286 247 q 202 194 232 208 q 141 170 172 179 q 83 161 110 161 q 35 219 35 161 q 53 303 35 254 l 92 417 q 97 433 94 426 q 100 444 100 439 q 89 457 100 457 q 75 453 83 457 q 58 444 67 449 q 42 436 50 440 q 31 432 35 432 q 15 447 15 432 q 35 474 15 458 q 83 506 56 490 q 140 531 111 521 q 185 542 168 542 z "},"":{"ha":779,"x_min":14,"x_max":775,"o":"m 208 542 q 240 511 240 542 q 218 431 240 492 l 114 140 q 103 106 107 121 q 100 85 100 90 q 108 60 100 65 q 129 56 117 56 q 181 72 151 56 q 240 110 211 88 q 293 160 269 133 q 325 211 317 188 l 431 479 q 449 513 438 497 q 503 542 469 542 q 517 531 517 542 q 513 513 517 526 q 501 479 510 500 l 388 168 q 356 75 356 83 q 378 56 356 56 q 435 71 403 56 q 497 110 467 86 q 550 160 526 133 q 583 211 574 188 l 689 479 q 707 513 696 497 q 761 542 728 542 q 775 531 775 542 q 772 513 775 526 q 760 479 768 500 l 646 168 q 619 88 619 97 q 631 75 619 75 q 643 79 635 75 q 660 88 651 83 q 675 96 668 92 q 685 100 682 100 q 700 85 700 100 q 681 59 700 75 q 635 28 661 43 q 585 1 610 13 q 550 -10 560 -10 q 515 -2 522 -10 q 507 17 507 6 q 513 48 507 28 q 536 99 518 68 q 483 56 515 75 q 416 22 451 36 q 347 -1 381 7 q 290 -10 314 -10 q 257 -1 265 -10 q 249 19 249 8 q 253 51 249 33 q 269 83 258 68 q 210 47 240 64 q 149 18 179 31 q 93 -2 119 6 q 46 -10 67 -10 q 20 9 26 -10 q 14 49 14 28 q 35 132 14 79 l 151 431 q 159 451 156 442 q 163 464 163 461 q 146 481 163 481 q 130 476 139 481 q 110 466 121 471 q 91 456 100 461 q 76 451 82 451 q 65 465 65 451 q 82 491 65 478 q 122 515 99 504 q 169 534 144 526 q 208 542 193 542 z "},"":{"ha":771,"x_min":14,"x_max":771,"o":"m 208 542 q 240 511 240 542 q 218 431 240 492 l 114 140 q 100 85 100 103 q 106 63 100 69 q 129 56 111 56 q 176 69 147 56 q 235 106 206 83 q 289 156 264 129 q 325 211 314 183 l 431 479 q 458 524 442 507 q 503 542 475 542 q 517 531 517 542 q 513 513 517 526 q 501 479 510 500 l 388 168 q 356 75 356 79 q 376 56 356 56 q 426 69 396 56 q 485 105 456 83 q 541 154 515 126 q 578 211 567 182 l 682 479 q 696 510 692 503 q 710 524 700 517 q 756 542 739 542 q 771 531 771 542 q 754 479 771 525 l 628 140 q 613 100 618 114 q 608 82 608 86 q 622 65 608 65 q 653 76 635 65 q 690 99 672 86 q 723 123 708 113 q 743 133 738 133 q 757 115 757 133 q 747 35 757 79 q 717 -53 736 -8 q 670 -140 697 -97 q 609 -217 643 -183 q 535 -270 575 -250 q 453 -290 496 -290 q 389 -283 421 -290 q 332 -262 357 -275 q 292 -232 307 -250 q 276 -193 276 -214 q 288 -165 276 -174 q 314 -156 300 -156 q 330 -161 321 -156 q 346 -179 339 -167 q 394 -235 369 -217 q 461 -254 419 -254 q 530 -233 499 -254 q 588 -180 561 -212 q 633 -109 614 -147 q 667 -37 653 -71 q 688 22 681 -3 q 694 54 694 47 q 692 58 694 58 q 672 48 688 58 q 635 24 656 38 q 592 1 614 11 q 556 -10 571 -10 q 534 3 542 -10 q 526 32 526 17 q 529 65 526 50 q 540 97 532 79 q 429 23 492 56 q 290 -10 367 -10 q 257 -1 265 -10 q 249 19 249 8 q 253 48 249 33 q 269 83 258 63 q 209 47 240 64 q 148 17 178 29 q 91 -3 118 4 q 46 -10 64 -10 q 20 9 26 -10 q 14 49 14 28 q 35 132 14 79 l 151 431 q 163 464 163 457 q 146 481 163 481 q 131 476 140 481 q 110 466 121 471 q 90 456 100 461 q 76 451 81 451 q 65 465 65 451 q 82 491 65 478 q 122 515 99 504 q 169 534 144 526 q 208 542 193 542 z "},"":{"ha":635,"x_min":4,"x_max":581,"o":"m 244 -21 q 122 117 122 -21 q 127 173 122 142 q 149 238 132 204 q 212 350 183 308 q 260 416 240 392 q 292 451 281 440 q 303 474 303 463 q 297 479 303 479 q 270 473 289 479 q 207 467 251 467 q 169 471 188 467 q 125 475 150 475 q 85 467 106 475 q 40 435 64 458 q 21 417 22 417 q 4 426 4 417 q 17 456 4 436 q 51 494 31 475 q 98 527 72 513 q 149 542 124 542 q 222 534 192 542 q 283 526 251 526 q 326 529 307 526 q 363 532 346 532 q 372 530 369 532 q 375 517 375 528 q 369 498 375 508 q 351 467 364 488 q 315 414 338 447 q 258 325 292 381 l 260 325 q 364 395 313 374 q 457 417 415 417 q 549 376 517 417 q 581 278 581 336 q 552 172 581 225 q 476 76 524 119 q 369 6 429 33 q 244 -21 308 -21 m 419 365 q 342 344 382 365 q 269 290 301 324 q 215 210 236 256 q 194 115 194 165 q 274 25 194 25 q 365 49 324 25 q 435 110 406 74 q 480 186 464 146 q 496 260 496 226 q 478 342 496 318 q 419 365 461 365 z "},"":{"ha":732,"x_min":38,"x_max":732,"o":"m 225 542 q 247 522 247 542 q 238 488 247 515 q 215 426 228 460 q 190 363 201 393 q 174 325 178 333 q 285 399 235 382 q 372 417 336 417 q 465 376 435 417 q 496 278 496 336 q 467 172 496 225 q 392 76 439 119 q 284 6 344 33 q 160 -21 224 -21 q 38 117 38 -21 q 64 238 38 168 l 117 379 q 138 444 138 435 q 126 457 138 457 q 97 444 115 457 q 71 432 78 432 q 56 447 56 432 q 76 474 56 457 q 123 505 96 490 q 178 531 150 519 q 225 542 207 542 m 339 365 q 260 344 300 365 q 186 287 219 322 q 131 206 153 251 q 110 115 110 161 q 188 25 110 25 q 279 49 238 25 q 350 110 321 74 q 395 186 379 146 q 411 260 411 226 q 396 342 411 318 q 339 365 381 365 m 707 542 q 732 522 732 542 q 719 475 732 510 l 606 161 q 589 110 594 129 q 582 88 583 92 q 593 75 582 75 q 622 88 604 75 q 647 100 640 100 q 663 85 663 100 q 643 60 663 76 q 597 28 624 44 q 546 1 571 13 q 510 -10 521 -10 q 488 10 490 -10 q 499 57 488 24 l 608 363 q 631 444 631 424 q 615 457 631 457 q 586 444 604 457 q 561 432 568 432 q 546 447 546 432 q 565 473 546 457 q 611 504 585 489 q 665 531 638 519 q 707 542 692 542 z "},"":{"ha":550,"x_min":38,"x_max":496,"o":"m 225 542 q 247 522 247 542 q 238 488 247 515 q 215 426 228 460 q 190 363 201 393 q 174 325 178 333 q 285 399 235 382 q 372 417 336 417 q 465 376 435 417 q 496 278 496 336 q 467 172 496 225 q 392 76 439 119 q 284 6 344 33 q 160 -21 224 -21 q 38 117 38 -21 q 64 238 38 168 l 117 379 q 138 444 138 435 q 126 457 138 457 q 97 444 115 457 q 71 432 78 432 q 56 447 56 432 q 76 474 56 457 q 123 505 96 490 q 178 531 150 519 q 225 542 207 542 m 339 365 q 260 344 300 365 q 186 287 219 322 q 131 206 153 251 q 110 115 110 161 q 188 25 110 25 q 279 49 238 25 q 350 110 321 74 q 395 186 379 146 q 411 260 411 226 q 396 342 411 318 q 339 365 381 365 z "},"":{"ha":479,"x_min":22,"x_max":493,"o":"m 407 299 q 409 322 408 307 q 410 354 410 336 q 403 403 410 378 q 382 449 396 428 q 346 483 368 469 q 293 496 324 496 q 251 489 272 496 q 210 470 229 482 q 175 443 190 458 q 151 413 160 428 q 114 374 131 374 q 103 378 108 374 q 99 392 99 382 q 116 440 99 414 q 163 488 133 465 q 232 526 193 511 q 314 542 271 542 q 384 528 351 542 q 441 489 417 514 q 479 429 465 464 q 493 353 493 394 q 468 222 493 289 q 399 101 443 156 q 296 13 356 47 q 168 -22 236 -22 q 51 0 92 -22 q 29 15 36 8 q 22 33 22 22 q 54 79 22 79 q 101 53 83 79 q 183 24 119 24 q 261 42 226 24 q 323 92 296 61 q 369 165 350 124 q 401 250 389 206 q 365 225 383 232 q 319 218 346 218 q 299 222 313 218 q 268 229 285 225 q 237 237 251 233 q 214 240 222 240 q 173 231 192 240 q 139 221 154 221 q 131 228 133 221 q 129 242 129 235 q 139 256 129 246 q 163 277 149 267 q 193 295 176 288 q 224 303 210 303 q 280 292 254 303 q 339 282 306 282 q 383 285 369 282 q 407 299 396 288 z "},"":{"ha":794,"x_min":4,"x_max":763,"o":"m 579 542 q 655 527 621 542 q 713 486 689 513 q 749 425 736 460 q 763 350 763 390 q 738 222 763 288 q 670 102 714 156 q 565 14 626 49 q 432 -21 504 -21 q 362 -6 394 -21 q 305 34 329 8 q 267 94 281 60 q 254 167 254 128 q 267 260 254 214 l 233 260 q 186 244 211 260 q 156 215 161 229 l 90 53 q 63 9 79 28 q 19 -10 47 -10 q 4 1 7 -10 q 19 53 4 10 l 133 364 q 160 444 160 433 q 149 457 160 457 q 135 453 143 457 q 119 444 128 449 q 105 436 111 440 q 94 432 99 432 q 79 447 79 432 q 99 474 79 458 q 147 506 119 490 q 203 531 175 521 q 250 542 232 542 q 272 522 272 542 q 266 489 272 507 q 249 446 260 471 l 183 285 q 215 300 199 296 q 249 304 231 304 l 281 304 q 331 396 300 353 q 402 472 363 439 q 487 523 442 504 q 579 542 532 542 m 564 496 q 472 467 514 496 q 398 393 429 438 q 349 294 367 349 q 332 189 332 240 q 340 127 332 157 q 363 74 347 97 q 402 38 379 51 q 454 25 425 25 q 549 54 507 25 q 619 128 590 83 q 664 229 649 174 q 679 338 679 285 q 673 395 679 367 q 653 446 667 424 q 617 482 639 468 q 564 496 594 496 z "},"":{"ha":468,"x_min":-107,"x_max":471,"o":"m 199 215 l 71 39 q 31 3 53 15 q -6 -10 8 -10 q -34 -1 -17 -10 q -67 19 -51 7 q -95 44 -83 31 q -107 67 -107 57 q -100 85 -107 79 q -85 90 -93 90 q -74 85 -79 90 q -63 74 -69 81 q -51 63 -57 68 q -37 58 -44 58 q -12 65 -28 58 q 21 93 3 72 l 140 232 q 77 283 104 250 q 50 368 50 317 q 63 424 50 394 q 106 481 76 454 q 183 524 136 507 q 300 542 231 542 q 349 540 319 542 q 405 537 378 539 q 451 531 432 535 q 471 522 471 526 q 469 504 471 513 q 460 479 467 496 l 328 129 q 312 85 315 97 q 308 71 308 74 q 322 54 308 54 q 342 59 331 54 q 363 69 353 64 q 381 78 372 74 q 392 83 389 83 q 406 69 406 83 q 388 45 406 58 q 347 20 371 32 q 297 1 322 8 q 253 -7 271 -7 q 226 21 226 -7 q 231 58 226 42 q 238 80 232 61 q 251 122 243 99 q 268 172 260 146 q 283 215 276 197 l 199 215 m 394 496 q 370 501 385 499 q 342 503 356 503 q 274 495 310 503 q 208 470 238 488 q 158 425 178 453 q 139 356 139 397 q 152 299 139 319 q 186 269 165 279 q 232 258 207 260 q 279 256 257 256 l 300 256 l 394 496 z "},"":{"ha":1638,"x_min":28,"x_max":1571,"o":"m 1571 399 q 1533 250 1571 324 q 1435 119 1496 176 q 1297 26 1374 61 q 1142 -10 1221 -10 q 1087 3 1118 -10 q 1038 32 1056 15 q 1013 64 1022 47 q 1003 103 1003 81 q 1007 161 1001 132 q 1021 219 1013 190 q 1038 278 1029 249 q 1054 338 1047 308 l 1149 607 q 1114 579 1131 596 q 1078 538 1094 561 q 1060 515 1063 515 q 1046 521 1053 517 q 1040 535 1039 525 q 1079 596 1044 551 q 1121 638 1097 619 q 1171 669 1144 656 l 1228 829 q 1249 904 1249 888 q 1242 917 1249 917 q 1224 913 1235 917 q 1206 904 1214 908 q 1147 871 1178 890 q 1085 820 1117 851 q 1024 742 1054 789 q 964 628 993 696 q 855 400 904 489 q 790 288 806 311 q 399 -11 600 -11 q 245 19 310 -11 q 122 111 181 49 q 28 314 28 211 q 61 353 28 353 q 111 268 101 353 q 186 117 124 179 q 389 44 263 44 q 473 54 435 44 q 547 88 511 64 q 617 151 582 113 q 690 249 651 190 q 738 323 713 282 q 788 409 763 364 q 836 503 813 454 q 879 601 860 551 q 954 753 915 693 q 1035 851 993 813 q 1122 912 1076 889 q 1218 954 1168 935 q 1166 960 1203 956 q 1080 969 1129 964 q 976 978 1031 974 q 869 987 921 983 q 774 993 817 990 q 708 996 732 996 q 460 929 564 996 q 333 706 333 850 q 558 514 333 514 q 581 492 581 514 q 551 469 581 469 q 244 704 244 469 q 406 960 244 864 q 708 1042 542 1042 q 860 1038 772 1042 q 1039 1028 949 1033 q 1212 1019 1129 1024 q 1346 1015 1294 1015 l 1344 1014 q 1361 994 1361 1014 q 1338 908 1361 979 l 1264 700 q 1279 703 1271 703 q 1296 703 1288 703 q 1392 689 1343 703 q 1481 640 1442 675 q 1546 547 1521 606 q 1571 399 1571 488 m 1244 644 l 1113 267 q 1091 192 1097 222 q 1085 144 1085 161 q 1105 75 1085 104 q 1168 46 1125 46 q 1288 74 1231 46 q 1391 151 1346 103 q 1463 263 1436 200 q 1489 396 1489 326 q 1470 519 1489 471 q 1421 594 1451 567 q 1351 633 1390 622 q 1268 644 1311 644 l 1244 644 z "},"":{"ha":899,"x_min":7,"x_max":867,"o":"m 408 117 q 435 238 408 168 l 492 392 q 508 457 508 435 q 501 477 508 472 q 471 482 493 482 q 438 480 458 482 q 397 474 418 478 l 292 231 q 240 120 264 165 q 192 46 215 75 q 145 3 169 17 q 92 -10 121 -10 q 31 11 56 -10 q 7 56 7 32 q 14 79 7 67 q 40 92 21 92 q 60 85 54 92 q 71 69 67 78 q 80 54 75 61 q 97 47 85 47 q 127 53 114 47 q 157 82 140 60 q 197 147 174 104 q 254 264 219 190 l 346 461 q 294 444 314 451 q 260 436 274 436 q 243 457 243 436 q 254 473 243 464 q 285 488 265 482 l 464 533 q 502 540 479 538 q 540 542 525 542 q 592 483 589 542 q 585 447 592 468 q 571 400 579 425 l 544 325 q 656 399 606 382 q 743 417 707 417 q 834 376 801 417 q 867 278 867 336 q 838 172 867 225 q 763 76 810 119 q 655 6 715 33 q 531 -21 594 -21 q 408 117 408 -21 m 499 208 q 481 115 481 164 q 558 25 481 25 q 650 49 608 25 q 721 110 692 74 q 766 186 750 146 q 782 260 782 226 q 767 342 782 318 q 710 365 751 365 q 651 351 683 365 q 590 315 619 338 q 535 265 560 293 q 499 208 511 238 z "},"":{"ha":1618,"x_min":28,"x_max":1551,"o":"m 1551 399 q 1514 250 1551 324 q 1415 119 1476 176 q 1278 26 1354 61 q 1122 -10 1201 -10 q 1067 3 1099 -10 q 1018 32 1036 15 q 993 64 1003 47 q 983 103 983 81 q 999 219 983 160 q 1035 338 1015 279 l 1107 546 q 953 485 1024 497 q 890 480 933 482 q 797 478 846 478 q 663 151 743 285 q 321 -90 518 -90 q 269 -69 269 -90 q 310 -49 269 -49 q 571 114 464 -49 q 708 458 647 232 q 599 406 656 453 q 574 385 583 393 q 557 369 564 376 q 544 358 550 363 q 525 372 525 358 q 594 461 525 394 q 738 550 668 531 l 825 829 q 833 864 831 847 q 836 900 836 881 q 764 968 836 943 q 676 989 726 982 q 558 996 625 996 q 271 929 397 996 q 117 706 117 850 q 344 514 117 514 q 367 492 367 514 q 338 469 367 469 q 105 526 182 469 q 28 704 28 582 q 211 960 28 864 q 558 1042 368 1042 q 829 1011 719 1042 q 936 938 933 981 q 907 829 936 922 l 822 558 q 1051 583 974 558 q 1151 671 1128 610 l 1207 829 q 1228 904 1228 888 q 1217 917 1228 917 q 1207 915 1214 917 q 1189 906 1200 913 q 1163 894 1172 894 q 1150 908 1150 894 q 1224 971 1150 928 q 1324 1014 1293 1011 q 1340 994 1340 1014 q 1335 963 1340 985 q 1317 908 1331 942 l 1235 699 q 1255 702 1242 701 q 1276 703 1268 703 q 1373 689 1324 703 q 1462 640 1422 675 q 1526 547 1501 606 q 1551 399 1551 488 m 1225 644 l 1093 267 q 1072 191 1078 221 q 1065 144 1065 161 q 1085 75 1065 104 q 1149 46 1106 46 q 1269 74 1211 46 q 1372 151 1326 103 q 1443 263 1417 200 q 1469 396 1469 326 q 1451 519 1469 471 q 1401 594 1432 567 q 1331 633 1371 622 q 1249 644 1292 644 l 1225 644 z "},"":{"ha":857,"x_min":21,"x_max":825,"o":"m 367 117 q 393 238 367 168 l 410 279 q 321 254 372 254 l 258 254 q 201 242 224 254 q 172 215 178 229 l 107 53 q 81 10 97 28 q 36 -10 64 -7 q 21 1 24 -10 q 36 53 21 10 l 150 364 q 176 444 176 433 q 165 457 176 457 q 155 453 163 457 q 138 444 147 449 q 120 436 128 440 q 111 432 113 432 q 96 447 96 432 q 118 476 96 460 q 169 506 140 492 q 226 531 199 521 q 267 542 254 542 q 289 522 289 542 q 283 489 289 507 q 265 446 276 471 l 200 285 q 233 303 215 296 q 279 311 251 311 l 353 311 q 403 319 381 311 q 433 343 426 328 l 485 479 q 510 522 493 503 q 558 542 528 542 q 572 528 572 542 q 567 510 572 526 q 556 476 563 493 l 503 325 q 615 399 564 382 q 701 417 665 417 q 792 376 760 417 q 825 278 825 336 q 797 172 825 225 q 721 76 768 119 q 613 6 674 33 q 489 -21 553 -21 q 367 117 367 -21 m 457 208 q 439 115 439 164 q 517 25 439 25 q 608 49 567 25 q 679 110 650 74 q 724 186 708 146 q 740 260 740 226 q 725 342 740 318 q 668 365 710 365 q 610 351 642 365 q 548 315 578 338 q 494 265 518 293 q 457 208 469 238 z "},"":{"ha":892,"x_min":0,"x_max":869,"o":"m 369 7 q 527 33 458 7 q 642 109 596 60 q 713 226 689 158 q 736 378 736 294 q 722 480 736 431 q 671 576 707 529 q 613 649 643 613 q 551 721 583 685 q 488 864 488 800 q 533 991 488 940 q 657 1042 579 1042 q 754 1018 711 1042 q 796 996 794 996 q 802 999 797 996 q 810 1014 807 1003 q 833 1032 815 1032 q 865 989 857 1032 q 869 888 869 965 q 847 785 869 785 q 819 835 819 785 q 806 896 819 867 q 769 947 792 925 q 717 983 747 969 q 657 996 688 996 q 592 969 619 996 q 565 901 565 942 q 632 765 565 844 q 715 666 685 703 q 753 617 746 629 q 819 394 819 517 q 787 215 819 294 q 695 78 754 135 q 553 -8 636 22 q 368 -37 469 -37 q 222 -19 289 -37 q 105 38 154 0 q 28 134 56 76 q 0 269 0 192 q 57 451 0 374 q 208 574 114 529 q 308 606 275 606 q 332 586 331 606 q 294 561 332 571 q 140 462 199 533 q 82 289 82 390 q 154 81 82 156 q 369 7 226 7 z "},"":{"ha":808,"x_min":-76,"x_max":908,"o":"m 329 492 q 300 469 329 469 q 195 484 244 469 q 108 528 146 499 q 49 602 71 558 q 28 704 28 646 q 77 846 28 783 q 201 952 126 908 q 363 1019 275 996 q 531 1042 451 1042 q 646 1037 581 1042 q 769 1019 711 1032 q 868 987 828 1007 q 908 938 908 967 q 879 829 908 913 l 685 275 q 594 69 649 172 q 470 -119 539 -35 q 319 -257 401 -204 q 147 -310 238 -310 q 54 -292 96 -310 q -17 -242 13 -274 q -61 -166 -46 -210 q -76 -72 -76 -122 q -52 51 -76 -14 q 16 181 -28 117 q 122 306 60 246 q 259 410 183 365 q 422 483 335 456 q 606 510 510 510 q 647 472 647 510 q 589 443 647 443 q 410 418 492 443 q 265 351 329 393 q 152 257 200 310 q 72 148 104 204 q 23 38 39 92 q 7 -61 7 -17 q 154 -258 7 -258 q 297 -212 229 -258 q 420 -94 364 -167 q 521 69 476 -21 q 596 246 565 158 l 797 829 q 808 900 808 863 q 782 947 808 928 q 715 976 756 965 q 624 992 674 988 q 531 996 575 996 q 383 975 457 996 q 251 916 310 954 q 154 824 192 878 q 117 706 117 771 q 169 566 117 618 q 307 514 222 514 q 329 492 328 514 z "},"":{"ha":236,"x_min":-272,"x_max":340,"o":"m -249 -279 q 14 63 -110 -279 l 121 363 q 143 444 143 424 q 128 457 143 457 q 99 444 119 457 q 74 432 78 432 q 58 447 58 432 q 125 503 58 465 q 219 542 190 542 q 244 522 244 542 q 232 475 244 510 l 86 68 q -122 -265 0 -169 q -242 -317 -189 -317 q -272 -300 -272 -317 q -249 -279 -272 -279 m 246 725 q 233 740 233 733 q 268 781 233 747 q 310 813 304 813 q 329 793 319 813 q 340 751 338 779 q 294 646 340 693 q 222 604 257 608 q 203 615 206 603 q 217 632 203 628 q 258 693 258 642 q 246 725 258 714 z "},"":{"ha":260,"x_min":-12,"x_max":328,"o":"m 207 542 q 232 522 232 542 q 219 475 232 510 l 106 161 q 89 110 94 129 q 82 88 83 92 q 93 75 82 75 q 122 88 104 75 q 147 100 140 100 q 163 85 163 100 q 143 60 163 76 q 97 28 124 44 q 46 1 71 13 q 10 -10 21 -10 q -12 10 -10 -10 q -1 57 -12 24 l 108 363 q 131 444 131 424 q 115 457 131 457 q 86 444 104 457 q 61 432 68 432 q 46 447 46 432 q 65 473 46 457 q 111 504 85 489 q 165 531 138 519 q 207 542 192 542 m 297 813 q 318 790 308 813 q 328 742 328 767 q 317 697 328 721 q 288 651 306 672 q 249 617 269 631 q 207 604 228 604 q 190 615 190 604 q 204 632 190 628 q 246 693 246 642 q 242 713 246 706 q 233 725 238 721 q 225 732 229 729 q 221 740 221 735 q 256 781 221 747 q 297 813 290 813 z "},"":{"ha":236,"x_min":-12,"x_max":354,"o":"m 108 363 q 131 444 131 424 q 115 457 131 457 q 86 444 107 457 q 61 432 65 432 q 46 447 47 432 q 113 503 46 465 q 207 542 178 542 q 232 522 232 542 q 219 475 232 510 l 106 161 q 89 110 94 129 q 82 88 83 92 q 93 75 82 75 q 122 88 101 75 q 147 100 143 100 q 163 85 163 100 q 97 29 163 68 q 10 -10 36 -10 q -12 10 -10 -10 q -1 57 -12 24 l 108 363 m 71 618 q 56 661 56 646 q 81 699 56 671 q 113 725 103 725 q 136 693 119 725 q 153 651 153 661 q 129 615 153 642 q 96 593 104 593 q 71 618 88 593 m 272 618 q 257 661 257 646 q 282 699 257 671 q 314 725 304 725 q 338 693 319 725 q 354 651 353 661 q 331 615 354 642 q 297 593 306 593 q 272 618 289 593 z "},"":{"ha":457,"x_min":-19,"x_max":418,"o":"m 69 219 q 48 177 57 201 q 39 124 39 153 q 76 46 39 75 q 165 17 113 17 q 321 157 321 17 q 243 292 321 210 q 165 438 165 372 q 197 512 165 482 q 276 542 229 542 q 341 532 318 542 q 367 522 364 522 q 380 532 372 522 q 396 542 388 542 q 413 518 407 542 q 418 454 418 494 q 403 381 418 381 q 385 413 385 381 q 378 449 385 431 q 358 481 371 467 q 328 503 346 494 q 292 511 311 511 q 233 458 233 511 q 274 382 233 426 l 349 300 q 378 249 367 281 q 389 189 389 217 q 326 37 389 90 q 158 -17 263 -17 q 90 -8 122 -17 q 34 18 58 0 q -5 62 10 36 q -19 124 -19 88 q -14 160 -19 142 q 1 195 -8 179 q 22 222 10 211 q 47 232 35 232 q 69 219 67 232 z "},"":{"ha":904,"x_min":28,"x_max":965,"o":"m 643 551 q 676 551 663 551 q 699 550 690 551 l 797 829 q 806 862 803 844 q 808 900 808 879 q 736 968 808 943 q 648 988 699 982 q 531 996 597 994 q 257 929 374 996 q 117 706 117 850 q 344 514 117 514 q 367 492 367 514 q 338 469 367 469 q 28 704 29 469 q 199 960 28 865 q 531 1042 343 1042 q 801 1011 692 1042 q 908 938 906 981 q 879 829 908 913 l 782 551 q 869 582 829 558 q 886 593 879 589 q 899 600 893 597 q 908 607 904 604 q 921 588 921 607 q 868 528 921 565 q 756 481 814 492 l 756 478 q 563 86 665 215 q 213 -90 421 -87 q 161 -69 161 -90 q 201 -49 161 -49 q 476 83 365 -49 q 667 458 575 197 l 675 482 q 643 484 657 483 q 618 485 629 485 q 546 457 586 485 q 503 429 503 429 q 488 444 490 429 q 539 504 488 463 q 643 551 594 549 m 682 1118 q 667 1161 667 1146 q 692 1199 667 1171 q 724 1225 714 1225 q 747 1193 731 1225 q 764 1151 764 1161 q 740 1115 764 1142 q 707 1093 715 1093 q 682 1118 699 1093 m 883 1118 q 868 1161 868 1146 q 893 1199 868 1171 q 925 1225 915 1225 q 949 1193 931 1225 q 965 1151 964 1161 q 942 1115 965 1142 q 908 1093 917 1093 q 883 1118 900 1093 z "},"":{"ha":690,"x_min":126,"x_max":642,"o":"m 471 785 l 607 785 q 632 783 629 785 q 642 761 642 778 q 631 728 642 743 q 607 715 621 718 l 446 715 l 211 53 q 204 38 208 46 q 193 19 200 29 q 142 -10 174 -7 q 126 1 126 -10 q 142 53 126 13 l 378 715 l 244 715 q 210 740 210 715 q 244 785 210 783 l 403 785 l 431 863 q 451 944 451 921 q 438 957 451 957 q 408 944 429 957 q 383 932 388 932 q 368 947 369 932 q 435 1004 368 964 q 529 1042 501 1042 q 551 1022 551 1042 q 539 975 551 1010 l 471 785 z "},"":{"ha":690,"x_min":14,"x_max":476,"o":"m 438 325 q 476 307 476 325 q 433 246 476 285 q 374 207 390 207 q 358 222 358 207 q 367 233 358 225 q 375 251 375 242 q 344 261 375 261 l 53 261 q 14 279 14 261 q 57 340 14 301 q 117 379 97 379 q 132 364 132 379 q 124 351 132 361 q 115 335 115 344 q 146 325 115 325 l 438 325 z "},"":{"ha":1389,"x_min":14,"x_max":633,"o":"m 594 325 q 633 307 633 325 q 590 246 633 285 q 531 207 547 207 q 515 222 515 207 q 524 233 515 225 q 532 251 532 242 q 501 261 532 261 l 53 261 q 14 279 14 261 q 57 340 14 301 q 117 379 97 379 q 132 364 132 379 q 124 351 132 361 q 115 335 115 344 q 146 325 115 325 l 594 325 z "},"":{"ha":368,"x_min":89,"x_max":328,"o":"m 274 788 q 308 808 296 808 q 328 775 325 808 q 299 708 328 726 l 131 604 q 103 593 111 593 q 89 613 89 593 q 114 647 89 624 l 274 788 z "},"":{"ha":507,"x_min":147,"x_max":446,"o":"m 163 618 q 147 661 147 646 q 172 699 147 671 q 204 725 194 725 q 228 693 211 725 q 244 651 244 661 q 221 615 244 642 q 188 593 196 593 q 163 618 179 593 m 364 618 q 349 661 349 646 q 374 699 349 671 q 406 725 396 725 q 429 693 411 725 q 446 651 444 661 q 422 615 446 642 q 389 593 397 593 q 364 618 381 593 z "},"":{"ha":497,"x_min":93,"x_max":483,"o":"m 471 649 q 483 625 483 632 q 465 614 483 614 q 396 664 450 614 q 338 713 340 713 q 213 658 321 713 q 101 603 110 603 q 93 615 93 603 q 111 643 93 625 q 215 731 136 668 q 342 810 315 810 q 399 753 357 810 q 434 701 417 726 q 471 649 451 675 z "},"":{"ha":529,"x_min":168,"x_max":583,"o":"m 364 633 q 326 638 343 636 q 293 640 308 639 q 217 614 251 640 q 183 589 181 589 q 168 606 169 589 q 203 663 168 626 q 311 710 249 710 q 338 708 322 710 q 375 703 354 707 q 410 698 394 700 q 438 696 425 696 q 518 711 488 696 q 536 724 528 717 q 551 740 544 731 q 562 751 558 747 q 567 756 565 754 q 583 738 583 756 q 547 671 583 707 q 429 626 503 629 q 402 628 418 626 q 364 633 386 631 z "},"":{"ha":503,"x_min":189,"x_max":521,"o":"m 228 593 q 189 621 192 593 q 228 671 189 669 l 485 671 q 510 668 504 671 q 521 644 521 664 q 508 608 521 622 q 485 593 497 593 l 228 593 z "},"":{"ha":529,"x_min":138,"x_max":540,"o":"m 179 728 q 340 658 251 658 q 497 728 421 658 q 532 750 519 750 q 540 713 540 750 q 521 682 540 700 q 340 593 433 593 q 156 682 240 593 q 138 713 140 700 q 144 750 138 750 q 179 728 157 750 z "},"":{"ha":529,"x_min":310,"x_max":407,"o":"m 325 618 q 315 642 318 632 q 310 661 311 653 q 335 699 310 671 q 367 725 357 725 q 390 693 372 725 q 402 668 399 678 q 407 651 406 658 q 383 615 407 639 q 350 593 358 593 q 325 618 342 593 z "},"":{"ha":529,"x_min":71,"x_max":329,"o":"m 71 -197 q 88 -172 71 -175 q 111 -193 108 -172 q 185 -226 113 -226 q 231 -212 211 -226 q 254 -168 254 -197 q 206 -126 254 -126 q 197 -126 203 -126 q 185 -129 192 -126 q 161 -133 172 -133 q 143 -117 143 -133 q 151 -89 143 -112 l 188 4 l 224 4 l 190 -86 q 216 -82 204 -83 q 238 -79 228 -81 q 329 -156 329 -79 q 283 -232 329 -203 q 185 -260 240 -260 q 94 -233 126 -260 q 71 -197 71 -217 z "},"":{"ha":529,"x_min":225,"x_max":535,"o":"m 344 785 q 383 808 361 808 q 404 775 404 808 q 368 708 404 744 l 267 603 q 239 593 258 593 q 225 613 226 593 q 246 649 225 619 l 344 785 m 475 785 q 514 808 492 808 q 535 775 535 808 q 497 708 535 747 l 397 603 q 369 593 389 593 q 356 613 356 593 q 376 649 356 619 l 475 785 z "},"":{"ha":497,"x_min":72,"x_max":463,"o":"m 85 761 q 72 785 72 778 q 90 796 72 796 q 160 747 107 796 q 218 697 211 697 q 342 753 236 697 q 454 807 447 807 q 463 794 463 807 q 444 767 463 785 q 340 679 419 742 q 214 600 243 603 q 157 657 199 600 q 122 709 139 683 q 85 761 104 735 z "},"":{"ha":236,"x_min":-12,"x_max":232,"o":"m 108 363 q 131 444 131 424 q 115 457 131 457 q 86 444 107 457 q 61 432 65 432 q 46 447 47 432 q 113 503 46 465 q 207 542 178 542 q 232 522 232 542 q 219 475 232 510 l 106 161 q 89 110 94 129 q 82 88 83 92 q 93 75 82 75 q 122 88 101 75 q 147 100 143 100 q 163 85 163 100 q 97 29 163 68 q 10 -10 36 -10 q -12 10 -10 -10 q -1 57 -12 24 l 108 363 z "},"":{"ha":690,"x_min":175,"x_max":515,"o":"m 225 507 q 175 628 175 557 q 225 749 175 699 q 346 797 276 797 q 465 749 418 797 q 515 628 515 699 q 465 507 515 557 q 346 457 419 460 q 225 507 276 457 m 419 703 q 344 735 390 732 q 271 703 303 735 q 240 628 240 674 q 271 553 240 583 q 346 522 300 522 q 419 553 389 522 q 451 628 451 585 q 419 703 451 671 z "},"":{"ha":514,"x_min":-200,"x_max":622,"o":"m 276 426 l 203 158 q 61 -129 146 -50 q -137 -199 -11 -199 q -200 -171 -200 -199 q -167 -144 -200 -144 q -142 -149 -154 -144 q -128 -152 -135 -151 q -117 -154 -122 -153 q 42 -86 -6 -154 q 122 129 74 -42 l 204 426 l 117 426 q 96 438 96 426 q 117 471 96 468 l 217 471 l 222 492 q 369 775 276 694 q 558 840 443 840 q 622 813 622 840 q 588 786 622 786 q 563 790 575 786 q 542 796 551 796 q 408 756 449 796 q 297 494 357 700 l 290 471 l 433 471 q 454 460 454 471 q 433 426 454 428 l 276 426 z "},"":{"ha":690,"x_min":-90,"x_max":656,"o":"m 326 -28 q 69 36 201 -28 l 36 7 q -21 -11 8 -11 q -69 6 -51 -11 q -90 51 -90 22 q 0 115 -90 115 q 64 101 21 115 q 143 426 110 194 l 74 426 q 53 438 56 426 q 74 471 53 468 l 151 471 q 213 669 168 581 q 450 840 297 840 q 604 768 546 840 q 656 611 656 701 q 617 572 656 572 q 581 603 581 572 q 585 629 581 618 q 589 647 589 639 q 443 788 589 788 q 282 642 338 788 q 243 471 247 554 l 363 471 q 383 460 383 471 q 363 426 383 428 l 232 426 q 101 88 188 207 q 350 39 250 39 q 536 92 481 39 q 581 183 560 115 q 614 213 589 210 q 633 185 633 213 q 558 60 633 131 q 326 -28 464 -28 m -21 26 q 33 51 10 26 q -17 71 10 68 q -51 50 -51 71 q -21 26 -51 28 z "},"":{"ha":690,"x_min":74,"x_max":561,"o":"m 108 210 q 74 235 74 210 q 108 279 74 279 l 526 279 q 551 278 549 279 q 561 256 560 274 q 550 222 561 238 q 526 210 539 210 l 108 210 m 231 39 q 220 63 224 53 q 215 82 217 74 q 240 119 215 92 q 272 146 263 146 q 296 114 276 146 q 308 88 304 99 q 313 72 311 78 q 289 36 313 60 q 256 14 264 14 q 231 39 247 14 m 321 368 q 310 392 314 382 q 306 411 307 403 q 331 449 306 421 q 363 475 353 475 q 386 443 367 475 q 398 417 394 428 q 403 401 401 407 q 379 365 403 389 q 346 343 354 343 q 321 368 338 343 z "},"":{"ha":1200,"x_min":28,"x_max":1306,"o":"m 1285 1042 q 1301 1022 1301 1042 q 1296 993 1301 1014 q 1278 936 1290 972 l 1143 542 q 1050 299 1099 414 q 938 97 1001 183 q 790 -40 874 11 q 594 -90 707 -90 q 488 -47 488 -90 q 536 -11 488 -11 q 587 -22 556 -11 q 656 -33 618 -33 q 790 9 732 -33 q 892 119 847 51 q 969 269 936 186 q 1028 432 1001 351 l 1024 432 q 800 351 914 351 q 715 389 747 351 q 682 483 682 426 q 697 567 682 524 q 726 650 713 610 l 788 829 q 796 863 793 846 q 799 900 799 881 q 772 947 799 928 q 705 976 746 965 q 615 992 664 988 q 521 996 565 996 q 386 976 457 996 q 256 919 315 957 q 156 828 196 882 q 117 706 117 774 q 344 514 117 514 q 367 492 367 514 q 338 469 367 469 q 105 526 182 469 q 28 704 28 582 q 51 803 28 757 q 112 886 74 849 q 200 952 150 924 q 305 1001 250 981 q 415 1031 360 1021 q 521 1042 471 1042 q 635 1037 569 1042 q 758 1019 700 1032 q 858 987 817 1007 q 899 938 899 967 q 869 829 899 914 l 806 651 q 774 553 783 590 q 765 496 765 517 q 851 410 765 410 q 1046 500 936 410 l 1182 896 q 1192 932 1192 922 q 1178 944 1192 944 q 1150 933 1168 944 q 1124 922 1132 922 q 1111 936 1111 922 q 1133 962 1111 944 q 1183 997 1154 979 q 1242 1028 1213 1015 q 1285 1042 1271 1042 m 944 1214 q 1106 1144 1017 1144 q 1263 1214 1186 1144 q 1297 1236 1285 1236 q 1306 1199 1306 1236 q 1286 1168 1306 1186 q 1106 1079 1199 1079 q 921 1168 1006 1079 q 903 1199 906 1186 q 910 1236 903 1236 q 944 1214 922 1236 z "},"":{"ha":607,"x_min":-53,"x_max":679,"o":"m 279 542 q 301 522 301 542 q 295 488 301 507 q 279 446 289 469 l 156 129 q 143 74 143 100 q 172 43 143 43 q 248 62 211 43 q 317 110 285 81 q 373 176 349 140 q 411 246 397 213 l 503 479 q 519 512 513 503 q 543 531 525 521 q 576 542 565 542 q 592 531 592 542 q 575 479 592 525 l 431 97 q 365 -69 397 7 q 294 -201 332 -144 q 210 -288 257 -257 q 100 -319 163 -319 q 58 -312 83 -319 q 8 -292 32 -306 q -35 -261 -17 -279 q -53 -222 -53 -243 q -17 -183 -53 -183 q 7 -199 -4 -183 q 31 -231 18 -214 q 63 -264 44 -249 q 108 -279 81 -279 q 186 -257 153 -279 q 248 -190 219 -235 q 302 -76 276 -144 q 357 88 328 -7 l 356 88 q 298 41 329 61 q 233 7 267 21 q 167 -14 200 -7 q 106 -21 135 -21 q 57 38 57 -21 q 75 121 57 72 l 186 417 q 194 444 194 435 q 183 457 194 457 q 170 453 179 457 q 152 444 161 449 q 135 436 143 440 q 125 432 128 432 q 110 447 110 432 q 130 474 110 458 q 177 506 150 490 q 233 531 204 521 q 279 542 261 542 m 318 728 q 479 658 390 658 q 636 728 560 658 q 671 750 658 750 q 679 713 679 750 q 660 682 679 700 q 479 593 572 593 q 294 682 379 593 q 276 713 279 700 q 283 750 276 750 q 318 728 296 750 z "},"":{"ha":1389,"x_min":278,"x_max":1140,"o":"m 814 561 l 1029 811 l 1140 811 l 926 561 l 1139 561 l 1139 469 l 847 469 l 688 282 l 1139 282 l 1139 190 l 608 190 l 393 -62 l 279 -62 l 496 190 l 278 190 l 278 282 l 575 282 l 735 469 l 278 469 l 278 561 l 814 561 z "},"":{"ha":1389,"x_min":285,"x_max":1146,"o":"m 1146 92 l 1146 0 l 285 0 l 285 92 l 1146 92 m 1146 842 l 1146 750 l 422 469 l 1146 260 l 1146 168 l 285 425 l 285 517 l 1146 842 z "},"":{"ha":1389,"x_min":285,"x_max":1146,"o":"m 1146 0 l 285 0 l 285 92 l 1146 92 l 1146 0 m 1146 425 l 285 168 l 285 260 l 1008 469 l 285 750 l 285 842 l 1146 517 l 1146 425 z "},"":{"ha":1389,"x_min":282,"x_max":1143,"o":"m 282 188 q 298 216 290 204 q 313 235 306 228 q 335 260 321 247 q 367 288 349 272 q 514 350 444 349 q 646 329 571 350 l 765 294 q 806 284 785 289 q 854 272 828 279 q 953 258 918 258 q 1118 342 1032 258 l 1143 326 q 993 172 1085 210 q 924 157 961 157 q 831 169 885 157 q 792 178 813 174 q 749 190 772 183 l 621 225 q 542 242 576 236 q 481 249 507 247 q 419 238 457 249 q 376 220 397 231 q 336 194 356 210 l 303 167 l 282 188 l 282 188 m 1143 563 q 924 396 1064 396 q 835 406 890 396 q 701 438 781 415 l 604 464 q 479 488 522 488 q 406 471 444 488 q 325 421 361 451 l 303 403 l 282 425 l 314 472 q 519 589 397 585 q 668 564 585 589 l 760 538 q 958 497 893 497 q 1013 507 985 497 q 1094 558 1061 525 q 1106 570 1100 564 q 1121 586 1113 576 l 1143 563 z "},"":{"ha":926,"x_min":25,"x_max":897,"o":"m 501 951 l 897 0 l 25 0 l 501 951 m 149 132 l 692 132 l 453 736 l 149 132 z "},"":{"ha":1003,"x_min":38,"x_max":1172,"o":"m 913 1051 l 1172 1051 l 1172 993 l 982 993 l 604 -244 l 553 -244 l 167 314 l 67 242 l 38 308 l 240 440 l 585 -71 l 913 1051 z "},"":{"ha":1246,"x_min":28,"x_max":1433,"o":"m 367 492 q 338 469 367 469 q 105 529 182 469 q 28 704 28 589 q 78 851 28 788 q 207 956 129 914 q 378 1020 285 999 q 558 1042 472 1042 q 675 1037 610 1042 q 799 1019 740 1032 q 897 987 857 1007 q 936 938 936 967 q 907 829 936 922 l 801 489 q 1119 815 1086 785 q 1385 1006 1318 1006 q 1433 964 1433 1006 q 1414 939 1433 950 q 1382 928 1394 928 q 1178 801 1317 928 q 1098 724 1147 774 q 978 599 1049 674 l 1058 144 q 1092 88 1069 88 q 1109 95 1099 88 q 1131 111 1119 103 q 1154 127 1142 119 q 1179 135 1167 135 q 1194 114 1194 135 q 1174 81 1194 103 q 1126 39 1154 60 q 1070 2 1099 18 q 1025 -14 1042 -14 q 996 0 1006 -14 q 988 26 993 7 q 981 64 983 44 l 900 515 q 845 463 879 499 q 763 372 811 428 q 321 -90 597 -90 q 269 -69 269 -90 q 310 -49 269 -49 q 453 -10 393 -49 q 558 96 513 28 q 638 257 603 164 q 708 458 674 350 l 825 829 q 833 864 831 847 q 836 900 836 881 q 809 947 836 928 q 741 976 782 965 q 651 992 700 988 q 558 996 603 996 q 406 978 483 996 q 263 925 328 961 q 158 834 199 889 q 117 706 117 779 q 344 514 117 514 q 367 492 367 514 m 1246 1274 q 1281 1294 1268 1294 q 1300 1261 1297 1294 q 1271 1194 1300 1213 l 1103 1090 q 1075 1079 1083 1079 q 1061 1099 1061 1079 q 1086 1133 1061 1110 l 1246 1274 z "},"":{"ha":549,"x_min":-6,"x_max":633,"o":"m 119 167 l 79 53 q 53 10 72 31 q 10 -10 35 -10 q -6 1 -3 -10 q -1 20 -6 6 q 10 53 3 35 l 122 363 q 143 444 143 418 q 129 457 143 457 q 100 444 118 457 q 75 432 82 432 q 60 447 60 432 q 80 474 60 458 q 127 506 100 490 q 181 531 154 521 q 221 542 208 542 q 243 522 243 542 q 231 475 243 510 l 146 239 l 372 439 q 554 542 490 542 q 593 510 593 542 q 569 481 593 485 q 536 478 553 478 q 503 474 519 478 q 449 451 475 467 q 394 411 422 435 l 293 319 l 390 99 q 426 58 410 58 q 442 63 435 58 q 456 74 449 68 q 470 85 464 81 q 482 90 476 90 q 499 67 499 90 q 485 47 499 60 q 453 21 472 33 q 414 -1 435 8 q 379 -10 393 -10 q 332 39 353 -10 l 236 268 l 119 167 m 579 926 q 614 947 601 947 q 633 914 631 947 q 604 847 633 865 l 436 743 q 408 732 417 732 q 394 751 394 732 q 419 786 394 763 l 579 926 z "}," ":{"ha":313,"x_min":0,"x_max":0,"o":""}}}
